SplineFontDB: 3.0
FontName: Dirooz
FullName: Dirooz
FamilyName: Dirooz
Weight: Regular
Copyright: Copyright (c) 2003 by Bitstream, Inc. All Rights Reserved.\nDejaVu changes are in public domain\nChanges by Saber Rastikerdar are in public domain.\nNon-Arabic(Latin) glyphs and data in extended version are imported from Roboto font under the Apache License, Version 2.0.
Version: 0.2.1
ItalicAngle: 0
UnderlinePosition: -500
UnderlineWidth: 100
Ascent: 1638
Descent: 410
InvalidEm: 0
LayerCount: 2
Layer: 0 1 "Back" 1
Layer: 1 1 "Fore" 0
PreferredKerning: 4
XUID: [1021 502 1027637223 12546297]
UniqueID: 4019487
UseUniqueID: 1
FSType: 0
OS2Version: 1
OS2_WeightWidthSlopeOnly: 0
OS2_UseTypoMetrics: 1
CreationTime: 1431850356
ModificationTime: 1505419346
PfmFamily: 33
TTFWeight: 400
TTFWidth: 5
LineGap: 0
VLineGap: 0
Panose: 2 11 6 3 3 8 4 2 2 4
OS2TypoAscent: 2350
OS2TypoAOffset: 0
OS2TypoDescent: -1100
OS2TypoDOffset: 0
OS2TypoLinegap: 0
OS2WinAscent: 2350
OS2WinAOffset: 0
OS2WinDescent: 1100
OS2WinDOffset: 0
HheadAscent: 2350
HheadAOffset: 0
HheadDescent: -1100
HheadDOffset: 0
OS2SubXSize: 1331
OS2SubYSize: 1433
OS2SubXOff: 0
OS2SubYOff: 286
OS2SupXSize: 1331
OS2SupYSize: 1433
OS2SupXOff: 0
OS2SupYOff: 983
OS2StrikeYSize: 102
OS2StrikeYPos: 530
OS2CapHeight: 1638
OS2XHeight: 1082
OS2Vendor: 'PfEd'
OS2CodePages: 00000041.20080000
OS2UnicodeRanges: 80002003.80000000.00000008.00000000
Lookup: 1 9 0 "'fina' Terminal Forms in Arabic lookup 9" { "'fina' Terminal Forms in Arabic lookup 9 subtable"  } ['fina' ('arab' <'KUR ' 'SND ' 'URD ' 'dflt' > ) ]
Lookup: 1 9 0 "'medi' Medial Forms in Arabic lookup 11" { "'medi' Medial Forms in Arabic lookup 11 subtable"  } ['medi' ('arab' <'KUR ' 'SND ' 'URD ' 'dflt' > ) ]
Lookup: 1 9 0 "'init' Initial Forms in Arabic lookup 13" { "'init' Initial Forms in Arabic lookup 13 subtable"  } ['init' ('arab' <'KUR ' 'SND ' 'URD ' 'dflt' > ) ]

StartChar: exclam
Encoding: 33 33 1
GlifName: exclam
Width: 641
VWidth: 2764
GlyphClass: 2
Flags: W
LayerCount: 2
Fore
SplineSet
185.091796875 140.493164062 m 0,0,1
 185.091796875 196.368164062 185.091796875 196.368164062 224.748046875 236.0234375 c 128,-1,2
 264.403320312 275.6796875 264.403320312 275.6796875 320.278320312 275.6796875 c 128,-1,3
 376.154296875 275.6796875 376.154296875 275.6796875 415.809570312 236.0234375 c 128,-1,4
 455.463867188 196.368164062 455.463867188 196.368164062 455.463867188 140.493164062 c 128,-1,5
 455.463867188 84.6181640625 455.463867188 84.6181640625 415.809570312 44.962890625 c 128,-1,6
 376.154296875 5.306640625 376.154296875 5.306640625 320.278320312 5.306640625 c 0,7,8
 271.354492188 5.306640625 271.354492188 5.306640625 234.928710938 35.65234375 c 0,9,10
 207.508789062 58.4951171875 207.508789062 58.4951171875 194.985351562 88.666015625 c 0,11,12
 185.091796875 112.499023438 185.091796875 112.499023438 185.091796875 140.493164062 c 0,0,1
213.161132812 1436.07128906 m 5,13,-1
 430.612304688 1436.07128906 l 5,14,-1
 406.094726562 499.32421875 l 1,15,-1
 238.90234375 499.32421875 l 1,16,-1
 213.161132812 1436.07128906 l 5,13,-1
EndSplineSet
EndChar

StartChar: period
Encoding: 46 46 2
GlifName: period
Width: 641
VWidth: 2764
GlyphClass: 2
Flags: W
LayerCount: 2
Fore
SplineSet
185.091796875 140.493164062 m 4,0,1
 185.091796875 196.368164062 185.091796875 196.368164062 224.748046875 236.0234375 c 132,-1,2
 264.403320312 275.6796875 264.403320312 275.6796875 320.278320312 275.6796875 c 132,-1,3
 376.154296875 275.6796875 376.154296875 275.6796875 415.809570312 236.0234375 c 132,-1,4
 455.463867188 196.368164062 455.463867188 196.368164062 455.463867188 140.493164062 c 132,-1,5
 455.463867188 84.6181640625 455.463867188 84.6181640625 415.809570312 44.962890625 c 132,-1,6
 376.154296875 5.306640625 376.154296875 5.306640625 320.278320312 5.306640625 c 4,7,8
 271.354492188 5.306640625 271.354492188 5.306640625 234.928710938 35.65234375 c 4,9,10
 207.508789062 58.4951171875 207.508789062 58.4951171875 194.985351562 88.666015625 c 4,11,12
 185.091796875 112.499023438 185.091796875 112.499023438 185.091796875 140.493164062 c 4,0,1
EndSplineSet
EndChar

StartChar: colon
Encoding: 58 58 3
GlifName: colon
Width: 641
VWidth: 2764
GlyphClass: 2
Flags: W
LayerCount: 2
Fore
SplineSet
185.091796875 1010.49316406 m 0,0,1
 185.091796875 1066.36816406 185.091796875 1066.36816406 224.748046875 1106.0234375 c 128,-1,2
 264.403320312 1145.6796875 264.403320312 1145.6796875 320.278320312 1145.6796875 c 128,-1,3
 376.154296875 1145.6796875 376.154296875 1145.6796875 415.809570312 1106.0234375 c 128,-1,4
 455.463867188 1066.36816406 455.463867188 1066.36816406 455.463867188 1010.49316406 c 128,-1,5
 455.463867188 954.618164062 455.463867188 954.618164062 415.809570312 914.962890625 c 128,-1,6
 376.154296875 875.306640625 376.154296875 875.306640625 320.278320312 875.306640625 c 0,7,8
 271.354492188 875.306640625 271.354492188 875.306640625 234.928710938 905.65234375 c 0,9,10
 207.508789062 928.495117188 207.508789062 928.495117188 194.985351562 958.666015625 c 0,11,12
 185.091796875 982.499023438 185.091796875 982.499023438 185.091796875 1010.49316406 c 0,0,1
185.091796875 140.493164062 m 0,13,14
 185.091796875 196.368164062 185.091796875 196.368164062 224.748046875 236.0234375 c 128,-1,15
 264.403320312 275.6796875 264.403320312 275.6796875 320.278320312 275.6796875 c 128,-1,16
 376.154296875 275.6796875 376.154296875 275.6796875 415.809570312 236.0234375 c 128,-1,17
 455.463867188 196.368164062 455.463867188 196.368164062 455.463867188 140.493164062 c 128,-1,18
 455.463867188 84.6181640625 455.463867188 84.6181640625 415.809570312 44.962890625 c 128,-1,19
 376.154296875 5.306640625 376.154296875 5.306640625 320.278320312 5.306640625 c 0,20,21
 271.354492188 5.306640625 271.354492188 5.306640625 234.928710938 35.65234375 c 0,22,23
 207.508789062 58.4951171875 207.508789062 58.4951171875 194.985351562 88.666015625 c 0,24,25
 185.091796875 112.499023438 185.091796875 112.499023438 185.091796875 140.493164062 c 0,13,14
EndSplineSet
EndChar

StartChar: afii57388
Encoding: 1548 1548 5
GlifName: afii57388
Width: 739
VWidth: 2772
GlyphClass: 2
Flags: W
LayerCount: 2
Fore
SplineSet
235.5 290 m 0,0,1
 285 535 285 535 482.162109375 684.440429688 c 1,2,-1
 530.396484375 654.436523438 l 1,3,4
 372 512 372 512 355.990234375 289.19921875 c 1,5,6
 489 291 489 291 522.62890625 224.916015625 c 0,7,8
 542 186 542 186 541.086914062 148 c 0,9,10
 539 9 539 9 396 8.9072265625 c 0,11,12
 179 8 179 8 235.5 290 c 0,0,1
EndSplineSet
EndChar

StartChar: uni0615
Encoding: 1557 1557 6
GlifName: uni0615
Width: -29
VWidth: 2714
GlyphClass: 4
Flags: W
AnchorPoint: "Anchor-10" 658.199 1624.46 mark 0
AnchorPoint: "Anchor-9" 658.199 1624.46 mark 0
AnchorPoint: "Anchor-1" 672.366 2447.86 basemark 0
AnchorPoint: "Anchor-1" 658.199 1624.46 mark 0
LayerCount: 2
Fore
SplineSet
541.2421875 1790.00390625 m 1,0,-1
 677.703125 1790.00390625 l 2,1,2
 781.798204784 1790.00390625 781.798204784 1790.00390625 845.899102392 1824.50195312 c 128,-1,3
 910 1859 910 1859 912.581054688 1912.3965269 c 128,-1,4
 915.162109375 1965.79305381 915.162109375 1965.79305381 882.439453125 1983.51855469 c 0,5,6
 775.123475479 2043.41282427 775.123475479 2043.41282427 541.2421875 1790.00390625 c 1,0,-1
991.1328125 1928.79980469 m 0,7,8
 991.00004589 1714.07421875 991.00004589 1714.07421875 668.384765625 1714.07421875 c 6,9,-1
 354.936523438 1714.07421875 l 1,10,-1
 354.936523438 1790.00390625 l 1,11,-1
 462.987304688 1790.00390625 l 1,12,-1
 462.987304688 2322.15039062 l 1,13,-1
 540.234375 2321.18359375 l 1,14,-1
 539.275390625 1893.90234375 l 1,15,16
 747 2130 747 2130 912.387695312 2066.69433594 c 0,17,18
 991 2037 991 2037 991.1328125 1928.79980469 c 0,7,8
EndSplineSet
EndChar

StartChar: uni061B
Encoding: 1563 1563 7
GlifName: uni061B_
Width: 739
VWidth: 2772
GlyphClass: 2
Flags: W
LayerCount: 2
Fore
SplineSet
262.091796875 140.493164062 m 0,0,1
 262.091796875 196.368164062 262.091796875 196.368164062 301.748046875 236.0234375 c 128,-1,2
 341.403320312 275.6796875 341.403320312 275.6796875 397.278320312 275.6796875 c 128,-1,3
 453.154296875 275.6796875 453.154296875 275.6796875 492.809570312 236.0234375 c 128,-1,4
 532.463867188 196.368164062 532.463867188 196.368164062 532.463867188 140.493164062 c 128,-1,5
 532.463867188 84.6181640625 532.463867188 84.6181640625 492.809570312 44.962890625 c 128,-1,6
 453.154296875 5.306640625 453.154296875 5.306640625 397.278320312 5.306640625 c 0,7,8
 348.354492188 5.306640625 348.354492188 5.306640625 311.928710938 35.65234375 c 0,9,10
 284.508789062 58.4951171875 284.508789062 58.4951171875 271.985351562 88.666015625 c 0,11,12
 262.091796875 112.499023438 262.091796875 112.499023438 262.091796875 140.493164062 c 0,0,1
235.5 770 m 0,13,14
 285 1015 285 1015 482.162109375 1164.44042969 c 1,15,-1
 530.396484375 1134.43652344 l 1,16,17
 372 992 372 992 355.990234375 769.19921875 c 1,18,19
 489 771 489 771 522.62890625 704.916015625 c 0,20,21
 542 666 542 666 541.086622712 628 c 0,22,23
 539 489 539 489 396 488.907226562 c 0,24,25
 179 488 179 488 235.5 770 c 0,13,14
EndSplineSet
EndChar

StartChar: uni061F
Encoding: 1567 1567 8
GlifName: uni061F_
Width: 974
VWidth: 2764
GlyphClass: 2
Flags: W
LayerCount: 2
Fore
SplineSet
418.091796875 140.493164062 m 0,0,1
 418.091796875 196.368164062 418.091796875 196.368164062 457.748046875 236.0234375 c 128,-1,2
 497.403320312 275.6796875 497.403320312 275.6796875 553.278320312 275.6796875 c 128,-1,3
 609.154296875 275.6796875 609.154296875 275.6796875 648.809570312 236.0234375 c 128,-1,4
 688.463867188 196.368164062 688.463867188 196.368164062 688.463867188 140.493164062 c 128,-1,5
 688.463867188 84.6181640625 688.463867188 84.6181640625 648.809570312 44.962890625 c 128,-1,6
 609.154296875 5.306640625 609.154296875 5.306640625 553.278320312 5.306640625 c 0,7,8
 504.354492188 5.306640625 504.354492188 5.306640625 467.928710938 35.65234375 c 0,9,10
 440.508789062 58.4951171875 440.508789062 58.4951171875 427.985351562 88.666015625 c 0,11,12
 418.091796875 112.499023438 418.091796875 112.499023438 418.091796875 140.493164062 c 0,0,1
452.352539062 496.333007812 m 1,13,14
 449 540 449 540 285.53515625 699.174804688 c 4,15,16
 107 873 107 873 111 1057 c 4,17,18
 114 1205 114 1205 198 1301 c 4,19,20
 317 1435 317 1435 508.94921875 1434.51660156 c 0,21,22
 876 1433 876 1433 876 1046 c 2,23,24
 876 1036.25 l 1,25,-1
 715.799804688 1036.24804688 l 1,26,-1
 715.799804688 1044.86523438 l 2,27,28
 716 1241 716 1241 517.600585938 1240.89453125 c 0,29,30
 400 1241 400 1241 344.391601562 1174 c 0,31,32
 300 1121 300 1121 299.510742188 1039 c 0,33,34
 299 929 299 929 439.584960938 782.73046875 c 0,35,36
 652 559 652 559 654.981445312 496.333007812 c 1,37,-1
 452.352539062 496.333007812 l 1,13,14
EndSplineSet
EndChar

StartChar: uni0621
Encoding: 1569 1569 9
GlifName: uni0621
Width: 908
VWidth: 2952
GlyphClass: 2
Flags: W
AnchorPoint: "Anchor-7" 465.326 -239.646 basechar 0
AnchorPoint: "Anchor-10" 483.848 1372.06 basechar 0
LayerCount: 2
Fore
SplineSet
117.76953125 11.8525390625 m 1,0,-1
 117.76953125 189.793945312 l 1,1,2
 246 271 246 271 358.288085938 306.58203125 c 1,3,4
 126 428 126 428 126.553710938 619.323242188 c 0,5,6
 127 743 127 743 210.333007812 841.111328125 c 0,7,8
 309 956 309 956 488.572265625 955.806640625 c 0,9,10
 645 956 645 956 763.940429688 854.368164062 c 1,11,-1
 707.364257812 726.549804688 l 1,12,13
 608 780 608 780 500.333007812 780.4375 c 0,14,15
 295 780 295 780 295.028320312 619.267578125 c 0,16,17
 295 494 295 494 517.772460938 390.049804688 c 1,18,-1
 800.5 447.1484375 l 1,19,-1
 800.5 274.701171875 l 1,20,21
 539.203125 244 539.203125 244 117.76953125 11.8525390625 c 1,0,-1
EndSplineSet
EndChar

StartChar: uni0627
Encoding: 1575 1575 15
GlifName: uni0627
Width: 497
VWidth: 2952
GlyphClass: 2
Flags: W
AnchorPoint: "Anchor-10" 239.871 1583.46 basechar 0
AnchorPoint: "Anchor-7" 253.587 -236.365 basechar 0
LayerCount: 2
Fore
SplineSet
164.890625 1418.15039062 m 1,0,-1
 334.205078125 1418.15039062 l 5,1,-1
 334.205078125 0.751953125 l 1,2,-1
 164.890625 0.751953125 l 1,3,-1
 164.890625 1418.15039062 l 1,0,-1
EndSplineSet
Substitution2: "'fina' Terminal Forms in Arabic lookup 9 subtable" uniFE8E
EndChar

StartChar: uni062D
Encoding: 1581 1581 21
GlifName: uni062D_
Width: 1306
VWidth: 2952
GlyphClass: 2
Flags: W
AnchorPoint: "Anchor-7" 496.833 -922.619 basechar 0
AnchorPoint: "Anchor-10" 573.478 1306.07 basechar 0
LayerCount: 2
Fore
SplineSet
791 539.994140625 m 1,0,1
 734 563 734 563 677.876953125 585.083007812 c 0,2,3
 505 653 505 653 384.310546875 653.686523438 c 4,4,5
 255 654 255 654 121.990234375 598.030273438 c 5,6,-1
 121.991210938 755.029296875 l 5,7,8
 227 835 227 835 392.32421875 835.841796875 c 4,9,10
 540 836 540 836 715.991210938 760.029296875 c 0,11,12
 1071 606 1071 606 1198.90820312 600.69140625 c 1,13,-1
 1184.91894531 426.9296875 l 1,14,15
 1009 416 1009 416 892.70703125 389.5703125 c 0,16,17
 285 247 285 247 285.249023438 -119.302734375 c 0,18,19
 285 -468 285 -468 816.383789062 -467.783203125 c 0,20,21
 1008 -468 1008 -468 1188.31152344 -382.284179688 c 1,22,-1
 1188 -570 l 1,23,24
 1036 -643 1036 -643 801.528320312 -643.249023438 c 0,25,26
 405 -643 405 -643 234 -459.306640625 c 0,27,28
 115 -331 115 -331 114.987304688 -134.852539062 c 0,29,30
 115.000001757 390.072656674 115.000001757 390.072656674 781 537.776367188 c 2,31,-1
 791 539.994140625 l 1,0,1
EndSplineSet
Substitution2: "'fina' Terminal Forms in Arabic lookup 9 subtable" uniFEA2
Substitution2: "'medi' Medial Forms in Arabic lookup 11 subtable" uniFEA4
Substitution2: "'init' Initial Forms in Arabic lookup 13 subtable" uniFEA3
EndChar

StartChar: uni062F
Encoding: 1583 1583 23
GlifName: uni062F_
Width: 980
VWidth: 2952
GlyphClass: 2
Flags: W
AnchorPoint: "Anchor-10" 424.137 1375.03 basechar 0
AnchorPoint: "Anchor-7" 437.24 -239.316 basechar 0
LayerCount: 2
Fore
SplineSet
100.982421875 213.208007812 m 1,0,1
 222 188 222 188 341.663085938 188.107421875 c 0,2,3
 692 188 692 188 691.954101562 366.380859375 c 0,4,5
 692 556 692 556 323 788 c 5,6,-1
 396 962.844726562 l 5,7,8
 879 672 879 672 878.479492188 368.896484375 c 0,9,10
 878 3 878 3 354.810072299 2.25983437974 c 0,11,12
 208 2 208 2 100.982421875 25.8583984375 c 1,13,-1
 100.982421875 213.208007812 l 1,0,1
EndSplineSet
Substitution2: "'fina' Terminal Forms in Arabic lookup 9 subtable" uniFEAA
EndChar

StartChar: uni0631
Encoding: 1585 1585 25
GlifName: uni0631
Width: 800
VWidth: 2144
GlyphClass: 2
Flags: W
AnchorPoint: "Anchor-10" 459.256 1370.2 basechar 0
AnchorPoint: "Anchor-7" 364.969 -769.998 basechar 0
LayerCount: 2
Fore
SplineSet
633 511 m 1,0,1
 703 325 703 325 703 174 c 0,2,3
 703 -461.701431247 703 -461.701431247 -13 -472.319335938 c 1,4,-1
 -13.130859375 -299.87890625 l 1,5,6
 529 -293 529 -293 528.250976562 172.243164062 c 0,7,8
 528 313 528 313 435 512 c 1,9,-1
 633 511 l 1,0,1
EndSplineSet
PairPos2: "'kern' Horizontal Kerning lookup 15-2" uniFBFE dx=60 dy=0 dh=60 dv=0 dx=0 dy=0 dh=0 dv=0
PairPos2: "'kern' Horizontal Kerning lookup 15-1" uniFEE7 dx=-178 dy=0 dh=-178 dv=0 dx=0 dy=0 dh=0 dv=0
PairPos2: "'kern' Horizontal Kerning lookup 15-2" uniFB90 dx=-226 dy=0 dh=-226 dv=0 dx=0 dy=0 dh=0 dv=0
PairPos2: "'kern' Horizontal Kerning lookup 15-2" uniFB8E dx=-226 dy=0 dh=-226 dv=0 dx=0 dy=0 dh=0 dv=0
PairPos2: "'kern' Horizontal Kerning lookup 15-2" uni06A9 dx=-226 dy=0 dh=-226 dv=0 dx=0 dy=0 dh=0 dv=0
PairPos2: "'kern' Horizontal Kerning lookup 15-2" uni064A dx=-60 dy=0 dh=-60 dv=0 dx=0 dy=0 dh=0 dv=0
PairPos2: "'kern' Horizontal Kerning lookup 15-2" afii57414 dx=-60 dy=0 dh=-60 dv=0 dx=0 dy=0 dh=0 dv=0
PairPos2: "'kern' Horizontal Kerning lookup 15-2" uni0649 dx=-60 dy=0 dh=-60 dv=0 dx=0 dy=0 dh=0 dv=0
PairPos2: "'kern' Horizontal Kerning lookup 15-2" uniFEEB dx=-178 dy=0 dh=-178 dv=0 dx=0 dy=0 dh=0 dv=0
PairPos2: "'kern' Horizontal Kerning lookup 15-2" uni0647 dx=-178 dy=0 dh=-178 dv=0 dx=0 dy=0 dh=0 dv=0
PairPos2: "'kern' Horizontal Kerning lookup 15-2" uni0646 dx=-60 dy=0 dh=-60 dv=0 dx=0 dy=0 dh=0 dv=0
PairPos2: "'kern' Horizontal Kerning lookup 15-2" uniFEE3 dx=-178 dy=0 dh=-178 dv=0 dx=0 dy=0 dh=0 dv=0
PairPos2: "'kern' Horizontal Kerning lookup 15-2" uni0645 dx=-178 dy=0 dh=-178 dv=0 dx=0 dy=0 dh=0 dv=0
PairPos2: "'kern' Horizontal Kerning lookup 15-2" uniFEFB dx=-143 dy=0 dh=-143 dv=0 dx=0 dy=0 dh=0 dv=0
PairPos2: "'kern' Horizontal Kerning lookup 15-2" uniFEDF dx=-143 dy=0 dh=-143 dv=0 dx=0 dy=0 dh=0 dv=0
PairPos2: "'kern' Horizontal Kerning lookup 15-2" uni0644 dx=-60 dy=0 dh=-60 dv=0 dx=0 dy=0 dh=0 dv=0
PairPos2: "'kern' Horizontal Kerning lookup 15-2" uniFEDB dx=-226 dy=0 dh=-226 dv=0 dx=0 dy=0 dh=0 dv=0
PairPos2: "'kern' Horizontal Kerning lookup 15-2" uni0643 dx=-143 dy=0 dh=-143 dv=0 dx=0 dy=0 dh=0 dv=0
PairPos2: "'kern' Horizontal Kerning lookup 15-2" uniFED7 dx=-178 dy=0 dh=-178 dv=0 dx=0 dy=0 dh=0 dv=0
PairPos2: "'kern' Horizontal Kerning lookup 15-2" uni0642 dx=-60 dy=0 dh=-60 dv=0 dx=0 dy=0 dh=0 dv=0
PairPos2: "'kern' Horizontal Kerning lookup 15-2" uniFED3 dx=-178 dy=0 dh=-178 dv=0 dx=0 dy=0 dh=0 dv=0
PairPos2: "'kern' Horizontal Kerning lookup 15-2" uni0641 dx=-178 dy=0 dh=-178 dv=0 dx=0 dy=0 dh=0 dv=0
PairPos2: "'kern' Horizontal Kerning lookup 15-2" uniFECF dx=-178 dy=0 dh=-178 dv=0 dx=0 dy=0 dh=0 dv=0
PairPos2: "'kern' Horizontal Kerning lookup 15-2" uniFECB dx=-178 dy=0 dh=-178 dv=0 dx=0 dy=0 dh=0 dv=0
PairPos2: "'kern' Horizontal Kerning lookup 15-2" uniFEC7 dx=-178 dy=0 dh=-178 dv=0 dx=0 dy=0 dh=0 dv=0
PairPos2: "'kern' Horizontal Kerning lookup 15-2" uni0638 dx=-178 dy=0 dh=-178 dv=0 dx=0 dy=0 dh=0 dv=0
PairPos2: "'kern' Horizontal Kerning lookup 15-2" uniFEC3 dx=-178 dy=0 dh=-178 dv=0 dx=0 dy=0 dh=0 dv=0
PairPos2: "'kern' Horizontal Kerning lookup 15-2" uni0637 dx=-178 dy=0 dh=-178 dv=0 dx=0 dy=0 dh=0 dv=0
PairPos2: "'kern' Horizontal Kerning lookup 15-2" uniFEBF dx=-178 dy=0 dh=-178 dv=0 dx=0 dy=0 dh=0 dv=0
PairPos2: "'kern' Horizontal Kerning lookup 15-2" uni0636 dx=-178 dy=0 dh=-178 dv=0 dx=0 dy=0 dh=0 dv=0
PairPos2: "'kern' Horizontal Kerning lookup 15-2" uniFEBB dx=-178 dy=0 dh=-178 dv=0 dx=0 dy=0 dh=0 dv=0
PairPos2: "'kern' Horizontal Kerning lookup 15-2" uni0635 dx=-178 dy=0 dh=-178 dv=0 dx=0 dy=0 dh=0 dv=0
PairPos2: "'kern' Horizontal Kerning lookup 15-2" uniFEB7 dx=-178 dy=0 dh=-178 dv=0 dx=0 dy=0 dh=0 dv=0
PairPos2: "'kern' Horizontal Kerning lookup 15-2" uni0634 dx=-178 dy=0 dh=-178 dv=0 dx=0 dy=0 dh=0 dv=0
PairPos2: "'kern' Horizontal Kerning lookup 15-2" uniFEB3 dx=-178 dy=0 dh=-178 dv=0 dx=0 dy=0 dh=0 dv=0
PairPos2: "'kern' Horizontal Kerning lookup 15-2" uni0633 dx=-178 dy=0 dh=-178 dv=0 dx=0 dy=0 dh=0 dv=0
PairPos2: "'kern' Horizontal Kerning lookup 15-2" uni0630 dx=-178 dy=0 dh=-178 dv=0 dx=0 dy=0 dh=0 dv=0
PairPos2: "'kern' Horizontal Kerning lookup 15-2" uni062F dx=-178 dy=0 dh=-178 dv=0 dx=0 dy=0 dh=0 dv=0
PairPos2: "'kern' Horizontal Kerning lookup 15-2" uniFEA7 dx=-178 dy=0 dh=-178 dv=0 dx=0 dy=0 dh=0 dv=0
PairPos2: "'kern' Horizontal Kerning lookup 15-2" uniFEA3 dx=-178 dy=0 dh=-178 dv=0 dx=0 dy=0 dh=0 dv=0
PairPos2: "'kern' Horizontal Kerning lookup 15-2" uniFE9F dx=-178 dy=0 dh=-178 dv=0 dx=0 dy=0 dh=0 dv=0
PairPos2: "'kern' Horizontal Kerning lookup 15-2" uniFE9B dx=-178 dy=0 dh=-178 dv=0 dx=0 dy=0 dh=0 dv=0
PairPos2: "'kern' Horizontal Kerning lookup 15-2" uni062B dx=-178 dy=0 dh=-178 dv=0 dx=0 dy=0 dh=0 dv=0
PairPos2: "'kern' Horizontal Kerning lookup 15-2" uniFE97 dx=-178 dy=0 dh=-178 dv=0 dx=0 dy=0 dh=0 dv=0
PairPos2: "'kern' Horizontal Kerning lookup 15-2" uni062A dx=-178 dy=0 dh=-178 dv=0 dx=0 dy=0 dh=0 dv=0
PairPos2: "'kern' Horizontal Kerning lookup 15-2" uni0629 dx=-178 dy=0 dh=-178 dv=0 dx=0 dy=0 dh=0 dv=0
PairPos2: "'kern' Horizontal Kerning lookup 15-2" uni0628 dx=-178 dy=0 dh=-178 dv=0 dx=0 dy=0 dh=0 dv=0
PairPos2: "'kern' Horizontal Kerning lookup 15-2" uni0627 dx=-143 dy=0 dh=-143 dv=0 dx=0 dy=0 dh=0 dv=0
PairPos2: "'kern' Horizontal Kerning lookup 15-2" uni0623 dx=-143 dy=0 dh=-143 dv=0 dx=0 dy=0 dh=0 dv=0
PairPos2: "'kern' Horizontal Kerning lookup 15-2" uni0622 dx=-143 dy=0 dh=-143 dv=0 dx=0 dy=0 dh=0 dv=0
PairPos2: "'kern' Horizontal Kerning lookup 15-2" uni0621 dx=-178 dy=0 dh=-178 dv=0 dx=0 dy=0 dh=0 dv=0
PairPos2: "'kern' Horizontal Kerning lookup 15-2" uniFB94 dx=-226 dy=0 dh=-226 dv=0 dx=0 dy=0 dh=0 dv=0
PairPos2: "'kern' Horizontal Kerning lookup 15-2" uniFB92 dx=-226 dy=0 dh=-226 dv=0 dx=0 dy=0 dh=0 dv=0
PairPos2: "'kern' Horizontal Kerning lookup 15-2" uni06AF dx=-226 dy=0 dh=-226 dv=0 dx=0 dy=0 dh=0 dv=0
PairPos2: "'kern' Horizontal Kerning lookup 15-2" afii57506 dx=-178 dy=0 dh=-178 dv=0 dx=0 dy=0 dh=0 dv=0
PairPos2: "'kern' Horizontal Kerning lookup 15-2" afii57440 dx=-178 dy=0 dh=-178 dv=0 dx=0 dy=0 dh=0 dv=0
PairPos2: "'kern' Horizontal Kerning lookup 15-2" uniFE8B dx=-178 dy=0 dh=-178 dv=0 dx=0 dy=0 dh=0 dv=0
Substitution2: "'fina' Terminal Forms in Arabic lookup 9 subtable" uniFEAE
EndChar

StartChar: uni0633
Encoding: 1587 1587 27
GlifName: uni0633
Width: 2458
VWidth: 2952
GlyphClass: 2
Flags: W
AnchorPoint: "Anchor-10" 1764.53 1377.1 basechar 0
AnchorPoint: "Anchor-7" 565.902 -800.086 basechar 0
LayerCount: 2
Fore
SplineSet
1090.44628906 512.08984375 m 5,0,-1
 1263.08789062 512.0859375 l 5,1,-1
 1286.26855469 378.080078125 l 2,2,3
 1320 184 1320 184 1503.50097656 183.9921875 c 16,4,5
 1679.68269614 183.999985955 1679.68269614 183.999985955 1693.81640625 412.627929688 c 2,6,-1
 1703.81640625 574.388671875 l 1,7,-1
 1838.62695312 574.388671875 l 1,8,-1
 1848.62695312 412.563476562 l 2,9,10
 1863 185 1863 185 2036.93359375 184.45703125 c 0,11,12
 2167.41699219 183.99853476 2167.41699219 183.99853476 2167.41699219 409.317382812 c 2,13,-1
 2167.41699219 717.228515625 l 1,14,-1
 2339.36621094 717.228515625 l 1,15,-1
 2339.36621094 410.418945312 l 2,16,17
 2339 1 2339 1 2040.16210938 0.912109375 c 0,18,19
 1845 1 1845 1 1786.15527344 140.961914062 c 1,20,21
 1685 -0 1685 -0 1501.80664062 -0.0810546875 c 0,22,23
 1368 0 1368 0 1299.91992188 56.0498046875 c 1,24,25
 1257 -472 1257 -472 687.330078125 -471.724609375 c 0,26,27
 101 -472 101 -472 101.752929688 101.043945312 c 0,28,29
 102 262 102 262 163.028320312 440.125 c 5,30,-1
 330.548828125 439.787109375 l 5,31,32
 277 252 277 252 277.268554688 102.860351562 c 0,33,34
 277 -293 277 -293 694.400390625 -293.203125 c 0,35,36
 959 -293 959 -293 1063 -132.341796875 c 0,37,38
 1136 -20 1136 -20 1135.60546875 167.950195312 c 0,39,40
 1136 316 1136 316 1090.44628906 512.08984375 c 5,0,-1
EndSplineSet
Substitution2: "'fina' Terminal Forms in Arabic lookup 9 subtable" uniFEB2
Substitution2: "'medi' Medial Forms in Arabic lookup 11 subtable" uniFEB4
Substitution2: "'init' Initial Forms in Arabic lookup 13 subtable" uniFEB3
EndChar

StartChar: uni0635
Encoding: 1589 1589 29
GlifName: uni0635
Width: 2585
VWidth: 2952
GlyphClass: 2
Flags: W
AnchorPoint: "Anchor-7" 595.902 -800.086 basechar 0
AnchorPoint: "Anchor-10" 2064.53 1372.1 basechar 0
LayerCount: 2
Fore
SplineSet
1090.44628906 512.08984375 m 1,0,-1
 1263.08789062 512.08984375 l 1,1,-1
 1289.26855469 358.080078125 l 6,2,3
 1316 202 1316 202 1363.78710938 213.107421875 c 1,4,5
 1720 811 1720 811 2091.34765625 810.42578125 c 0,6,7
 2300 810 2300 810 2410.26367188 652.060546875 c 0,8,9
 2474 561 2474 561 2474.56445312 441.813476562 c 0,10,11
 2475 367 2475 367 2454 302.029296875 c 0,12,13
 2357 0 2357 0 1703.15136719 0 c 2,14,-1
 1652.34082031 0 l 2,15,16
 1413 0 1413 0 1299.91992188 56.0498046875 c 1,17,18
 1257 -472 1257 -472 687.330078125 -471.724609375 c 0,19,20
 100 -472 100 -472 101.752929688 101.043945312 c 0,21,22
 102 262 102 262 163.028320312 440.120117188 c 1,23,-1
 330.548828125 440.120117188 l 1,24,25
 277 252 277 252 277.268554688 102.860351562 c 0,26,27
 278 -293 278 -293 694.400390625 -293.203125 c 0,28,29
 959 -293 959 -293 1063 -132.341796875 c 0,30,31
 1136 -20 1136 -20 1135.60546875 167.950195312 c 0,32,33
 1136 316 1136 316 1090.44628906 512.08984375 c 1,0,-1
1554.65625 184.416992188 m 1,34,-1
 1708.75292969 184.416992188 l 2,35,36
 2295 184 2295 184 2292.66894531 431.143554688 c 0,37,38
 2292 496 2292 496 2257.95605469 541 c 0,39,40
 2199 618 2199 618 2092.11816406 618.573242188 c 0,41,42
 1832 618 1832 618 1554.65625 184.416992188 c 1,34,-1
EndSplineSet
Substitution2: "'fina' Terminal Forms in Arabic lookup 9 subtable" uniFEBA
Substitution2: "'medi' Medial Forms in Arabic lookup 11 subtable" uniFEBC
Substitution2: "'init' Initial Forms in Arabic lookup 13 subtable" uniFEBB
EndChar

StartChar: uni0637
Encoding: 1591 1591 31
GlifName: uni0637
Width: 1534
VWidth: 2952
GlyphClass: 2
Flags: W
AnchorPoint: "Anchor-10" 475.36 1582.58 basechar 0
AnchorPoint: "Anchor-7" 641.602 -236.453 basechar 0
LayerCount: 2
Fore
SplineSet
1047.84667969 810.423828125 m 0,0,1
 1260 810 1260 810 1369.52441406 651.025390625 c 0,2,3
 1430 563 1430 563 1429.67382812 447.791992188 c 0,4,5
 1430 0 1430 0 658.228515625 0 c 2,6,-1
 101.302734375 0 l 1,7,-1
 101.302734375 184.221679688 l 1,8,-1
 321.826171875 184.376953125 l 1,9,-1
 323.553710938 184.377929688 l 1,10,-1
 324.419921875 185.873046875 l 2,11,12
 364.701280314 243.297406244 364.701280314 243.297406244 399.209960938 301.157226562 c 2,13,-1
 399.6328125 301.866210938 l 1,14,-1
 399.6328125 302.692382812 l 1,15,-1
 399.6328125 1418.87402344 l 5,16,-1
 568.946289062 1418.87402344 l 5,17,-1
 568.946289062 528.209960938 l 1,18,19
 795 810 795 810 1047.84667969 810.423828125 c 0,0,1
663.833007812 184.534179688 m 2,20,21
 1246.9985927 184.534179688 1246.9985927 184.534179688 1247.73828125 429.374023438 c 0,22,23
 1248 514 1248 514 1188.93261719 567.390625 c 0,24,25
 1133 619 1133 619 1047.39648438 618.573242188 c 0,26,27
 786 619 786 619 509.755859375 184.534179688 c 1,28,-1
 663.833007812 184.534179688 l 2,20,21
EndSplineSet
Substitution2: "'fina' Terminal Forms in Arabic lookup 9 subtable" uniFEC2
Substitution2: "'medi' Medial Forms in Arabic lookup 11 subtable" uniFEC4
Substitution2: "'init' Initial Forms in Arabic lookup 13 subtable" uniFEC3
EndChar

StartChar: uni0639
Encoding: 1593 1593 33
GlifName: uni0639
Width: 1286
VWidth: 2952
GlyphClass: 2
Flags: W
AnchorPoint: "Anchor-10" 733.478 1366.07 basechar 0
AnchorPoint: "Anchor-7" 526.833 -922.619 basechar 0
LayerCount: 2
Fore
SplineSet
104.987304688 -124.852539062 m 0,0,1
 105 252 105 252 485.794921875 408.014648438 c 1,2,3
 359 554 359 554 358.823242188 695.848632812 c 0,4,5
 359 840 359 840 465.677734375 951.545898438 c 0,6,7
 573 1065 573 1065 755.979492188 1064.77832031 c 0,8,9
 924 1065 924 1065 1074.66113281 941.680664062 c 1,10,-1
 1008.3125 792.307617188 l 1,11,12
 868 882 868 882 766.922851562 881.581054688 c 0,13,14
 639 882 639 882 578.860351562 783.385742188 c 0,15,16
 549 735 549 735 549.186523438 682.944335938 c 0,17,18
 549 638 549 638 572.522460938 590.020507812 c 0,19,20
 595 545 595 545 658 464 c 1,21,22
 827.280953006 493.698412808 827.280953006 493.698412808 969.204101562 494.546875 c 0,23,24
 1044.99878906 495 1044.99878906 495 1133.74 484.849609375 c 1,25,-1
 1133.74 309.689453125 l 1,26,27
 1073.35132812 312 1073.35132812 312 1015.02636719 312.172851562 c 0,28,29
 274.998601509 314.365994141 274.998601509 314.365994141 275.249023438 -109.302734375 c 0,30,31
 275 -468 275 -468 806.383789062 -467.783203125 c 0,32,33
 998 -468 998 -468 1178.31152344 -382.284179688 c 1,34,-1
 1178 -570 l 1,35,36
 1026 -643 1026 -643 791.528320312 -643.249023438 c 0,37,38
 395 -643 395 -643 224 -459.306640625 c 0,39,40
 105 -331 105 -331 104.987304688 -124.852539062 c 0,0,1
EndSplineSet
Substitution2: "'fina' Terminal Forms in Arabic lookup 9 subtable" uniFECA
Substitution2: "'medi' Medial Forms in Arabic lookup 11 subtable" uniFECC
Substitution2: "'init' Initial Forms in Arabic lookup 13 subtable" uniFECB
EndChar

StartChar: afii57440
Encoding: 1600 1600 35
GlifName: afii57440
Width: 286
VWidth: 2952
GlyphClass: 2
Flags: W
AnchorPoint: "Anchor-10" 143.774 1376.11 basechar 0
AnchorPoint: "Anchor-7" 147.7 -234.739 basechar 0
LayerCount: 2
Fore
SplineSet
-6.9384765625 0 m 2,0,1
 -84.7783203125 0 -84.7783203125 0 -84.7783203125 88.3134765625 c 2,2,-1
 -84.7783203125 107.192382812 l 2,3,4
 -84.9999971815 183.999023438 -84.9999971815 183.999023438 -6.9384765625 183.999023438 c 6,5,-1
 294.64453125 183.999023438 l 2,6,7
 314.771484375 183.999989037 314.771484375 183.999989037 314.771484375 107.174804688 c 2,8,-1
 314.771484375 88.3251953125 l 2,9,10
 315 0 315 0 294.69140625 0 c 2,11,-1
 -6.9384765625 0 l 2,0,1
EndSplineSet
EndChar

StartChar: uni0643
Encoding: 1603 1603 38
GlifName: uni0643
Width: 1981
VWidth: 2952
GlyphClass: 2
Flags: W
AnchorPoint: "Anchor-7" 750.268 -236.468 basechar 0
AnchorPoint: "Anchor-10" 943.11 1576.05 basechar 0
LayerCount: 2
Fore
SplineSet
871.8671875 184.13671875 m 0,0,1
 1042 184 1042 184 1159.71875 194.809570312 c 0,2,3
 1653 241 1653 241 1646.82910156 551.963867188 c 1,4,-1
 1646.82910156 1414.56640625 l 5,5,-1
 1819.70996094 1414.56640625 l 5,6,-1
 1819.70996094 554.338867188 l 2,7,8
 1819.9978558 307.83591531 1819.9978558 307.83591531 1652.49707031 168.098632812 c 0,9,10
 1451 0 1451 0 892.133789062 0 c 0,11,-1
 890.911132812 0 l 2,12,13
 105 0 105 0 104.16015625 485.872070312 c 0,14,15
 104 616 104 616 132 709 c 1,16,-1
 312 709 l 1,17,18
 283 607 283 607 283.424804688 504.521484375 c 0,19,20
 285 184 285 184 871.8671875 184.13671875 c 0,0,1
726.16015625 742.014648438 m 5,21,22
 820 732 820 732 888.541992188 731.266601562 c 4,23,24
 995 731 995 731 1048.5078125 752.905273438 c 132,-1,25
 1102 775 1102 775 1102.74707031 821.642578125 c 4,26,27
 1103 865 1103 865 1072.24511719 890.521484375 c 4,28,29
 1042 917 1042 917 981.092773438 925.450195312 c 4,30,31
 767 958 767 958 770.930664062 1138.4921875 c 4,32,33
 776 1345 776 1345 1163.61035156 1373.55273438 c 5,34,-1
 1163.61035156 1244.98925781 l 5,35,36
 904 1221 904 1221 904.139648438 1130.4453125 c 4,37,38
 904 1056 904 1056 1042.91601562 1034.75683594 c 4,39,40
 1236 1005 1236 1005 1235.36425781 826.126953125 c 4,41,42
 1235 705 1235 705 1116.39941406 640.239257812 c 4,43,44
 1041 599 1041 599 906 599.088867188 c 4,45,46
 826 599 826 599 726.16015625 614.366210938 c 5,47,-1
 726.16015625 742.014648438 l 5,21,22
EndSplineSet
Substitution2: "'fina' Terminal Forms in Arabic lookup 9 subtable" uniFEDA
Substitution2: "'medi' Medial Forms in Arabic lookup 11 subtable" uniFEDC
Substitution2: "'init' Initial Forms in Arabic lookup 13 subtable" uniFEDB
EndChar

StartChar: uni0644
Encoding: 1604 1604 39
GlifName: uni0644
Width: 1381
VWidth: 2952
GlyphClass: 2
Flags: W
AnchorPoint: "Anchor-7" 565.902 -800.086 basechar 0
AnchorPoint: "Anchor-10" 563.908 1191.66 basechar 0
LayerCount: 2
Fore
SplineSet
687.330078125 -471.724609375 m 0,0,1
 101 -472 101 -472 101.752929688 101.043945312 c 0,2,3
 102 262 102 262 163.028320312 440.125 c 1,4,-1
 330.548828125 439.787109375 l 1,5,6
 277 252 277 252 277.268554688 102.860351562 c 0,7,8
 277 -293 277 -293 687.685546875 -293.216796875 c 0,9,10
 1053.6174087 -293.00022643 1053.6174087 -293.00022643 1054.60449219 99.8037109375 c 6,11,-1
 1057.91699219 1417.99316406 l 5,12,-1
 1227.88574219 1417.99316406 l 5,13,-1
 1227.18554688 299.321289062 l 6,14,15
 1227 159 1227 159 1217.859375 28.4931640625 c 4,16,17
 1180 -472 1180 -472 687.330078125 -471.724609375 c 0,0,1
EndSplineSet
Substitution2: "'fina' Terminal Forms in Arabic lookup 9 subtable" uniFEDE
Substitution2: "'medi' Medial Forms in Arabic lookup 11 subtable" uniFEE0
Substitution2: "'init' Initial Forms in Arabic lookup 13 subtable" uniFEDF
EndChar

StartChar: uni0645
Encoding: 1605 1605 40
GlifName: uni0645
Width: 1242
VWidth: 2622
GlyphClass: 2
Flags: W
AnchorPoint: "Anchor-7" 724.983 -306.909 basechar 0
AnchorPoint: "Anchor-10" 697.239 1374.48 basechar 0
LayerCount: 2
Fore
SplineSet
800.723632812 150.75 m 0,0,1
 901 151 901 151 940 221.044921875 c 0,2,3
 957.219726562 251.58984375 957.219726562 251.58984375 957.864257812 289 c 0,4,5
 958.690429688 336.932617188 958.690429688 336.932617188 939.724609375 383 c 0,6,7
 907.21875 461.958007812 907.21875 461.958007812 851 495.620117188 c 0,8,9
 811.836914062 519.069335938 811.836914062 519.069335938 760.614257812 519.158203125 c 0,10,11
 597.599609375 518.90625 597.599609375 518.90625 569.541015625 302.028320312 c 1,12,13
 671 151 671 151 800.723632812 150.75 c 0,0,1
507 110 m 0,14,15
 477 138 477 138 428.370117188 137.747070312 c 0,16,17
 279 136 279 136 279.751953125 -328 c 4,18,19
 280 -524 280 -524 293.813476562 -684.813476562 c 5,20,-1
 110.231445312 -684.813476562 l 5,21,22
 98 -495 98 -495 99.0615234375 -324 c 4,23,24
 102 9 102 9 178 159 c 0,25,26
 258 316 258 316 397.721679688 340 c 1,27,28
 431 489 431 489 495 572.666992188 c 0,29,30
 595 703 595 703 757.327148438 703.532226562 c 0,31,32
 926 704 926 704 1032.42578125 570.094726562 c 0,33,34
 1125 454 1125 454 1124.47460938 291.60546875 c 0,35,36
 1124 148 1124 148 1052.41796875 64.3955078125 c 0,37,38
 975 -27 975 -27 815.204101562 -27.2431640625 c 0,39,40
 657 -27 657 -27 553 67.9232483932 c 0,41,42
 530 89 530 89 507 110 c 0,14,15
EndSplineSet
Substitution2: "'init' Initial Forms in Arabic lookup 13 subtable" uniFEE3
Substitution2: "'medi' Medial Forms in Arabic lookup 11 subtable" uniFEE4
Substitution2: "'fina' Terminal Forms in Arabic lookup 9 subtable" uniFEE2
EndChar

StartChar: uni0647
Encoding: 1607 1607 42
GlifName: uni0647
Width: 942
VWidth: 2952
GlyphClass: 2
Flags: W
AnchorPoint: "Anchor-10" 430.775 1379.01 basechar 0
AnchorPoint: "Anchor-7" 450.63 -240.576 basechar 0
LayerCount: 2
Fore
SplineSet
461.8671875 644.166992188 m 1,0,1
 272 478 272 478 271.884553421 350.989329604 c 0,2,3
 272 185 272 185 475.345703125 184.9921875 c 4,4,5
 681 185 681 185 680.423918412 352.147601374 c 0,6,7
 680 470 680 470 461.8671875 644.166992188 c 1,0,1
375 973 m 1,8,9
 851 626 851 626 850.791827689 346.377299235 c 0,10,11
 851 157 851 157 686.272460938 54.5078125 c 0,12,13
 607 5 607 5 476.05078125 4.1943359375 c 0,14,15
 355 4 355 4 269.450195312 46.7998046875 c 0,16,17
 101 131 101 131 101.368342912 345.788734753 c 0,18,19
 101 552 101 552 335.907226562 780.524414062 c 1,20,-1
 305 803 l 25,21,-1
 375 973 l 1,8,9
EndSplineSet
Substitution2: "'fina' Terminal Forms in Arabic lookup 9 subtable" uniFEEA
Substitution2: "'medi' Medial Forms in Arabic lookup 11 subtable" uniFEEC
Substitution2: "'init' Initial Forms in Arabic lookup 13 subtable" uniFEEB
EndChar

StartChar: uni0648
Encoding: 1608 1608 43
GlifName: uni0648
Width: 870
VWidth: 2144
GlyphClass: 2
Flags: W
AnchorPoint: "Anchor-7" 364.969 -769.998 basechar 0
AnchorPoint: "Anchor-10" 459.256 1370.2 basechar 0
LayerCount: 2
Fore
SplineSet
754.60546875 304 m 0,0,1
 767 221 767 221 766.593468761 127 c 0,2,3
 764 -465 764 -465 67 -472.319335938 c 1,4,-1
 66.869140625 -299.87890625 l 1,5,6
 501 -299 501 -299 588.099609375 0 c 1,7,-1
 518.180664062 0.8115234375 l 0,8,9
 78 1 78 1 78.0048828125 344.353515625 c 0,10,11
 78 499 78 499 165 608.883789062 c 0,12,13
 253 719 253 719 409.10546875 719.077148438 c 0,14,15
 693 719 693 719 754.60546875 304 c 0,0,1
590.629882812 184.602539062 m 5,16,17
 568 535 568 535 397.405273438 535.124023438 c 0,18,19
 325 535 325 535 284 480.53515625 c 0,20,21
 245 427 245 427 245.159179688 356.5625 c 0,22,23
 245 190 245 190 508.954101562 185.36328125 c 4,24,-1
 590.629882812 184.602539062 l 5,16,17
EndSplineSet
Substitution2: "'fina' Terminal Forms in Arabic lookup 9 subtable" uniFEEE
EndChar

StartChar: uni0649
Encoding: 1609 1609 44
GlifName: uni0649
Width: 1423
VWidth: 2952
GlyphClass: 2
Flags: W
AnchorPoint: "Anchor-10" 676.6 1368.22 basechar 0
AnchorPoint: "Anchor-7" 554.902 -750.086 basechar 0
LayerCount: 2
Fore
SplineSet
722.400390625 -223.203125 m 0,0,1
 1065 -222 1065 -222 1147.04492188 -22 c 0,2,3
 1195.05350287 95.1305354066 1195.05350287 95.1305354066 1072.56640625 97.0146484375 c 2,4,-1
 1012 97.9462890625 l 2,5,6
 773 102 773 102 770 318 c 0,7,8
 767 563 767 563 957 689.041992188 c 0,9,10
 1096 781 1096 781 1317.37597656 785.549804688 c 1,11,-1
 1317.07421875 592.741210938 l 1,12,13
 1183 591 1183 591 1105 554.27734375 c 0,14,15
 943 478 943 478 945.303710938 332 c 0,16,17
 945.998673903 284.091416978 945.998673903 284.091416978 1006 284.037109375 c 2,18,-1
 1047 284 l 2,19,20
 1332 284 1332 284 1334.29785156 74 c 0,21,22
 1335 22 1335 22 1317.890625 -43 c 0,23,24
 1223 -400 1223 -400 715.330078125 -401.724609375 c 0,25,26
 109 -403 109 -403 109.752929688 171.043945312 c 0,27,28
 110 372 110 372 171.028320312 550.125 c 1,29,-1
 338.548828125 549.787109375 l 5,30,31
 285 362 285 362 285.268554688 172.860351562 c 4,32,33
 285 -224 285 -224 722.400390625 -223.203125 c 0,0,1
EndSplineSet
Substitution2: "'fina' Terminal Forms in Arabic lookup 9 subtable" uniFEF0
Substitution2: "'medi' Medial Forms in Arabic lookup 11 subtable" uniFBE9
Substitution2: "'init' Initial Forms in Arabic lookup 13 subtable" uniFBE8
EndChar

StartChar: uni064B
Encoding: 1611 1611 46
GlifName: uni064B_
Width: -26
VWidth: 2316
GlyphClass: 4
Flags: W
AnchorPoint: "Anchor-10" 593.551 1113.65 mark 0
AnchorPoint: "Anchor-9" 593.551 1113.65 mark 0
AnchorPoint: "Anchor-1" 553.285 1666.25 basemark 0
AnchorPoint: "Anchor-1" 593.551 1113.65 mark 0
LayerCount: 2
Fore
SplineSet
326.700195312 1076.40039062 m 1,0,-1
 326.700195312 1179.97753906 l 1,1,-1
 782.099609375 1366.27832031 l 1,2,-1
 782.099609375 1262.70019531 l 1,3,-1
 326.700195312 1076.40039062 l 1,0,-1
326.700195312 1328.40039062 m 1,4,-1
 326.700195312 1431.97753906 l 1,5,-1
 782.099609375 1618.27832031 l 1,6,-1
 782.099609375 1514.70019531 l 1,7,-1
 326.700195312 1328.40039062 l 1,4,-1
EndSplineSet
EndChar

StartChar: uni064C
Encoding: 1612 1612 47
GlifName: uni064C_
Width: -26
VWidth: 2316
GlyphClass: 4
Flags: W
AnchorPoint: "Anchor-10" 680.906 1218.67 mark 0
AnchorPoint: "Anchor-9" 680.906 1218.67 mark 0
AnchorPoint: "Anchor-1" 571.739 1915.46 basemark 0
AnchorPoint: "Anchor-1" 680.906 1218.67 mark 0
LayerCount: 2
Fore
SplineSet
587.700195312 1717.20019531 m 0,0,1
 568 1694 568 1694 567.713867188 1664.09277344 c 0,2,3
 567.992998269 1607.42154258 567.992998269 1607.42154258 633.58203125 1579.84570312 c 0,4,5
 657 1570 657 1570 707.779296875 1554.83300781 c 1,6,7
 735 1601 735 1601 735.001953125 1648.8203125 c 0,8,9
 735 1747 735 1747 654.299804688 1746.29394531 c 4,10,11
 612 1746 612 1746 587.700195312 1717.20019531 c 0,0,1
318.795898438 1514.47949219 m 1,12,13
 323 1288 323 1288 452.537109375 1289.27539062 c 0,14,15
 524 1290 524 1290 600.506835938 1364.1015625 c 0,16,17
 645 1408 645 1408 684.62890625 1486.18359375 c 1,18,-1
 655.040039062 1492.46289062 l 2,19,20
 555 1514 555 1514 518.3046875 1562.05078125 c 0,21,22
 486 1605 486 1605 486 1655.09960938 c 0,23,24
 486 1706 486 1706 503.069335938 1739.70019531 c 0,25,26
 547 1825 547 1825 650.174804688 1825.4140625 c 4,27,28
 722 1826 722 1826 765.19140625 1784.28027344 c 0,29,30
 813 1738 813 1738 813.390625 1650.37890625 c 0,31,32
 814 1610 814 1610 791.735351562 1541.11914062 c 1,33,-1
 821.8671875 1539.53710938 l 2,34,35
 851 1538 851 1538 880.497070312 1537.51953125 c 1,36,-1
 880.497070312 1459.00878906 l 1,37,38
 840.4852365 1459.9881233 840.4852365 1459.9881233 829.890625 1461.00683594 c 2,39,-1
 753.71875 1468.33105469 l 1,40,41
 708 1357 708 1357 620.0390625 1281.13378906 c 0,42,43
 540 1211 540 1211 453.6796875 1210.96386719 c 0,44,45
 268 1210 268 1210 263.147460938 1514.47949219 c 1,46,-1
 318.795898438 1514.47949219 l 1,12,13
EndSplineSet
EndChar

StartChar: uni064D
Encoding: 1613 1613 48
GlifName: uni064D_
Width: -26
VWidth: 2316
GlyphClass: 4
Flags: W
AnchorPoint: "Anchor-7" 546.278 61.7109 mark 0
AnchorPoint: "Anchor-6" 546.278 61.7109 mark 0
AnchorPoint: "Anchor-0" 592.022 -447.025 basemark 0
AnchorPoint: "Anchor-0" 546.278 61.7109 mark 0
LayerCount: 2
Fore
SplineSet
332.099609375 -486 m 1,0,-1
 332.099609375 -382.422851562 l 1,1,-1
 787.5 -196.122070312 l 1,2,-1
 787.5 -299.700195312 l 1,3,-1
 332.099609375 -486 l 1,0,-1
332.099609375 -234 m 1,4,-1
 332.099609375 -130.422851562 l 1,5,-1
 787.5 55.8779296875 l 1,6,-1
 787.5 -47.7001953125 l 1,7,-1
 332.099609375 -234 l 1,4,-1
EndSplineSet
EndChar

StartChar: uni064E
Encoding: 1614 1614 49
GlifName: uni064E_
Width: -26
VWidth: 2316
GlyphClass: 4
Flags: W
AnchorPoint: "Anchor-10" 581.66 1364.63 mark 0
AnchorPoint: "Anchor-9" 581.66 1364.63 mark 0
AnchorPoint: "Anchor-1" 541.396 1691.77 basemark 0
AnchorPoint: "Anchor-1" 581.66 1364.63 mark 0
LayerCount: 2
Fore
SplineSet
296.099609375 1349.09960938 m 5,0,-1
 296.099609375 1452.67773438 l 5,1,-1
 751.5 1638.97851562 l 5,2,-1
 751.5 1535.40039062 l 5,3,-1
 296.099609375 1349.09960938 l 5,0,-1
EndSplineSet
EndChar

StartChar: uni064F
Encoding: 1615 1615 50
GlifName: uni064F_
Width: -26
VWidth: 2316
GlyphClass: 4
Flags: W
AnchorPoint: "Anchor-10" 611.295 1299.37 mark 0
AnchorPoint: "Anchor-9" 611.295 1299.37 mark 0
AnchorPoint: "Anchor-1" 580.134 1920.4 basemark 0
AnchorPoint: "Anchor-1" 611.295 1299.37 mark 0
LayerCount: 2
Fore
SplineSet
822.65234375 1474.00195312 m 1,0,1
 762.442709859 1474.00001426 762.442709859 1474.00001426 724 1479 c 2,2,3
 692.682617188 1483.07324219 l 1,4,5
 559.162650294 1295.10025939 559.162650294 1295.10025939 318.57421875 1282.671875 c 5,6,-1
 318.57421875 1360.92578125 l 1,7,8
 508 1369 508 1369 605.90625 1507.50097656 c 1,9,10
 563 1516 563 1516 516.532226562 1541.44140625 c 0,11,12
 430 1590 430 1590 430.25 1675.55273438 c 0,13,14
 431 1740 431 1740 466.200195312 1782.81054688 c 0,15,16
 512 1838 512 1838 592.970703125 1837.95996094 c 0,17,18
 654 1838 654 1838 698.7109375 1802 c 0,19,20
 731 1776 731 1776 745.739257812 1737.19824219 c 0,21,22
 756 1709 756 1709 755.545898438 1675.40039062 c 0,23,24
 755.001400201 1617.14979395 755.001400201 1617.14979395 729.807617188 1556.24804688 c 1,25,-1
 749.616210938 1554.48535156 l 2,26,27
 789 1551 789 1551 822.65234375 1552.28222656 c 1,28,-1
 822.65234375 1474.00195312 l 1,0,1
649.93359375 1569.78027344 m 1,29,-1
 656.099609375 1584 l 2,30,31
 677 1632 677 1632 677.158203125 1673.71679688 c 0,32,33
 677 1715 677 1715 652.086914062 1735.38183594 c 0,34,35
 627 1757 627 1757 596.94140625 1757.47167969 c 0,36,37
 552 1758 552 1758 527.400390625 1725.90039062 c 0,38,39
 510.43897218 1702.94729395 510.43897218 1702.94729395 509.868164062 1672.02734375 c 0,40,41
 510 1625 510 1625 575.73828125 1594.79003906 c 0,42,43
 599 1584 599 1584 649.93359375 1569.78027344 c 1,29,-1
EndSplineSet
EndChar

StartChar: uni0650
Encoding: 1616 1616 51
GlifName: uni0650
Width: -26
VWidth: 2316
GlyphClass: 4
Flags: W
AnchorPoint: "Anchor-7" 571.144 -21.8242 mark 0
AnchorPoint: "Anchor-6" 571.144 -21.8242 mark 0
AnchorPoint: "Anchor-0" 619.091 -334.624 basemark 0
AnchorPoint: "Anchor-0" 571.144 -21.8242 mark 0
LayerCount: 2
Fore
SplineSet
342.900390625 -345.599609375 m 1,0,-1
 342.900390625 -242.022460938 l 1,1,-1
 798.299804688 -55.7216796875 l 1,2,-1
 798.299804688 -159.299804688 l 1,3,-1
 342.900390625 -345.599609375 l 1,0,-1
EndSplineSet
EndChar

StartChar: uni0651
Encoding: 1617 1617 52
GlifName: uni0651
Width: -26
VWidth: 2393
GlyphClass: 4
Flags: W
AnchorPoint: "Anchor-10" 598.801 1463.71 mark 0
AnchorPoint: "Anchor-9" 598.801 1463.71 mark 0
AnchorPoint: "Anchor-1" 570.087 1849.1 basemark 0
AnchorPoint: "Anchor-1" 598.801 1463.71 mark 0
LayerCount: 2
Fore
SplineSet
608.421875 1768.46289062 m 1,0,1
 610.200195312 1727.09960938 610.200195312 1727.09960938 610.623046875 1685.90234375 c 0,2,3
 610.200195312 1593.90039062 610.200195312 1593.90039062 676.689453125 1594.25195312 c 0,4,5
 747 1594.79980469 747 1594.79980469 747.626953125 1695.16894531 c 0,6,7
 747.900390625 1733.40039062 747.900390625 1733.40039062 731.092773438 1812.90917969 c 1,8,-1
 819.168945312 1826.859375 l 1,9,10
 837 1764.90039062 837 1764.90039062 836.52734375 1705.04003906 c 0,11,12
 837 1503 837 1503 690.397460938 1501.66601562 c 4,13,14
 626.400390625 1501.20019531 626.400390625 1501.20019531 583.87890625 1555.26660156 c 1,15,16
 553.5 1438.20019531 553.5 1438.20019531 431.985351562 1437.88964844 c 0,17,18
 297 1438.20019531 297 1438.20019531 294.302734375 1606.5 c 0,19,20
 293.400390625 1665.90039062 293.400390625 1665.90039062 307.078125 1715.74121094 c 1,21,-1
 385.392578125 1702.72070312 l 1,22,23
 375.299804688 1656 375.299804688 1656 375.577148438 1619.63378906 c 0,24,25
 376.200195312 1536.29980469 376.200195312 1536.29980469 443.658203125 1535.90234375 c 0,26,27
 525.599609375 1535.40039062 525.599609375 1535.40039062 529.950195312 1649.21582031 c 0,28,29
 531.900390625 1700.09960938 531.900390625 1700.09960938 531.095703125 1768.46289062 c 1,30,-1
 608.421875 1768.46289062 l 1,0,1
EndSplineSet
EndChar

StartChar: uni0652
Encoding: 1618 1618 53
GlifName: uni0652
Width: -26
VWidth: 2316
GlyphClass: 4
Flags: W
AnchorPoint: "Anchor-10" 603.219 1222.43 mark 0
AnchorPoint: "Anchor-9" 603.219 1222.43 mark 0
AnchorPoint: "Anchor-1" 577.537 1799.66 basemark 0
AnchorPoint: "Anchor-1" 603.219 1222.43 mark 0
LayerCount: 2
Fore
SplineSet
398.139648438 1461.671875 m 128,-1,1
 398.139648438 1543.57226562 398.139648438 1543.57226562 454.838867188 1600.27246094 c 128,-1,2
 511.5390625 1656.97167969 511.5390625 1656.97167969 593.439453125 1656.97167969 c 128,-1,3
 675.338867188 1656.97167969 675.338867188 1656.97167969 732.0390625 1600.27246094 c 128,-1,4
 788.739257812 1543.57226562 788.739257812 1543.57226562 788.739257812 1461.671875 c 128,-1,5
 788.739257812 1379.77246094 788.739257812 1379.77246094 732.0390625 1323.07226562 c 128,-1,6
 675.338867188 1266.37207031 675.338867188 1266.37207031 593.439453125 1266.37207031 c 128,-1,7
 511.5390625 1266.37207031 511.5390625 1266.37207031 454.838867188 1323.07226562 c 128,-1,0
 398.139648438 1379.77246094 398.139648438 1379.77246094 398.139648438 1461.671875 c 128,-1,1
484.5390625 1460.77246094 m 0,8,9
 484.200195312 1413.90039062 484.200195312 1413.90039062 516.939453125 1381.57226562 c 0,10,11
 549 1349.09960938 549 1349.09960938 596.139648438 1349.171875 c 0,12,13
 642.599609375 1349.09960938 642.599609375 1349.09960938 675.338867188 1381.57226562 c 0,14,15
 707.400390625 1413.90039062 707.400390625 1413.90039062 707.739257812 1460.77246094 c 0,16,17
 707.400390625 1507.5 707.400390625 1507.5 675.338867188 1539.97167969 c 0,18,19
 642.599609375 1572.29980469 642.599609375 1572.29980469 596.139648438 1572.37207031 c 0,20,21
 549 1572.29980469 549 1572.29980469 516.939453125 1539.97167969 c 0,22,23
 484.200195312 1507.5 484.200195312 1507.5 484.5390625 1460.77246094 c 0,8,9
EndSplineSet
EndChar

StartChar: uni0653
Encoding: 1619 1619 54
GlifName: uni0653
Width: -30
VWidth: 2673
GlyphClass: 4
Flags: W
AnchorPoint: "Anchor-10" 461.017 1539.11 mark 0
AnchorPoint: "Anchor-9" 461.017 1539.11 mark 0
AnchorPoint: "Anchor-1" 461.017 1975.25 basemark 0
AnchorPoint: "Anchor-1" 461.017 1539.11 mark 0
LayerCount: 2
Fore
SplineSet
400.348632812 1636.8046875 m 6,0,1
 289.097070302 1652.11547185 289.097070302 1652.11547185 197.061523438 1542.6328125 c 5,2,-1
 95.6953125 1649.29980469 l 5,3,4
 214.313143403 1819.44918336 214.313143403 1819.44918336 383.756835938 1792.15820312 c 6,5,-1
 532.506835938 1768.20019531 l 2,6,7
 630 1752 630 1752 752.004882812 1813.74121094 c 1,8,-1
 817.659179688 1677.28320312 l 1,9,10
 689.104504566 1597.06521075 689.104504566 1597.06521075 540.869140625 1617.46582031 c 2,11,-1
 400.348632812 1636.8046875 l 6,0,1
EndSplineSet
EndChar

StartChar: uni0657
Encoding: 1623 1623 57
GlifName: uni0657
Width: -26
VWidth: 2316
GlyphClass: 4
Flags: W
AnchorPoint: "Anchor-10" 573.285 1350.55 mark 0
AnchorPoint: "Anchor-9" 573.285 1350.55 mark 0
AnchorPoint: "Anchor-1" 573.285 2089.85 basemark 0
AnchorPoint: "Anchor-1" 573.285 1350.55 mark 0
LayerCount: 2
Fore
SplineSet
264.529296875 1804.66113281 m 1,0,1
 324 1803 324 1803 394.52734375 1795.6015625 c 1,2,-1
 395.744140625 1797.33398438 l 2,3,4
 545 2010 545 2010 784.673828125 2032.71289062 c 1,5,-1
 784.673828125 1954.59179688 l 1,6,7
 600 1925 600 1925 486.279296875 1778.19140625 c 1,8,9
 548 1760 548 1760 591.110351562 1728.47753906 c 0,10,11
 658 1678 658 1678 657.9765625 1598.87109375 c 0,12,13
 658 1529 658 1529 613.258789062 1482.93261719 c 0,14,15
 570 1438 570 1438 501.358398438 1438.01367188 c 0,16,17
 427 1438 427 1438 373.69921875 1490.15820312 c 0,18,19
 332 1532 332 1532 331.635742188 1603.27929688 c 0,20,21
 332 1647 332 1647 355.373046875 1722.42480469 c 1,22,23
 315 1726 315 1726 264.529296875 1726.37695312 c 1,24,-1
 264.529296875 1804.66113281 l 1,0,1
501.342773438 1516.40234375 m 0,25,26
 542 1517 542 1517 561.741210938 1544 c 0,27,28
 577 1566 577 1566 577.313476562 1596.63378906 c 0,29,30
 577 1656 577 1656 499 1689 c 0,31,32
 468 1702 468 1702 437.249023438 1708.89453125 c 1,33,34
 410 1645 410 1645 410.0234375 1604.96484375 c 0,35,36
 410 1584 410 1584 416.790039062 1568.4453125 c 0,37,38
 427 1545 427 1545 452 1530.51660156 c 128,-1,39
 477 1516 477 1516 501.342773438 1516.40234375 c 0,25,26
EndSplineSet
EndChar

StartChar: uni065A
Encoding: 1626 1626 58
GlifName: uni065A_
Width: 1135
VWidth: 2316
GlyphClass: 4
Flags: W
AnchorPoint: "Anchor-10" 573.285 1350.55 mark 0
AnchorPoint: "Anchor-9" 573.285 1350.55 mark 0
AnchorPoint: "Anchor-1" 571.012 1862.38 basemark 0
AnchorPoint: "Anchor-1" 573.285 1350.55 mark 0
LayerCount: 2
Fore
SplineSet
502.3671875 1444.42578125 m 1,0,-1
 308.524414062 1768.49023438 l 1,1,-1
 412.922851562 1768.49023438 l 1,2,-1
 573.28515625 1527.93945312 l 1,3,-1
 733.6484375 1768.49023438 l 1,4,-1
 838.047851562 1768.49023438 l 1,5,-1
 644.202148438 1444.42578125 l 1,6,-1
 502.3671875 1444.42578125 l 1,0,-1
EndSplineSet
EndChar

StartChar: afii57392
Encoding: 1632 1632 59
GlifName: afii57392
Width: 1077
VWidth: 2952
GlyphClass: 2
Flags: W
LayerCount: 2
Fore
SplineSet
399.290039062 563.262695312 m 132,-1,1
 399.290039062 503.686523438 399.290039062 503.686523438 440.400390625 462.579101562 c 4,2,3
 460.923828125 442.0546875 460.923828125 442.0546875 486.515625 431.638671875 c 132,-1,4
 512.106445312 421.22265625 512.106445312 421.22265625 542.592773438 420.966796875 c 4,5,6
 602.68359375 421.48046875 602.68359375 421.48046875 643.782226562 462.579101562 c 4,7,8
 664.297851562 483.094726562 664.297851562 483.094726562 674.594726562 508.3203125 c 132,-1,9
 684.890625 533.545898438 684.890625 533.545898438 684.890625 563.262695312 c 132,-1,10
 684.890625 592.98046875 684.890625 592.98046875 674.594726562 618.20703125 c 132,-1,11
 664.298828125 643.432617188 664.298828125 643.432617188 643.782226562 663.94921875 c 4,12,13
 602.68359375 705.046875 602.68359375 705.046875 541.587890625 705.560546875 c 4,14,15
 511.594726562 705.3046875 511.594726562 705.3046875 486.258789062 694.887695312 c 132,-1,16
 460.922851562 684.470703125 460.922851562 684.470703125 440.400390625 663.94921875 c 4,17,0
 399.290039062 622.83984375 399.290039062 622.83984375 399.290039062 563.262695312 c 132,-1,1
313.629882812 787.463867188 m 4,18,19
 336.936523438 810.76953125 336.936523438 810.76953125 362.502929688 828.217773438 c 132,-1,20
 388.0703125 845.666992188 388.0703125 845.666992188 415.919921875 857.284179688 c 4,21,22
 471.620117188 880.51953125 471.620117188 880.51953125 536.678710938 880.51953125 c 4,23,24
 580.053710938 880.51953125 580.053710938 880.51953125 619.258789062 870.193359375 c 132,-1,25
 658.46484375 859.8671875 658.46484375 859.8671875 693.568359375 839.192382812 c 132,-1,26
 728.672851562 818.518554688 728.672851562 818.518554688 759.727539062 787.463867188 c 4,27,28
 806.303710938 740.887695312 806.303710938 740.887695312 829.543945312 685.178710938 c 132,-1,29
 852.784179688 629.469726562 852.784179688 629.469726562 852.784179688 564.4140625 c 4,30,31
 852.784179688 434.420898438 852.784179688 434.420898438 759.727539062 341.364257812 c 4,32,33
 736.422851562 318.059570312 736.422851562 318.059570312 710.858398438 300.65234375 c 132,-1,34
 685.29296875 283.244140625 685.29296875 283.244140625 657.446289062 271.705078125 c 132,-1,35
 629.586914062 260.16015625 629.586914062 260.16015625 599.411132812 254.466796875 c 132,-1,36
 569.235351562 248.774414062 569.235351562 248.774414062 536.625 248.923828125 c 4,37,38
 471.583007812 248.625 471.583007812 248.625 415.895507812 271.70703125 c 4,39,40
 397.336914062 279.399414062 397.336914062 279.399414062 379.796875 289.6953125 c 132,-1,41
 362.256835938 299.991210938 362.256835938 299.991210938 345.711914062 312.909179688 c 132,-1,42
 329.166992188 325.827148438 329.166992188 325.827148438 313.629882812 341.364257812 c 4,43,44
 267.055664062 387.939453125 267.055664062 387.939453125 243.81640625 443.6484375 c 132,-1,45
 220.577148438 499.357421875 220.577148438 499.357421875 220.577148438 564.415039062 c 132,-1,46
 220.577148438 629.475585938 220.577148438 629.475585938 243.811523438 685.17578125 c 132,-1,47
 267.049804688 740.883789062 267.049804688 740.883789062 313.629882812 787.463867188 c 4,18,19
EndSplineSet
EndChar

StartChar: afii57393
Encoding: 1633 1633 60
GlifName: afii57393
Width: 756
VWidth: 2952
GlyphClass: 2
Flags: W
LayerCount: 2
Fore
SplineSet
314.71875 1386.01269531 m 5,0,1
 519.115234375 937.747277526 519.115234375 937.747277526 519.115234375 278.771484375 c 2,2,-1
 519.115234375 11.5537109375 l 1,3,-1
 334.796875 11.5537109375 l 1,4,-1
 334.791992188 281.91796875 l 2,5,6
 335 943 335 943 144.876953125 1327.90820312 c 1,7,-1
 314.71875 1386.01269531 l 5,0,1
EndSplineSet
EndChar

StartChar: afii57394
Encoding: 1634 1634 61
GlifName: afii57394
Width: 1237
VWidth: 2952
GlyphClass: 2
Flags: W
LayerCount: 2
Fore
SplineSet
416.250976562 1104.26855469 m 5,0,1
 477 932 477 932 685.032226562 931.76953125 c 4,2,3
 833 932 833 932 881.30078125 1026 c 4,4,5
 936 1132 936 1132 935.948242188 1374.54394531 c 5,6,-1
 1115.69335938 1373.99023438 l 5,7,8
 1115 1299 1115 1299 1110.75585938 1233.66308594 c 4,9,10
 1092 978 1092 978 1002.73242188 866.075195312 c 4,11,12
 905 744 905 744 689.243164062 744.568359375 c 4,13,14
 559 745 559 745 485.4296875 791.508789062 c 5,15,-1
 486.266601562 785.135742188 l 6,16,17
 519.115234375 534.119424279 519.115234375 534.119424279 519.115234375 278.771484375 c 6,18,-1
 519.115234375 11.5537109375 l 1,19,-1
 334.796875 11.5537109375 l 1,20,-1
 334.791992188 281.91796875 l 6,21,22
 335 943 335 943 144.876953125 1327.90820312 c 5,23,-1
 314.497070312 1385.9375 l 5,24,-1
 416.250976562 1104.26855469 l 5,0,1
EndSplineSet
EndChar

StartChar: afii57395
Encoding: 1635 1635 62
GlifName: afii57395
Width: 1492
VWidth: 2952
GlyphClass: 2
Flags: W
LayerCount: 2
Fore
SplineSet
486.0859375 786.447265625 m 6,0,1
 519.115234375 537.284511529 519.115234375 537.284511529 519.115234375 278.771484375 c 6,2,-1
 519.115234375 11.5537109375 l 1,3,-1
 334.796875 11.5537109375 l 1,4,-1
 334.791992188 281.916992188 l 6,5,6
 335 943 335 943 144.876953125 1327.90820312 c 5,7,-1
 314.466796875 1385.92675781 l 5,8,-1
 424.159179688 1071.63671875 l 6,9,10
 467 949 467 949 610.522460938 947.631835938 c 4,11,12
 769.845443604 947.000612339 769.845443604 947.000612339 764.365234375 1204.56054688 c 6,13,-1
 761.662109375 1331.60253906 l 1,14,-1
 920.317382812 1326.65332031 l 5,15,-1
 924.010742188 1182.3984375 l 6,16,17
 930 942 930 942 1080.54199219 940.891601562 c 4,18,19
 1149 940 1149 940 1177.61523438 1000.83007812 c 4,20,21
 1195.49559841 1039.21030404 1195.49559841 1039.21030404 1201.2890625 1097.03515625 c 4,22,23
 1209.33547985 1180.47903141 1209.33547985 1180.47903141 1209.51855469 1258.29785156 c 6,24,-1
 1209.83105469 1391.13085938 l 5,25,-1
 1386.63378906 1391.29394531 l 5,26,-1
 1386.0546875 1260.61523438 l 6,27,28
 1386 1194 1386 1194 1378.70898438 1113.52148438 c 4,29,30
 1350 756 1350 756 1086.67382812 757.768554688 c 4,31,32
 936.561714736 759.003606003 936.561714736 759.003606003 839.801757812 871.188476562 c 6,33,-1
 837.467773438 873.89453125 l 5,34,-1
 835.20703125 871.125976562 l 6,35,36
 742 757 742 757 623.100585938 756.943359375 c 4,37,38
 599 757 599 757 578.809570312 759.684570312 c 4,39,40
 558 762 558 762 542 766.032226562 c 132,-1,41
 526 770 526 770 512.768554688 775.875 c 4,42,43
 502.025543779 779.990215206 502.025543779 779.990215206 490.973632812 789.150390625 c 6,44,-1
 485.080078125 794.03515625 l 5,45,-1
 486.0859375 786.447265625 l 6,0,1
EndSplineSet
EndChar

StartChar: afii57396
Encoding: 1636 1636 63
GlifName: afii57396
Width: 1056
VWidth: 2952
GlyphClass: 2
Flags: W
LayerCount: 2
Fore
SplineSet
139.309570312 311.82421875 m 0,0,1
 131 530 131 530 501.677734375 722.083007812 c 5,2,3
 221 823 221 823 221.663085938 1029.95703125 c 4,4,5
 222 1141 222 1141 269.499023438 1209.296875 c 4,6,7
 411 1416 411 1416 820.08203125 1367.38085938 c 5,8,-1
 807.461914062 1185.27636719 l 5,9,10
 757 1191 757 1191 714 1191.45898438 c 4,11,12
 432 1192 432 1192 430.830078125 1032.08496094 c 4,13,14
 430 871 430 871 787.768554688 841.708984375 c 5,15,-1
 790.048828125 658.10546875 l 5,16,17
 327 471 327 471 335.516601562 350.264648438 c 0,18,19
 346.022652892 193.662337911 346.022652892 193.662337911 723.831054688 196.053710938 c 2,20,-1
 917.767578125 197.28125 l 1,21,-1
 919.984375 0.01953125 l 1,22,-1
 717.081054688 0.46875 l 2,23,24
 150 2 150 2 139.309570312 311.82421875 c 0,0,1
EndSplineSet
EndChar

StartChar: afii57397
Encoding: 1637 1637 64
GlifName: afii57397
Width: 1257
VWidth: 2952
GlyphClass: 2
Flags: W
LayerCount: 2
Fore
SplineSet
600.591796875 1040.64550781 m 5,0,1
 310 730 310 730 309.721679688 463.224609375 c 4,2,3
 310 348 310 348 416.696289062 264.071289062 c 0,4,5
 505 195 505 195 654.083496094 195.291015625 c 0,6,7
 804 195 804 195 885.265625 291.330078125 c 0,8,9
 947 364 947 364 946.259765625 470.30859375 c 4,10,11
 946 778 946 778 600.591796875 1040.64550781 c 5,0,1
397.208984375 1200.90136719 m 5,12,-1
 501.911132812 1369.72949219 l 5,13,14
 1136 963 1136 963 1136.70605469 447.263671875 c 4,15,16
 1137 205 1137 205 941.158203125 83.97265625 c 0,17,18
 817 7 817 7 640.247070313 8.38818359375 c 0,19,20
 463 9 463 9 335.077148438 80.3515625 c 0,21,22
 116 201 116 201 118.62890625 445.9453125 c 4,23,24
 122 793 122 793 451.9921875 1158.9296875 c 5,25,-1
 397.208984375 1200.90136719 l 5,12,-1
EndSplineSet
EndChar

StartChar: afii57398
Encoding: 1638 1638 65
GlifName: afii57398
Width: 1305
VWidth: 2952
GlyphClass: 2
Flags: W
LayerCount: 2
Fore
SplineSet
832.682617188 1136.31835938 m 6,0,1
 667.302566654 1091.00162112 667.302566654 1091.00162112 494.029296875 1090.07324219 c 4,2,3
 266 1090 266 1090 81.41796875 1173.32128906 c 5,4,-1
 81.41796875 1383.89746094 l 5,5,6
 279 1292 279 1292 509.7890625 1291.84277344 c 4,7,8
 574 1292 574 1292 636.537109375 1297.67578125 c 4,9,10
 700 1304 700 1304 761.530273438 1315.32519531 c 4,11,12
 824 1327 824 1327 884.536132812 1344.69824219 c 4,13,14
 946 1362 946 1362 1005.52734375 1385.73535156 c 5,15,16
 1017 498 1017 498 1163.07519531 11.5537109375 c 1,17,-1
 969.34765625 11.5537109375 l 1,18,19
 847.960060927 503.161749387 847.960060927 503.161749387 836.473632812 1133.47949219 c 6,20,-1
 836.403320312 1137.33789062 l 5,21,-1
 832.682617188 1136.31835938 l 6,0,1
EndSplineSet
EndChar

StartChar: afii57399
Encoding: 1639 1639 66
GlifName: afii57399
Width: 1301
VWidth: 2952
GlyphClass: 2
Flags: W
LayerCount: 2
Fore
SplineSet
1202.60644531 1300.14648438 m 5,0,1
 866 642 866 642 734.271484375 11.5537109375 c 1,2,-1
 566.603515625 11.5537109375 l 1,3,4
 430 634 430 634 98.2646484375 1300.1328125 c 5,5,-1
 266.727539062 1385.70214844 l 5,6,7
 557.973040078 784.055693021 557.973040078 784.055693021 647.508789062 341.645507812 c 2,8,-1
 650.446289062 327.130859375 l 1,9,-1
 653.389648438 341.64453125 l 2,10,11
 743 784 743 784 1034.1640625 1385.703125 c 5,12,-1
 1202.60644531 1300.14648438 l 5,0,1
EndSplineSet
EndChar

StartChar: afii57400
Encoding: 1640 1640 67
GlifName: afii57400
Width: 1301
VWidth: 2952
GlyphClass: 2
Flags: W
LayerCount: 2
Fore
SplineSet
647.508789062 1035.99023438 m 6,0,1
 557.503392971 593.040652349 557.503392971 593.040652349 266.729492188 -8.0693359375 c 1,2,-1
 98.2646484375 77.5009765625 l 1,3,4
 430 744 430 744 566.603515625 1366.08105469 c 5,5,-1
 734.283203125 1366.08105469 l 5,6,7
 869 745 869 745 1202.62109375 77.49609375 c 1,8,-1
 1034.1640625 -8.0693359375 l 1,9,10
 743.015227364 593.968512842 743.015227364 593.968512842 653.389648438 1035.98828125 c 6,11,-1
 650.452148438 1050.47558594 l 5,12,-1
 647.508789062 1035.99023438 l 6,0,1
EndSplineSet
EndChar

StartChar: afii57401
Encoding: 1641 1641 68
GlifName: afii57401
Width: 1198
VWidth: 2952
GlyphClass: 2
Flags: W
LayerCount: 2
Fore
SplineSet
509.53125 585.165039062 m 4,0,1
 111 585 111 585 111.948242188 937.607421875 c 4,2,3
 112 1081 112 1081 182.5 1194.5 c 4,4,5
 304 1390 304 1390 515.064453125 1390.31542969 c 4,6,7
 925 1390 925 1390 947.947265625 891.424804688 c 4,8,9
 958 663 958 663 1000.78222656 11.5537109375 c 1,10,-1
 819.748046875 11.5537109375 l 1,11,-1
 796.065429688 652.900390625 l 5,12,13
 660 585 660 585 509.53125 585.165039062 c 4,0,1
778.341796875 839.395507812 m 5,14,-1
 776.405273438 862.450195312 l 6,15,16
 747 1207 747 1207 513.16796875 1198.54296875 c 4,17,18
 410 1195 410 1195 341.44921875 1103.54492188 c 4,19,20
 287 1030 287 1030 287.008789062 945.275390625 c 4,21,22
 288 774 288 774 514 774.892578125 c 4,23,24
 649 775 649 775 778.341796875 839.395507812 c 5,14,-1
EndSplineSet
EndChar

StartChar: afii57381
Encoding: 1642 1642 69
GlifName: afii57381
Width: 1288
VWidth: 4038
GlyphClass: 2
Flags: W
LayerCount: 2
Fore
SplineSet
749.512695312 345.344726562 m 128,-1,1
 749.512695312 415.227539062 749.512695312 415.227539062 799.518554688 464.306640625 c 0,2,3
 848.588867188 513.376953125 848.588867188 513.376953125 918.5 513.83984375 c 0,4,5
 953.512695312 514.071289062 953.512695312 514.071289062 983.178710938 501.719726562 c 128,-1,6
 1012.84472656 489.368164062 1012.84472656 489.368164062 1037.44238281 464.306640625 c 0,7,8
 1062.01660156 439.731445312 1062.01660156 439.731445312 1074.25976562 410.045898438 c 128,-1,9
 1086.50390625 380.360351562 1086.50390625 380.360351562 1086.50390625 345.344726562 c 0,10,11
 1086.50390625 275.443359375 1086.50390625 275.443359375 1037.44238281 226.380859375 c 128,-1,12
 988.379882812 177.318359375 988.379882812 177.318359375 918.48046875 177.318359375 c 128,-1,13
 848.580078125 177.318359375 848.580078125 177.318359375 799.499023438 226.400390625 c 0,14,0
 749.512695312 275.459960938 749.512695312 275.459960938 749.512695312 345.344726562 c 128,-1,1
200.96875 1179.37011719 m 0,15,16
 201 1249 201 1249 250.965820312 1298.32324219 c 0,17,18
 300 1347 300 1347 369.958007812 1347.86523438 c 0,19,20
 440 1348 440 1348 488.895507812 1298.33496094 c 0,21,22
 538 1249 538 1249 537.959960938 1179.37011719 c 0,23,24
 538 1109 538 1109 488.888671875 1060.3984375 c 0,25,26
 464 1036 464 1036 434.78125 1023.51464844 c 0,27,28
 405 1011 405 1011 369.9296875 1011.34472656 c 0,29,30
 300 1011 300 1011 250.963867188 1060.41894531 c 0,31,32
 201 1109 201 1109 200.96875 1179.37011719 c 0,15,16
869.728515625 1381.96582031 m 5,33,-1
 1023 1303 l 1,34,-1
 354.951171875 33.673828125 l 1,35,-1
 202.111328125 117.6640625 l 1,36,-1
 869.728515625 1381.96582031 l 5,33,-1
EndSplineSet
EndChar

StartChar: uni066B
Encoding: 1643 1643 70
GlifName: uni066B_
Width: 822
VWidth: 2952
GlyphClass: 2
Flags: W
LayerCount: 2
Fore
SplineSet
532.755859375 818.005859375 m 1,0,-1
 664.05859375 762.266601562 l 1,1,-1
 199.7890625 -309.061523438 l 1,2,-1
 66.3642578125 -250.9921875 l 1,3,-1
 532.755859375 818.005859375 l 1,0,-1
EndSplineSet
EndChar

StartChar: uni066C
Encoding: 1644 1644 71
GlifName: uni066C_
Width: 588
VWidth: 2842
GlyphClass: 2
Flags: W
LayerCount: 2
Fore
SplineSet
127.02734375 150.623046875 m 0,0,1
 127.514648438 199.213867188 127.514648438 199.213867188 145.67578125 231.4453125 c 128,-1,2
 163.8359375 263.676757812 163.8359375 263.676757812 199.989257812 279.850585938 c 128,-1,3
 236.142578125 296.024414062 236.142578125 296.024414062 290.584960938 296.182617188 c 0,4,5
 436.666015625 296.829101562 436.666015625 296.829101562 463.669921875 167.809570312 c 0,6,7
 478.244140625 96.7724609375 478.244140625 96.7724609375 451.774414062 -9.224609375 c 0,8,9
 393.353515625 -232.500976562 393.353515625 -232.500976562 188.64453125 -401.0546875 c 1,10,-1
 137.49609375 -368.359375 l 1,11,12
 310.2109375 -193.501953125 310.2109375 -193.501953125 323.518554688 -10.2431640625 c 2,13,-1
 324.041015625 -3.078125 l 1,14,-1
 324.28125 0.2177734375 l 1,15,-1
 320.977539062 0.138671875 l 1,16,-1
 313.798828125 -0.0322265625 l 2,17,18
 266.21484375 -1.1533203125 266.21484375 -1.1533203125 246.815429688 3.404296875 c 0,19,20
 126.26953125 27.7294921875 126.26953125 27.7294921875 127.02734375 150.623046875 c 0,0,1
EndSplineSet
EndChar

StartChar: afii63167
Encoding: 1645 1645 72
GlifName: afii63167
Width: 1584
VWidth: 2952
GlyphClass: 2
Flags: W
LayerCount: 2
Fore
SplineSet
232.590820312 1038.65136719 m 1,0,-1
 662.741210938 1038.65136719 l 1,1,-1
 664.913085938 1038.65136719 l 1,2,-1
 665.591796875 1040.71484375 l 1,3,-1
 799.995117188 1449.92871094 l 1,4,-1
 934.400390625 1040.71484375 l 1,5,-1
 935.079101562 1038.65136719 l 1,6,-1
 937.250976562 1038.65136719 l 1,7,-1
 1367.40136719 1038.65136719 l 1,8,-1
 1019.86132812 784.586914062 l 1,9,-1
 1018.10644531 783.303710938 l 1,10,-1
 1018.77929688 781.236328125 l 1,11,-1
 1151.70117188 372.89453125 l 1,12,-1
 801.751953125 625.767578125 l 1,13,-1
 799.995117188 627.037109375 l 1,14,-1
 798.23828125 625.767578125 l 1,15,-1
 448.291992188 372.89453125 l 1,16,-1
 581.211914062 781.236328125 l 1,17,-1
 581.884765625 783.303710938 l 1,18,-1
 580.129882812 784.586914062 l 1,19,-1
 232.590820312 1038.65136719 l 1,0,-1
EndSplineSet
EndChar

StartChar: uni066E
Encoding: 1646 1646 73
GlifName: uni066E_
Width: 1837
VWidth: 2952
GlyphClass: 2
Flags: W
AnchorPoint: "Anchor-10" 1007.36 1415.35 basechar 0
AnchorPoint: "Anchor-7" 957.36 -257.261 basechar 0
LayerCount: 2
Fore
SplineSet
283.424804688 504.521484375 m 4,0,1
 285 184 285 184 871.8671875 184.13671875 c 4,2,3
 1566 184 1566 184 1564.37988281 515.411132812 c 4,4,5
 1564 605 1564 605 1527.80859375 730.631835938 c 5,6,-1
 1704.89355469 730.63 l 5,7,8
 1745 610 1745 610 1744.90625 519.708984375 c 4,9,10
 1744 0 1744 0 894.356445312 0 c 6,11,-1
 890.911132812 0 l 6,12,13
 105 0 105 0 104.16015625 485.872070312 c 4,14,15
 104 616 104 616 132 709 c 5,16,-1
 312 709 l 5,17,18
 283 607 283 607 283.424804688 504.521484375 c 4,0,1
EndSplineSet
Substitution2: "'init' Initial Forms in Arabic lookup 13 subtable" uni066E.init
Substitution2: "'medi' Medial Forms in Arabic lookup 11 subtable" uni066E.medi
Substitution2: "'fina' Terminal Forms in Arabic lookup 9 subtable" uni066E.fina
EndChar

StartChar: uni066F
Encoding: 1647 1647 74
GlifName: uni066F_
Width: 1393
VWidth: 2952
GlyphClass: 2
Flags: W
AnchorPoint: "Anchor-10" 121.809 1352.22 basechar 0
AnchorPoint: "Anchor-7" 335.219 -721.353 basechar 0
LayerCount: 2
Fore
SplineSet
1292.15429688 68.720703125 m 0,0,1
 1240 -404 1240 -404 687.330078125 -403.724609375 c 0,2,3
 101 -404 101 -404 101.752929688 169.043945312 c 0,4,5
 102 330 102 330 163.028320312 508.120117188 c 1,6,-1
 330.548828125 508.120117188 l 5,7,8
 277 320 277 320 277.268554688 170.860351562 c 4,9,10
 278 -225 278 -225 694.400390625 -225.203125 c 0,11,12
 1083 -225 1083 -225 1121.00683594 79.380859375 c 1,13,-1
 1051.08789062 78.9638671875 l 0,14,15
 627 79 627 79 626.912109375 392.505859375 c 0,16,17
 627 547 627 547 713.907226562 657.036132812 c 0,18,19
 802 767 802 767 958.012695312 767.229492188 c 0,20,21
 1221 767 1221 767 1282.51553201 343 c 0,22,23
 1305 189 1305 189 1292.15429688 68.720703125 c 0,0,1
1119.53710938 256.754882812 m 1,24,25
 1099 583 1099 583 946.3125 583.276367188 c 0,26,27
 872 583 872 583 832.907226562 528.6875 c 0,28,29
 794 475 794 475 794.06640625 404.71484375 c 0,30,31
 794 260 794 260 1037.86132812 257.515625 c 0,32,33
 1079 257 1079 257 1119.53710938 256.754882812 c 1,24,25
EndSplineSet
Substitution2: "'init' Initial Forms in Arabic lookup 13 subtable" uni066F.init
Substitution2: "'medi' Medial Forms in Arabic lookup 11 subtable" uni066F.medi
Substitution2: "'fina' Terminal Forms in Arabic lookup 9 subtable" uni066F.fina
EndChar

StartChar: uni0670
Encoding: 1648 1648 75
GlifName: uni0670
Width: -29
VWidth: 2574
GlyphClass: 4
Flags: W
AnchorPoint: "Anchor-10" 636.984 1500.61 mark 0
AnchorPoint: "Anchor-9" 636.984 1500.61 mark 0
AnchorPoint: "Anchor-1" 636.984 2087.18 basemark 0
AnchorPoint: "Anchor-1" 636.984 1500.61 mark 0
LayerCount: 2
Fore
SplineSet
593.435546875 1568.26757812 m 1,0,-1
 593.435546875 2019.51660156 l 1,1,-1
 680.533203125 2019.51660156 l 1,2,-1
 680.533203125 1568.26757812 l 1,3,-1
 593.435546875 1568.26757812 l 1,0,-1
EndSplineSet
EndChar

StartChar: uni0674
Encoding: 1652 1652 76
GlifName: uni0674
Width: 711
VWidth: 2537
GlyphClass: 2
Flags: W
LayerCount: 2
Fore
SplineSet
254.625976562 1990.5 m 1,0,1
 161 2063 161 2063 160.783203125 2170.51855469 c 0,2,3
 161 2259 161 2259 219.695328434 2321 c 0,4,5
 289 2394 289 2394 397.013671875 2394.015625 c 0,6,7
 492 2394 492 2394 567.86328125 2351.47949219 c 1,8,-1
 568.565429688 2219.95410156 l 1,9,10
 476 2261 476 2261 411 2261.26163149 c 0,11,12
 348 2261 348 2261 314 2226.9296875 c 0,13,14
 286 2198 286 2198 286.4921875 2158 c 4,15,16
 288 2083 288 2083 400.916015625 2043.80957031 c 0,17,18
 412 2040 412 2040 425 2041.29396973 c 0,19,20
 474 2047 474 2047 594.747070312 2068.54394531 c 1,21,-1
 594.747070312 1933.015625 l 1,22,-1
 158.286132812 1835.02734375 l 1,23,-1
 158.286132812 1968.27050781 l 1,24,-1
 254.625976562 1990.5 l 1,0,1
EndSplineSet
EndChar

StartChar: uni06A1
Encoding: 1697 1697 80
GlifName: uni06A_1
Width: 1791
VWidth: 2952
GlyphClass: 2
Flags: W
AnchorPoint: "Anchor-10" 670.853 1630.62 basechar 0
AnchorPoint: "Anchor-7" 653.182 -352.248 basechar 0
LayerCount: 2
Fore
SplineSet
283.424804688 504.521484375 m 0,0,1
 283.000574643 184.433576393 283.000574643 184.433576393 871.8671875 184.13671875 c 2,2,-1
 1145.00878906 183.999023438 l 2,3,4
 1507 184 1507 184 1518.65820312 356.5546875 c 5,5,-1
 1448.73925781 356.137695312 l 4,6,7
 1028 356 1028 356 1028.56347656 669.6796875 c 0,8,9
 1029 824 1029 824 1115.55859375 934.209960938 c 0,10,11
 1202 1044 1202 1044 1359.6640625 1044.40332031 c 0,12,13
 1668 1045 1668 1045 1693.55859375 542.326171875 c 0,14,15
 1695 513 1695 513 1695.94921875 477.473632812 c 8,16,17
 1696 381 1696 381 1676 304.145507812 c 0,18,19
 1596 0 1596 0 1133.86816406 0 c 2,20,-1
 890.911132812 0 l 2,21,22
 104 0 104 0 104.16015625 485.872070312 c 0,23,24
 104 616 104 616 132 709 c 1,25,-1
 312 709 l 1,26,27
 283 607 283 607 283.424804688 504.521484375 c 0,0,1
1521.18847656 533.928710938 m 1,28,29
 1500 861 1500 861 1347.96386719 860.450195312 c 0,30,31
 1274 860 1274 860 1234.55859375 805.861328125 c 0,32,33
 1196 752 1196 752 1195.71777344 681.888671875 c 0,34,35
 1196 539 1196 539 1439.51269531 534.689453125 c 0,36,37
 1481 534 1481 534 1521.18847656 533.928710938 c 1,28,29
EndSplineSet
Substitution2: "'init' Initial Forms in Arabic lookup 13 subtable" uni06A1.init
Substitution2: "'medi' Medial Forms in Arabic lookup 11 subtable" uni06A1.medi
Substitution2: "'fina' Terminal Forms in Arabic lookup 9 subtable" uni06A1.fina
EndChar

StartChar: uni06A9
Encoding: 1705 1705 81
GlifName: uni06A_9
Width: 1898
VWidth: 2952
GlyphClass: 2
Flags: W
AnchorPoint: "Anchor-7" 750.268 -236.468 basechar 0
AnchorPoint: "Anchor-10" 693.878 1374.89 basechar 0
LayerCount: 2
Fore
SplineSet
283.424804688 504.521484375 m 0,0,1
 285 184 285 184 871.8671875 184.13671875 c 4,2,-1
 1073.27441406 183.9921875 l 6,3,4
 1478 184 1478 184 1477.21679688 415.118164062 c 0,5,6
 1477 501 1477 501 1396.78710938 582 c 0,7,8
 1348 631 1348 631 1097.4921875 825 c 0,9,10
 987 910 987 910 986.411132812 1004.45703125 c 0,11,12
 986 1067 986 1067 1023.26953125 1115.70605469 c 0,13,14
 1060.76952998 1164.69889649 1060.76952998 1164.69889649 1126.60644531 1190.84472656 c 2,15,-1
 1839.86328125 1474.10058594 l 1,16,-1
 1839.86328125 1279.46191406 l 1,17,-1
 1147.06640625 1008.55859375 l 1,18,-1
 1489.2578125 729.663085938 l 2,19,20
 1659 591 1659 591 1656.70996094 410.357421875 c 0,21,22
 1652 0 1652 0 1074.10449219 0 c 2,23,-1
 890.911132812 0 l 2,24,25
 104 0 104 0 104.16015625 485.872070312 c 0,26,27
 104 616 104 616 132 709 c 1,28,-1
 312 709 l 1,29,30
 283 607 283 607 283.424804688 504.521484375 c 0,0,1
EndSplineSet
Substitution2: "'init' Initial Forms in Arabic lookup 13 subtable" uniFB90
Substitution2: "'medi' Medial Forms in Arabic lookup 11 subtable" uniFB91
Substitution2: "'fina' Terminal Forms in Arabic lookup 9 subtable" uniFB8F
EndChar

StartChar: afii57514
Encoding: 1722 1722 83
GlifName: afii57514
Width: 1405
VWidth: 2952
GlyphClass: 2
Flags: W
AnchorPoint: "Anchor-10" 697.479 1237.75 basechar 0
AnchorPoint: "Anchor-7" 728.023 -683.042 basechar 0
LayerCount: 2
Fore
SplineSet
1090.44628906 580.08984375 m 1,0,-1
 1263.08789062 578.76953125 l 1,1,2
 1304 352 1304 352 1302.31249531 199.68632907 c 0,3,4
 1302 160 1302 160 1299.91992188 124.049804688 c 0,5,6
 1261 -404 1261 -404 687.926757812 -403.724609375 c 0,7,-1
 687.330078125 -403.724609375 l 0,8,-1
 686.771484375 -403.724609375 l 0,9,10
 101 -404 101 -404 101.75158807 167.298012759 c 0,11,12
 102 329 102 329 163.028320312 508.120117188 c 1,13,-1
 330.548828125 508.120117188 l 5,14,15
 277 321 277 321 277.267578125 172.349609375 c 4,16,17
 277 -225 277 -225 694.400390625 -225.203125 c 0,18,19
 959 -225 959 -225 1063 -64.341796875 c 0,20,21
 1136 48 1136 48 1135.60546875 235.950195312 c 0,22,23
 1136 384 1136 384 1090.44628906 580.08984375 c 1,0,-1
EndSplineSet
Substitution2: "'init' Initial Forms in Arabic lookup 13 subtable" uni06BA.init
Substitution2: "'medi' Medial Forms in Arabic lookup 11 subtable" uni06BA.medi
Substitution2: "'fina' Terminal Forms in Arabic lookup 9 subtable" uniFB9F
EndChar

StartChar: uni06F4
Encoding: 1780 1780 90
GlifName: uni06F_4
Width: 1244
VWidth: 2952
GlyphClass: 2
Flags: W
LayerCount: 2
Fore
SplineSet
1086.33496094 1350.42285156 m 5,0,-1
 1043.33984375 1178.03417969 l 5,1,2
 966 1209 966 1209 883.235351562 1208.92675781 c 4,3,4
 780 1209 780 1209 710.057617188 1157.72753906 c 4,5,6
 599 1076 599 1076 584.663085938 937.193359375 c 4,7,8
 580 892 580 892 665.494140625 847.66796875 c 4,9,10
 736 811 736 811 855.942382812 810.590820312 c 4,11,12
 996 811 996 811 1118.12207031 860.52734375 c 5,13,-1
 1141.44921875 685.890625 l 5,14,15
 1017 631 1017 631 877.0078125 631.180664062 c 4,16,-1
 876.217773438 631.181640625 l 6,17,18
 605 632 605 632 485.182617188 776.000976562 c 5,19,-1
 486.708984375 765.439453125 l 6,20,21
 519.115234375 540.199060804 519.115234375 540.199060804 519.115234375 278.771484375 c 6,22,-1
 519.115234375 11.5537109375 l 1,23,-1
 334.796875 11.5537109375 l 1,24,-1
 334.791992188 281.91796875 l 6,25,26
 335 943 335 943 144.876953125 1327.90820312 c 5,27,-1
 314.573242188 1385.96386719 l 5,28,29
 331 1335 331 1335 398.782226562 1142.296875 c 4,30,31
 419 1085 419 1085 439.536132812 1026.83789062 c 5,32,-1
 454.734375 1077 l 6,33,34
 501 1229 501 1229 599 1310 c 4,35,36
 707 1400 707 1400 858.047851562 1399.43164062 c 4,37,38
 979 1399 979 1399 1086.33496094 1350.42285156 c 5,0,-1
EndSplineSet
EndChar

StartChar: uni06F5
Encoding: 1781 1781 91
GlifName: uni06F_5
Width: 1328
VWidth: 2952
GlyphClass: 2
Flags: W
LayerCount: 2
Fore
SplineSet
283.965820312 339.41015625 m 0,0,1
 284 198 284 198 398.05078125 197.844726562 c 0,2,3
 543 198 543 198 609.71484375 512.583007812 c 1,4,-1
 734.022460938 512.477539062 l 1,5,6
 788 194 788 194 939.256835938 194.079101562 c 0,7,8
 1044 194 1044 194 1043.97877215 339.676082649 c 0,9,10
 1044 634 1044 634 629 1050.5703125 c 5,11,12
 284 596 284 596 283.965820312 339.41015625 c 0,0,1
383.447265625 11.9833984375 m 0,13,14
 109 12 109 12 109.2421875 339.344726562 c 0,15,16
 109.000149358 662.800400293 109.000149358 662.800400293 493.814453125 1179.56445312 c 6,17,-1
 495.415039062 1181.71386719 l 5,18,-1
 493.458007812 1183.54589844 l 5,19,-1
 439.18359375 1234.34960938 l 5,20,-1
 563.442382812 1386.19042969 l 5,21,-1
 688.700195312 1267.3671875 l 5,22,23
 1219 746 1219 746 1219.44199292 349.259552463 c 0,24,25
 1219 12 1219 12 954.309570312 11.943359375 c 0,26,27
 756 12 756 12 672.232421875 243.266601562 c 1,28,29
 595 12 595 12 383.447265625 11.9833984375 c 0,13,14
EndSplineSet
EndChar

StartChar: uni06F6
Encoding: 1782 1782 92
GlifName: uni06F_6
Width: 1104
VWidth: 2952
GlyphClass: 2
Flags: W
LayerCount: 2
Fore
SplineSet
752.499023438 1194.92382812 m 5,0,1
 700 1200 700 1200 637.673828125 1200.46582031 c 4,2,3
 446 1200 446 1200 369 1113.24804688 c 4,4,5
 312 1049 312 1049 311.594726562 973.765625 c 4,6,7
 312 759 312 759 688.764648438 758.364257812 c 5,8,-1
 690.079101562 758.666992188 l 5,9,10
 891 868 891 868 973.879882812 901.765625 c 5,11,-1
 981.556640625 715.63671875 l 5,12,13
 543 518 543 518 318.25390625 -28.4091796875 c 1,14,-1
 149.010742188 28.2734375 l 1,15,16
 286 370 286 370 524.650390625 605.670898438 c 5,17,18
 126 644 126 644 127.64453125 978.891601562 c 4,19,20
 128 1073 128 1073 166.403320312 1152.42578125 c 4,21,22
 283 1388 283 1388 606.01171875 1386.40820312 c 4,23,24
 686 1386 686 1386 778.365234375 1372.23242188 c 5,25,-1
 752.499023438 1194.92382812 l 5,0,1
EndSplineSet
EndChar

StartChar: uniFB8F
Encoding: 64399 64399 107
GlifName: uniF_B_8F_
Width: 1924
VWidth: 2952
GlyphClass: 2
Flags: W
AnchorPoint: "Anchor-10" 743.878 1374.89 basechar 0
AnchorPoint: "Anchor-7" 750.268 -236.468 basechar 0
LayerCount: 2
Fore
SplineSet
283.424804688 504.521484375 m 0,0,1
 284 184 284 184 871.8671875 184.13671875 c 4,2,-1
 1076.97753906 183.9921875 l 6,3,4
 1480 184 1480 184 1480.91992188 415.118164062 c 0,5,6
 1481 501 1481 501 1400.49023438 582 c 0,7,8
 1352 631 1352 631 1101.1953125 825 c 0,9,10
 990 911 990 911 990.114257812 1004.45703125 c 0,11,12
 990 1067 990 1067 1026.97265625 1115.70605469 c 0,13,14
 1064.89803786 1164.86782889 1064.89803786 1164.86782889 1130.30957031 1190.84472656 c 2,15,-1
 1843.56640625 1474.10058594 l 1,16,-1
 1843.56640625 1279.46191406 l 1,17,-1
 1150.76953125 1008.55859375 l 1,18,-1
 1492.9609375 729.663085938 l 2,19,20
 1654 598 1654 598 1660.41308594 410.357421875 c 8,21,22
 1668.00022912 183.993164062 1668.00022912 183.993164062 1920.109375 183.993164062 c 6,23,-1
 1936.44238281 183.993164062 l 6,24,25
 1956.51953125 183.999840232 1956.51953125 183.999840232 1956.51953125 107.174804688 c 2,26,-1
 1956.51953125 88.3046875 l 2,27,28
 1957 0 1957 0 1936.44140625 0 c 2,29,-1
 1920.00292969 0 l 2,30,31
 1670 0 1670 0 1584.1953125 179 c 1,32,33
 1455 0 1455 0 1077.80761719 0 c 2,34,-1
 890.911132812 0 l 2,35,36
 105 0 105 0 104.16015625 485.872070312 c 0,37,38
 104 616 104 616 132 709 c 1,39,-1
 312 709 l 1,40,41
 283 607 283 607 283.424804688 504.521484375 c 0,0,1
EndSplineSet
EndChar

StartChar: uniFB9F
Encoding: 64415 64415 115
GlifName: uniF_B_9F_
Width: 1469
VWidth: 2952
GlyphClass: 2
Flags: W
AnchorPoint: "Anchor-10" 673.458 1366.61 basechar 0
AnchorPoint: "Anchor-7" 565.902 -800.086 basechar 0
LayerCount: 2
Fore
SplineSet
1299.91992188 56.0498046875 m 1,0,1
 1257 -472 1257 -472 687.91796875 -471.724609375 c 0,2,-1
 687.330078125 -471.724609375 l 0,3,-1
 686.771484375 -471.724609375 l 0,4,5
 101 -472 101 -472 101.751589157 99.2987184483 c 0,6,7
 102 261 102 261 163.028320312 440.12 c 1,8,-1
 330.548828125 440.120117188 l 1,9,10
 277 253 277 253 277.267578125 104.353515625 c 0,11,12
 277 -293 277 -293 694.400390625 -293.203125 c 0,13,14
 959 -293 959 -293 1063 -132.342211547 c 0,15,16
 1136 -20 1136 -20 1135.60510164 167.950171859 c 0,17,18
 1136 316 1136 316 1090.44628906 512.09 c 1,19,-1
 1263.08789062 512.09 l 1,20,-1
 1286.26855469 378.080078125 l 2,21,22
 1320.00016973 183.999023438 1320.00016973 183.999023438 1459.02050781 183.999023438 c 2,23,-1
 1478.13476562 183.999023438 l 2,24,25
 1498.21875 184.000010754 1498.21875 184.000010754 1498.21875 111.889648438 c 2,26,-1
 1498.21875 88.3115234375 l 2,27,28
 1498 0 1498 0 1478.13671875 0 c 2,29,-1
 1463.41894531 0 l 2,30,31
 1359 0 1359 0 1299.91992188 56.0498046875 c 1,0,1
EndSplineSet
EndChar

StartChar: uniFBE8
Encoding: 64488 64488 118
GlifName: uniF_B_E_8
Width: 636
VWidth: 2952
GlyphClass: 2
Flags: W
AnchorPoint: "Anchor-10" 311.384 1353 basechar 0
AnchorPoint: "Anchor-7" 303.422 -223.625 basechar 0
LayerCount: 2
Fore
SplineSet
78.673828125 0 m 2,0,-1
 -6.9384765625 0 l 2,1,2
 -84.7783203125 0 -84.7783203125 0 -84.7783203125 88.3134765625 c 2,3,-1
 -84.7783203125 107.176757812 l 2,4,5
 -84.9999802743 183.993164062 -84.9999802743 183.993164062 -6.9384765625 183.993164062 c 2,6,-1
 78.6845703125 183.993164062 l 2,7,8
 350.33984375 184.000008563 350.33984375 184.000008563 350.33984375 439.034179688 c 2,9,-1
 350.33984375 719.633789062 l 1,10,-1
 517.419921875 719.629882812 l 1,11,-1
 517.419921875 438.328125 l 2,12,13
 517 0 517 0 78.673828125 0 c 2,0,-1
EndSplineSet
EndChar

StartChar: uniFBE9
Encoding: 64489 64489 119
GlifName: uniF_B_E_9
Width: 667
VWidth: 2952
GlyphClass: 2
Flags: W
AnchorPoint: "Anchor-10" 295.665 1297.09 basechar 0
AnchorPoint: "Anchor-7" 320.537 -177.742 basechar 0
LayerCount: 2
Fore
SplineSet
694.731445312 88.3408203125 m 2,0,1
 694.731445312 0 694.731445312 0 674.650390625 0 c 2,2,-1
 665.006835938 0 l 2,3,4
 497 0 497 0 422.424804688 141.114257812 c 5,5,6
 323 0 323 0 75.759765625 0 c 2,7,-1
 -8.1171875 0 l 2,8,9
 -84.7783203125 0 -84.7783203125 0 -84.7783203125 88.3134765625 c 2,10,-1
 -84.7783203125 107.186523438 l 2,11,12
 -84.9999802718 183.993164062 -84.9999802718 183.993164062 -8.1171875 183.993164062 c 2,13,-1
 71.0126953125 183.993164062 l 2,14,15
 317.734011986 183.999992638 317.734011986 183.999992638 329.509765625 395.680664062 c 2,16,-1
 339.509765625 575.440429688 l 1,17,-1
 474.3203125 575.440429688 l 1,18,-1
 484.3203125 393.607421875 l 2,19,20
 496.00038091 183.993164062 496.00038091 183.993164062 666.57421875 183.993164062 c 2,21,-1
 674.651367188 183.993164062 l 2,22,23
 694.731445312 183.999909782 694.731445312 183.999909782 694.731445312 98.322265625 c 2,24,-1
 694.731445312 88.3408203125 l 2,0,1
EndSplineSet
EndChar

StartChar: uniFE73
Encoding: 65139 65139 127
GlifName: uniF_E_73
Width: 742
VWidth: 2952
GlyphClass: 2
Flags: W
AnchorPoint: "Anchor-10" 274.943 1718.47 basechar 0
AnchorPoint: "Anchor-7" 274.943 -172.304 basechar 0
LayerCount: 2
Fore
SplineSet
370.336914062 456.018554688 m 2,0,1
 370.336914062 408.051757812 370.336914062 408.051757812 391.009765625 363.41015625 c 128,-1,2
 411.681640625 318.768554688 411.681640625 318.768554688 452.857421875 277.594726562 c 0,3,4
 471.848632812 258.599609375 471.848632812 258.599609375 496.211914062 244.408203125 c 128,-1,5
 520.525390625 230.2421875 520.525390625 230.2421875 550.138671875 220.869140625 c 0,6,7
 564.8046875 216.227539062 564.8046875 216.227539062 580.756835938 212.750976562 c 128,-1,8
 596.709960938 209.275390625 596.709960938 209.275390625 613.950195312 206.961914062 c 0,9,10
 648.384765625 202.342773438 648.384765625 202.342773438 688.00390625 202.342773438 c 2,11,-1
 758.674804688 202.342773438 l 1,12,-1
 758.674804688 11.5537109375 l 1,13,-1
 608.006835938 11.5537109375 l 2,14,15
 417.389648438 11.5537109375 417.389648438 11.5537109375 294.831054688 134.111328125 c 0,16,17
 179.544921875 249.3984375 179.544921875 249.3984375 179.544921875 438.563476562 c 2,18,-1
 179.544921875 462.69140625 l 1,19,-1
 370.336914062 462.69140625 l 1,20,-1
 370.336914062 456.018554688 l 2,0,1
EndSplineSet
EndChar

StartChar: uniFE8E
Encoding: 65166 65166 153
GlifName: uniF_E_8E_
Width: 551
VWidth: 2952
GlyphClass: 2
Flags: W
AnchorPoint: "Anchor-10" 246.697 1583.11 basechar 0
AnchorPoint: "Anchor-7" 316.078 -239.903 basechar 0
LayerCount: 2
Fore
SplineSet
578.618164062 88.310546875 m 1,0,1
 580 0 580 0 558.537109375 0 c 2,2,-1
 537.658203125 0 l 2,3,4
 164.283203125 0 164.283203125 0 164.283203125 438.395507812 c 2,5,-1
 164.283203125 1418.171875 l 5,6,-1
 333.598632812 1418.171875 l 5,7,-1
 333.598632812 440.450195312 l 2,8,9
 334.000010699 183.993164062 334.000010699 183.993164062 540.712890625 183.993164062 c 2,10,-1
 558.538085938 183.993164062 l 2,11,12
 578.618164062 183.999872436 578.618164062 183.999872436 578.618164062 107.174804688 c 2,13,-1
 578.618164062 88.310546875 l 1,0,1
EndSplineSet
EndChar

StartChar: uniFEA2
Encoding: 65186 65186 173
GlifName: uniF_E_A_2
Width: 1326
VWidth: 2952
GlyphClass: 2
Flags: W
AnchorPoint: "Anchor-10" 593.478 1366.07 basechar 0
AnchorPoint: "Anchor-7" 496.833 -922.619 basechar 0
LayerCount: 2
Fore
SplineSet
839 376.759765625 m 1,0,1
 285 232 285 232 285.249023438 -119.302734375 c 0,2,3
 285 -468 285 -468 816.383789062 -467.783203125 c 0,4,5
 1008 -468 1008 -468 1188.31152344 -382.284179688 c 1,6,-1
 1188 -570 l 1,7,8
 1036 -643 1036 -643 801.528320312 -643.249023438 c 0,9,10
 403 -643 403 -643 234 -461.306640625 c 0,11,12
 115 -333 115 -333 114.987304688 -134.852539062 c 0,13,14
 115.000001757 390.072656674 115.000001757 390.072656674 781 537.776367188 c 2,15,-1
 791 539.994140625 l 1,16,17
 734 563 734 563 677.876953125 585.083007812 c 0,18,19
 505 653 505 653 384.310546875 653.686523438 c 4,20,21
 255 654 255 654 121.990234375 598.029296875 c 5,22,-1
 121.990234375 755.029296875 l 5,23,24
 227 835 227 835 392.32421875 835.841796875 c 4,25,26
 539 837 539 837 715.991210938 760.029296875 c 0,27,28
 1071 606 1071 606 1198.90820312 600.69140625 c 1,29,-1
 1184.91894531 426.9296875 l 1,30,31
 1058 419 1058 419 989.759765625 409 c 0,32,-1
 989.759765625 398.13671875 l 2,33,34
 989.999932178 181.061300992 989.999932178 181.061300992 1310.62011719 184.061523438 c 2,35,-1
 1333.89257812 184.279296875 l 2,36,37
 1353.97851562 184.000298423 1353.97851562 184.000298423 1353.97851562 111.889648438 c 2,38,-1
 1353.97851562 88.3115234375 l 2,39,40
 1354 0 1354 0 1333.8984375 0 c 2,41,-1
 1311.49511719 0 l 2,42,43
 844.681389592 3.75166564481e-12 844.681389592 3.75166564481e-12 839.192382812 364.001953125 c 2,44,-1
 839 376.759765625 l 1,0,1
EndSplineSet
EndChar

StartChar: uniFEA3
Encoding: 65187 65187 174
GlifName: uniF_E_A_3
Width: 1307
VWidth: 2952
GlyphClass: 2
Flags: W
AnchorPoint: "Anchor-10" 551.825 1372.07 basechar 0
AnchorPoint: "Anchor-7" 483.524 -234.745 basechar 0
LayerCount: 2
Fore
SplineSet
-6.9384765625 0 m 2,0,1
 -84.7783203125 0 -84.7783203125 0 -84.7783203125 88.3134765625 c 2,2,-1
 -84.7783203125 107.186523438 l 2,3,4
 -84.9999971817 183.999023438 -84.9999971817 183.999023438 -6.9384765625 183.999023438 c 2,5,-1
 22.54296875 183.999023438 l 2,6,7
 381.102041111 184.000000278 381.102041111 184.000000278 839 432.836914062 c 2,8,-1
 912.827148438 472.95703125 l 1,9,10
 887 480 887 480 696.885742188 557.053710938 c 0,11,12
 528 625 528 625 403.319335938 625.657226562 c 0,13,14
 274 626 274 626 141 570 c 1,15,-1
 141 727 l 1,16,17
 246 807 246 807 411.333007812 807.8125 c 0,18,19
 559 808 559 808 735 732 c 0,20,21
 1090 578 1090 578 1217.91699219 572.662109375 c 1,22,-1
 1216.09179688 398.993164062 l 1,23,24
 1124 391 1124 391 791.682617188 216.151367188 c 0,25,26
 382 0 382 0 10.767578125 0 c 2,27,-1
 -6.9384765625 0 l 2,0,1
EndSplineSet
EndChar

StartChar: uniFEA4
Encoding: 65188 65188 175
GlifName: uniF_E_A_4
Width: 1321
VWidth: 2952
GlyphClass: 2
Flags: W
AnchorPoint: "Anchor-7" 483.524 -234.745 basechar 0
AnchorPoint: "Anchor-10" 551.825 1372.07 basechar 0
LayerCount: 2
Fore
SplineSet
736 732 m 0,0,1
 1090 578 1090 578 1217.91699219 572.662109375 c 1,2,-1
 1216.09179688 398.993164062 l 1,3,4
 1129 396 1129 396 998 316.838867188 c 1,5,6
 1041.90461681 188.279296875 1041.90461681 188.279296875 1316.61132812 188.279296875 c 2,7,-1
 1330.39746094 188.279296875 l 2,8,9
 1350.50585938 188.006698783 1350.50585938 188.006698783 1350.50585938 111.889648438 c 2,10,-1
 1350.50585938 88.3271484375 l 2,11,12
 1351 0 1351 0 1330.42773438 0 c 2,13,-1
 1311.09667969 0 l 2,14,15
 935 0 935 0 855 250 c 1,16,17
 823 233 823 233 791.682617188 216.151367188 c 0,18,19
 382 0 382 0 10.767578125 0 c 2,20,-1
 -6.9384765625 0 l 2,21,22
 -84.7783203125 0 -84.7783203125 0 -84.7783203125 88.3134765625 c 2,23,-1
 -84.7783203125 107.186523438 l 2,24,25
 -84.9999971817 183.999023438 -84.9999971817 183.999023438 -6.9384765625 183.999023438 c 2,26,-1
 22.54296875 183.999023438 l 2,27,28
 381.102041111 184.000000278 381.102041111 184.000000278 839 432.836914062 c 2,29,-1
 912.827148438 472.95703125 l 1,30,31
 887 480 887 480 697.885742188 557.053710938 c 0,32,33
 529 625 529 625 403.319335938 625.657226562 c 4,34,35
 274 626 274 626 141 570 c 5,36,-1
 141 727 l 5,37,38
 246 807 246 807 411.333007812 807.8125 c 4,39,40
 560 808 560 808 736 732 c 0,0,1
EndSplineSet
EndChar

StartChar: uniFEAA
Encoding: 65194 65194 181
GlifName: uniF_E_A_A_
Width: 1061
VWidth: 2952
GlyphClass: 2
Flags: W
AnchorPoint: "Anchor-7" 377.24 -239.316 basechar 0
AnchorPoint: "Anchor-10" 538.848 1381.53 basechar 0
LayerCount: 2
Fore
SplineSet
327.559570312 0.8193359375 m 0,0,1
 254 1 254 1 102.096679688 29.5419921875 c 1,2,-1
 102.096679688 219.252929688 l 1,3,4
 247 189 247 189 332.981445312 189.068359375 c 0,5,6
 673 189 673 189 673.088867188 329.063476562 c 0,7,8
 673.000152807 377.915853661 673.000152807 377.915853661 581.83984375 608.408203125 c 2,9,-1
 459 919 l 1,10,-1
 651 920 l 1,11,-1
 812.5625 491.860351562 l 2,12,13
 929.002585456 183.993164062 929.002585456 183.993164062 1048.87988281 183.993164062 c 2,14,-1
 1068.51855469 183.993164062 l 2,15,16
 1088.59765625 183.999865713 1088.59765625 183.999865713 1088.59765625 107.174804688 c 6,17,-1
 1088.59765625 88.318359375 l 6,18,19
 1089.6037715 3.28981286657e-12 1089.6037715 3.28981286657e-12 1068.51757812 0 c 2,20,-1
 1048.53222656 0 l 2,21,22
 896 0 896 0 792 164 c 1,23,24
 658 0 658 0 327.559570312 0.8193359375 c 0,0,1
EndSplineSet
EndChar

StartChar: uniFEAE
Encoding: 65198 65198 185
GlifName: uniF_E_A_E_
Width: 854
VWidth: 2144
GlyphClass: 2
Flags: W
AnchorPoint: "Anchor-7" 364.969 -769.998 basechar 0
AnchorPoint: "Anchor-10" 459.256 1370.2 basechar 0
LayerCount: 2
Fore
SplineSet
695.4453125 50 m 1,0,1
 629 -463 629 -463 -13 -472.319335938 c 1,2,-1
 -13.130859375 -299.87890625 l 1,3,4
 529 -293 529 -293 528.250976562 172.243164062 c 0,5,6
 528 313 528 313 435 512 c 1,7,-1
 633 511 l 1,8,-1
 683.154296875 333 l 6,9,10
 725.000274261 183.999023438 725.000274261 183.999023438 835.31640625 183.999023438 c 2,11,-1
 862.57421875 183.999023438 l 2,12,13
 882.638671875 183.999982725 882.638671875 183.999982725 882.638671875 112.322265625 c 2,14,-1
 882.638671875 88.208984375 l 2,15,16
 883 0 883 0 862.57421875 0 c 2,17,-1
 845.80078125 0 l 2,18,19
 732 0 732 0 695.4453125 50 c 1,0,1
EndSplineSet
PairPos2: "'kern' Horizontal Kerning lookup 15-2" uniFBFE dx=60 dy=0 dh=60 dv=0 dx=0 dy=0 dh=0 dv=0
PairPos2: "'kern' Horizontal Kerning lookup 15-1" uniFEE7 dx=-178 dy=0 dh=-178 dv=0 dx=0 dy=0 dh=0 dv=0
PairPos2: "'kern' Horizontal Kerning lookup 15-2" uniFB90 dx=-226 dy=0 dh=-226 dv=0 dx=0 dy=0 dh=0 dv=0
PairPos2: "'kern' Horizontal Kerning lookup 15-2" uniFB8E dx=-226 dy=0 dh=-226 dv=0 dx=0 dy=0 dh=0 dv=0
PairPos2: "'kern' Horizontal Kerning lookup 15-2" uni06A9 dx=-226 dy=0 dh=-226 dv=0 dx=0 dy=0 dh=0 dv=0
PairPos2: "'kern' Horizontal Kerning lookup 15-2" uni064A dx=-60 dy=0 dh=-60 dv=0 dx=0 dy=0 dh=0 dv=0
PairPos2: "'kern' Horizontal Kerning lookup 15-2" afii57414 dx=-60 dy=0 dh=-60 dv=0 dx=0 dy=0 dh=0 dv=0
PairPos2: "'kern' Horizontal Kerning lookup 15-2" uni0649 dx=-60 dy=0 dh=-60 dv=0 dx=0 dy=0 dh=0 dv=0
PairPos2: "'kern' Horizontal Kerning lookup 15-2" uniFEEB dx=-178 dy=0 dh=-178 dv=0 dx=0 dy=0 dh=0 dv=0
PairPos2: "'kern' Horizontal Kerning lookup 15-2" uni0647 dx=-178 dy=0 dh=-178 dv=0 dx=0 dy=0 dh=0 dv=0
PairPos2: "'kern' Horizontal Kerning lookup 15-2" uni0646 dx=-60 dy=0 dh=-60 dv=0 dx=0 dy=0 dh=0 dv=0
PairPos2: "'kern' Horizontal Kerning lookup 15-2" uniFEE3 dx=-178 dy=0 dh=-178 dv=0 dx=0 dy=0 dh=0 dv=0
PairPos2: "'kern' Horizontal Kerning lookup 15-2" uni0645 dx=-178 dy=0 dh=-178 dv=0 dx=0 dy=0 dh=0 dv=0
PairPos2: "'kern' Horizontal Kerning lookup 15-2" uniFEFB dx=-143 dy=0 dh=-143 dv=0 dx=0 dy=0 dh=0 dv=0
PairPos2: "'kern' Horizontal Kerning lookup 15-2" uniFEDF dx=-143 dy=0 dh=-143 dv=0 dx=0 dy=0 dh=0 dv=0
PairPos2: "'kern' Horizontal Kerning lookup 15-2" uni0644 dx=-60 dy=0 dh=-60 dv=0 dx=0 dy=0 dh=0 dv=0
PairPos2: "'kern' Horizontal Kerning lookup 15-2" uniFEDB dx=-226 dy=0 dh=-226 dv=0 dx=0 dy=0 dh=0 dv=0
PairPos2: "'kern' Horizontal Kerning lookup 15-2" uni0643 dx=-143 dy=0 dh=-143 dv=0 dx=0 dy=0 dh=0 dv=0
PairPos2: "'kern' Horizontal Kerning lookup 15-2" uniFED7 dx=-178 dy=0 dh=-178 dv=0 dx=0 dy=0 dh=0 dv=0
PairPos2: "'kern' Horizontal Kerning lookup 15-2" uni0642 dx=-60 dy=0 dh=-60 dv=0 dx=0 dy=0 dh=0 dv=0
PairPos2: "'kern' Horizontal Kerning lookup 15-2" uniFED3 dx=-178 dy=0 dh=-178 dv=0 dx=0 dy=0 dh=0 dv=0
PairPos2: "'kern' Horizontal Kerning lookup 15-2" uni0641 dx=-178 dy=0 dh=-178 dv=0 dx=0 dy=0 dh=0 dv=0
PairPos2: "'kern' Horizontal Kerning lookup 15-2" uniFECF dx=-178 dy=0 dh=-178 dv=0 dx=0 dy=0 dh=0 dv=0
PairPos2: "'kern' Horizontal Kerning lookup 15-2" uniFECB dx=-178 dy=0 dh=-178 dv=0 dx=0 dy=0 dh=0 dv=0
PairPos2: "'kern' Horizontal Kerning lookup 15-2" uniFEC7 dx=-178 dy=0 dh=-178 dv=0 dx=0 dy=0 dh=0 dv=0
PairPos2: "'kern' Horizontal Kerning lookup 15-2" uni0638 dx=-178 dy=0 dh=-178 dv=0 dx=0 dy=0 dh=0 dv=0
PairPos2: "'kern' Horizontal Kerning lookup 15-2" uniFEC3 dx=-178 dy=0 dh=-178 dv=0 dx=0 dy=0 dh=0 dv=0
PairPos2: "'kern' Horizontal Kerning lookup 15-2" uni0637 dx=-178 dy=0 dh=-178 dv=0 dx=0 dy=0 dh=0 dv=0
PairPos2: "'kern' Horizontal Kerning lookup 15-2" uniFEBF dx=-178 dy=0 dh=-178 dv=0 dx=0 dy=0 dh=0 dv=0
PairPos2: "'kern' Horizontal Kerning lookup 15-2" uni0636 dx=-178 dy=0 dh=-178 dv=0 dx=0 dy=0 dh=0 dv=0
PairPos2: "'kern' Horizontal Kerning lookup 15-2" uniFEBB dx=-178 dy=0 dh=-178 dv=0 dx=0 dy=0 dh=0 dv=0
PairPos2: "'kern' Horizontal Kerning lookup 15-2" uni0635 dx=-178 dy=0 dh=-178 dv=0 dx=0 dy=0 dh=0 dv=0
PairPos2: "'kern' Horizontal Kerning lookup 15-2" uniFEB7 dx=-178 dy=0 dh=-178 dv=0 dx=0 dy=0 dh=0 dv=0
PairPos2: "'kern' Horizontal Kerning lookup 15-2" uni0634 dx=-178 dy=0 dh=-178 dv=0 dx=0 dy=0 dh=0 dv=0
PairPos2: "'kern' Horizontal Kerning lookup 15-2" uniFEB3 dx=-178 dy=0 dh=-178 dv=0 dx=0 dy=0 dh=0 dv=0
PairPos2: "'kern' Horizontal Kerning lookup 15-2" uni0633 dx=-178 dy=0 dh=-178 dv=0 dx=0 dy=0 dh=0 dv=0
PairPos2: "'kern' Horizontal Kerning lookup 15-2" uni0630 dx=-178 dy=0 dh=-178 dv=0 dx=0 dy=0 dh=0 dv=0
PairPos2: "'kern' Horizontal Kerning lookup 15-2" uni062F dx=-178 dy=0 dh=-178 dv=0 dx=0 dy=0 dh=0 dv=0
PairPos2: "'kern' Horizontal Kerning lookup 15-2" uniFEA7 dx=-178 dy=0 dh=-178 dv=0 dx=0 dy=0 dh=0 dv=0
PairPos2: "'kern' Horizontal Kerning lookup 15-2" uniFEA3 dx=-178 dy=0 dh=-178 dv=0 dx=0 dy=0 dh=0 dv=0
PairPos2: "'kern' Horizontal Kerning lookup 15-2" uniFE9F dx=-178 dy=0 dh=-178 dv=0 dx=0 dy=0 dh=0 dv=0
PairPos2: "'kern' Horizontal Kerning lookup 15-2" uniFE9B dx=-178 dy=0 dh=-178 dv=0 dx=0 dy=0 dh=0 dv=0
PairPos2: "'kern' Horizontal Kerning lookup 15-2" uni062B dx=-178 dy=0 dh=-178 dv=0 dx=0 dy=0 dh=0 dv=0
PairPos2: "'kern' Horizontal Kerning lookup 15-2" uniFE97 dx=-178 dy=0 dh=-178 dv=0 dx=0 dy=0 dh=0 dv=0
PairPos2: "'kern' Horizontal Kerning lookup 15-2" uni062A dx=-178 dy=0 dh=-178 dv=0 dx=0 dy=0 dh=0 dv=0
PairPos2: "'kern' Horizontal Kerning lookup 15-2" uni0629 dx=-178 dy=0 dh=-178 dv=0 dx=0 dy=0 dh=0 dv=0
PairPos2: "'kern' Horizontal Kerning lookup 15-2" uni0628 dx=-178 dy=0 dh=-178 dv=0 dx=0 dy=0 dh=0 dv=0
PairPos2: "'kern' Horizontal Kerning lookup 15-2" uni0627 dx=-143 dy=0 dh=-143 dv=0 dx=0 dy=0 dh=0 dv=0
PairPos2: "'kern' Horizontal Kerning lookup 15-2" uni0623 dx=-143 dy=0 dh=-143 dv=0 dx=0 dy=0 dh=0 dv=0
PairPos2: "'kern' Horizontal Kerning lookup 15-2" uni0622 dx=-143 dy=0 dh=-143 dv=0 dx=0 dy=0 dh=0 dv=0
PairPos2: "'kern' Horizontal Kerning lookup 15-2" uni0621 dx=-178 dy=0 dh=-178 dv=0 dx=0 dy=0 dh=0 dv=0
PairPos2: "'kern' Horizontal Kerning lookup 15-2" uniFB94 dx=-226 dy=0 dh=-226 dv=0 dx=0 dy=0 dh=0 dv=0
PairPos2: "'kern' Horizontal Kerning lookup 15-2" uniFB92 dx=-226 dy=0 dh=-226 dv=0 dx=0 dy=0 dh=0 dv=0
PairPos2: "'kern' Horizontal Kerning lookup 15-2" uni06AF dx=-226 dy=0 dh=-226 dv=0 dx=0 dy=0 dh=0 dv=0
PairPos2: "'kern' Horizontal Kerning lookup 15-2" afii57506 dx=-178 dy=0 dh=-178 dv=0 dx=0 dy=0 dh=0 dv=0
PairPos2: "'kern' Horizontal Kerning lookup 15-2" afii57440 dx=-178 dy=0 dh=-178 dv=0 dx=0 dy=0 dh=0 dv=0
PairPos2: "'kern' Horizontal Kerning lookup 15-2" uniFE8B dx=-178 dy=0 dh=-178 dv=0 dx=0 dy=0 dh=0 dv=0
EndChar

StartChar: uniFEB2
Encoding: 65202 65202 189
GlifName: uniF_E_B_2
Width: 2528
VWidth: 2952
GlyphClass: 2
Flags: W
AnchorPoint: "Anchor-7" 565.902 -799.086 basechar 0
AnchorPoint: "Anchor-10" 1764.53 1378.1 basechar 0
LayerCount: 2
Fore
SplineSet
1501.80664062 -0.0810546875 m 0,0,1
 1368 0 1368 0 1299.91992188 56.0498046875 c 1,2,3
 1257 -472 1257 -472 687.330078125 -471.724609375 c 0,4,5
 101 -472 101 -472 101.752929688 101.043945312 c 0,6,7
 102 262 102 262 163.028320312 440.125 c 1,8,-1
 330.548828125 439.787109375 l 1,9,10
 277 252 277 252 277.268554688 102.860351562 c 0,11,12
 277 -293 277 -293 694.400390625 -293.203125 c 0,13,14
 959 -293 959 -293 1063 -132.341796875 c 0,15,16
 1136 -20 1136 -20 1135.60546875 167.950195312 c 0,17,18
 1136 316 1136 316 1090.44628906 512.08984375 c 1,19,-1
 1263.08789062 512.0859375 l 1,20,-1
 1286.26855469 378.080078125 l 6,21,22
 1320 184 1320 184 1503.50097656 183.9921875 c 16,23,24
 1679.68269614 183.999985955 1679.68269614 183.999985955 1693.81640625 412.627929688 c 2,25,-1
 1703.81640625 574.388671875 l 1,26,-1
 1838.62695312 574.388671875 l 1,27,-1
 1848.62695312 412.563476562 l 2,28,29
 1863 185 1863 185 2026.93359375 184.45703125 c 0,30,31
 2167.41699219 183.998639371 2167.41699219 183.998639371 2167.41699219 409.317382812 c 2,32,-1
 2167.41699219 624.228515625 l 1,33,-1
 2329.36621094 624.228515625 l 1,34,-1
 2329.36621094 410.418945312 l 2,35,36
 2328.99983258 183.896491437 2328.99983258 183.896491437 2518.75488281 183.916992188 c 2,37,-1
 2536.83300781 183.918945312 l 2,38,39
 2556.92285156 183.999689927 2556.92285156 183.999689927 2556.92285156 107.092773438 c 2,40,-1
 2556.92285156 88.2802734375 l 2,41,42
 2557.00007083 -0.0810546875 2557.00007083 -0.0810546875 2536.84179688 -0.0810546875 c 2,43,-1
 2520.51660156 -0.0810546875 l 2,44,45
 2328 -0 2328 -0 2269.94335938 138.918945312 c 1,46,47
 2189 1 2189 1 2030.16210938 0.912109375 c 0,48,49
 1845 1 1845 1 1786.15527344 140.961914062 c 1,50,51
 1685 -0 1685 -0 1501.80664062 -0.0810546875 c 0,0,1
EndSplineSet
EndChar

StartChar: uniFEB3
Encoding: 65203 65203 190
GlifName: uniF_E_B_3
Width: 1655
VWidth: 2952
GlyphClass: 2
Flags: W
AnchorPoint: "Anchor-10" 889.961 1380.67 basechar 0
AnchorPoint: "Anchor-7" 789.534 -236.974 basechar 0
LayerCount: 2
Fore
SplineSet
1224.72558594 0.9931640625 m 0,0,1
 1040 1 1040 1 980.71875 141.04296875 c 1,2,3
 880 0 880 0 696.370117188 0 c 0,4,5
 492 1 492 1 402.125 141.07421875 c 1,6,7
 322 0 322 0 78.849609375 0 c 2,8,-1
 -6.9384765625 0 l 2,9,10
 -84.7783203125 0 -84.7783203125 0 -84.7783203125 88.3134765625 c 2,11,-1
 -84.7783203125 107.186523438 l 2,12,13
 -84.9999971817 183.999023438 -84.9999971817 183.999023438 -6.9384765625 183.999023438 c 2,14,-1
 81.00390625 183.999023438 l 2,15,16
 303.842874986 183.999999312 303.842874986 183.999999312 318.139648438 413.767578125 c 2,17,-1
 328.139648438 574.48046875 l 1,18,-1
 462.870117188 574.469726562 l 1,19,-1
 472.870117188 412.646484375 l 2,20,21
 487 184 487 184 698.064453125 184.073242188 c 0,22,23
 874.241156587 183.999899606 874.241156587 183.999899606 888.379882812 412.708984375 c 2,24,-1
 898.379882812 574.469726562 l 1,25,-1
 1033.19042969 574.469726562 l 1,26,-1
 1043.19042969 412.64453125 l 2,27,28
 1057 185 1057 185 1219.49023438 184.5 c 0,29,30
 1361.98046875 184.000068526 1361.98046875 184.000068526 1361.98046875 409.3984375 c 2,31,-1
 1361.98046875 717.309570312 l 1,32,-1
 1536.9296875 717.309570312 l 1,33,-1
 1536.9296875 410.5 l 2,34,35
 1537 1 1537 1 1224.72558594 0.9931640625 c 0,0,1
EndSplineSet
EndChar

StartChar: uniFEB4
Encoding: 65204 65204 191
GlifName: uniF_E_B_4
Width: 1723
VWidth: 2945
GlyphClass: 2
Flags: W
AnchorPoint: "Anchor-7" 759.534 -236.974 basechar 0
AnchorPoint: "Anchor-10" 839.961 1380.67 basechar 0
LayerCount: 2
Fore
SplineSet
1464.50683594 139 m 1,0,1
 1384 1 1384 1 1224.72558594 0.9931640625 c 0,2,3
 1040 1 1040 1 980.71875 141.04296875 c 1,4,5
 880 0 880 0 696.370117188 0 c 0,6,7
 492 1 492 1 402.125 141.07421875 c 1,8,9
 322 0 322 0 78.849609375 0 c 2,10,-1
 -6.9384765625 0 l 2,11,12
 -84.7783203125 0 -84.7783203125 0 -84.7783203125 88.3134765625 c 2,13,-1
 -84.7783203125 107.186523438 l 2,14,15
 -84.9999971817 183.999023438 -84.9999971817 183.999023438 -6.9384765625 183.999023438 c 6,16,-1
 81.00390625 183.999023438 l 6,17,18
 303.842874986 183.999999312 303.842874986 183.999999312 318.139648438 413.767578125 c 2,19,-1
 328.139648438 574.48046875 l 1,20,-1
 462.870117188 574.469726562 l 1,21,-1
 472.870117188 412.646484375 l 2,22,23
 487 184 487 184 698.064453125 184.073242188 c 4,24,25
 874.241156588 183.999899606 874.241156588 183.999899606 888.379882812 412.708984375 c 2,26,-1
 898.379882812 574.469726562 l 1,27,-1
 1033.19042969 574.469726562 l 1,28,-1
 1043.19042969 412.64453125 l 2,29,30
 1057 185 1057 185 1221.49707031 184.538085938 c 4,31,32
 1361.98046875 184.000074799 1361.98046875 184.000074799 1361.98046875 409.3984375 c 2,33,-1
 1361.98046875 624.309570312 l 1,34,-1
 1523.9296875 624.309570312 l 1,35,-1
 1523.9296875 410.5 l 2,36,37
 1524.00000696 183.977593293 1524.00000696 183.977593293 1713.31835938 183.998046875 c 6,38,-1
 1731.39648438 184 l 6,39,40
 1751.48632812 184 1751.48632812 184 1751.48632812 107.173828125 c 2,41,-1
 1751.48632812 88.361328125 l 2,42,43
 1751 0 1751 0 1731.40527344 0 c 2,44,-1
 1715.08007812 0 l 2,45,46
 1523 0 1523 0 1464.50683594 139 c 1,0,1
EndSplineSet
EndChar

StartChar: uniFEBA
Encoding: 65210 65210 197
GlifName: uniF_E_B_A_
Width: 2606
VWidth: 2952
GlyphClass: 2
Flags: W
AnchorPoint: "Anchor-10" 2084.53 1377.1 basechar 0
AnchorPoint: "Anchor-7" 595.902 -800.086 basechar 0
LayerCount: 2
Fore
SplineSet
1090.44628906 512.08984375 m 1,0,-1
 1263.08789062 512.08984375 l 1,1,-1
 1289.26855469 358.080078125 l 2,2,3
 1316 202 1316 202 1363.78710938 214.107421875 c 1,4,5
 1717 809 1717 809 2089.83105469 810.423828125 c 0,6,7
 2298 811 2298 811 2410.26367188 652.060546875 c 0,8,9
 2477 557 2477 557 2477.06152344 435.608398438 c 0,10,11
 2477 310 2477 310 2394.90722656 197.994140625 c 1,12,13
 2410 184 2410 184 2595.73828125 184 c 2,14,-1
 2614.37109375 184 l 2,15,16
 2634.49316406 184 2634.49316406 184 2634.49316406 107.174804688 c 2,17,-1
 2634.49316406 88.3056640625 l 2,18,19
 2634 0 2634 0 2614.41210938 0 c 2,20,-1
 2590.2265625 0 l 2,21,22
 2350 0 2350 0 2236.97851562 91.7001953125 c 1,23,24
 2075 0 2075 0 1703.15136719 0 c 2,25,-1
 1652.34082031 0 l 2,26,27
 1413 0 1413 0 1299.91992188 56.0498046875 c 1,28,29
 1257 -472 1257 -472 687.330078125 -471.724609375 c 0,30,31
 100 -472 100 -472 101.752929688 101.043945312 c 0,32,33
 102 262 102 262 163.028320312 440.120117188 c 1,34,-1
 330.548828125 440.120117188 l 5,35,36
 277 252 277 252 277.268554688 102.860351562 c 4,37,38
 278 -293 278 -293 694.400390625 -293.203125 c 0,39,40
 959 -293 959 -293 1063 -132.341796875 c 0,41,42
 1136 -20 1136 -20 1135.60546875 167.950195312 c 0,43,44
 1136 316 1136 316 1090.44628906 512.08984375 c 1,0,-1
1554.65625 184.416992188 m 1,45,-1
 1708.75292969 184.416992188 l 2,46,47
 2295 184 2295 184 2292.66894531 431.143554688 c 0,48,49
 2292 496 2292 496 2257.95605469 541 c 0,50,51
 2199 618 2199 618 2092.11816406 618.573242188 c 0,52,53
 1832 618 1832 618 1554.65625 184.416992188 c 1,45,-1
EndSplineSet
EndChar

StartChar: uniFEBB
Encoding: 65211 65211 198
GlifName: uniF_E_B_B_
Width: 1730
VWidth: 2952
GlyphClass: 2
Flags: W
AnchorPoint: "Anchor-10" 1160.91 1376.52 basechar 0
AnchorPoint: "Anchor-7" 699.209 -240.348 basechar 0
LayerCount: 2
Fore
SplineSet
423.190429688 412.64453125 m 2,0,1
 434.420788109 230.909036768 434.420788109 230.909036768 516.76953125 213.107421875 c 5,2,3
 872 811 872 811 1242.31542969 810.42578125 c 0,4,5
 1453 810 1453 810 1563.24414062 652.0625 c 0,6,7
 1629 557 1629 557 1628.45214844 443.2265625 c 0,8,9
 1628 389 1628 389 1614.48828125 327.893554688 c 0,10,11
 1542 0 1542 0 856.133789062 0 c 2,12,-1
 805.323242188 0 l 2,13,14
 435 0 435 0 348.349609375 145.178710938 c 1,15,16
 242 0 242 0 9.984375 0 c 2,17,-1
 -6.9384765625 0 l 2,18,19
 -84.7783203125 0 -84.7783203125 0 -84.7783203125 88.3134765625 c 2,20,-1
 -84.7783203125 107.186523438 l 2,21,22
 -85 184 -85 184 -5.9384765625 184 c 6,23,-1
 10.1103515625 184 l 6,24,25
 254.241162794 184 254.241162794 184 268.379882812 412.708984375 c 2,26,-1
 278.379882812 574.469726562 l 1,27,-1
 413.190429688 574.469726562 l 1,28,-1
 423.190429688 412.64453125 l 2,0,1
707.638671875 184.416992188 m 5,29,-1
 861.735351562 184.416992188 l 6,30,31
 1444 184 1444 184 1445.65234375 430.596679688 c 0,32,33
 1446 495 1446 495 1410.93847656 541 c 0,34,35
 1352 618 1352 618 1245.10058594 618.573242188 c 0,36,37
 986 618 986 618 707.638671875 184.416992188 c 5,29,-1
EndSplineSet
EndChar

StartChar: uniFEBC
Encoding: 65212 65212 199
GlifName: uniF_E_B_C_
Width: 1759
VWidth: 2952
GlyphClass: 2
Flags: W
AnchorPoint: "Anchor-7" 699.209 -240.348 basechar 0
AnchorPoint: "Anchor-10" 1160.91 1376.52 basechar 0
LayerCount: 2
Fore
SplineSet
10.1103515625 184 m 6,0,1
 254.241162794 184 254.241162794 184 268.379882812 412.708984375 c 2,2,-1
 278.379882812 574.469726562 l 1,3,-1
 413.190429688 574.469726562 l 1,4,-1
 423.190429688 412.64453125 l 2,5,6
 434 235 434 235 516.76953125 217.107421875 c 1,7,8
 868 811 868 811 1244.31640625 810.42578125 c 0,9,10
 1451 810 1451 810 1563.24609375 652.060546875 c 0,11,12
 1630 557 1630 557 1630.04394531 435.608398438 c 0,13,14
 1630 310 1630 310 1547.88964844 198.994140625 c 5,15,16
 1563 185 1563 185 1748.72070312 185 c 6,17,-1
 1767.35351562 185 l 6,18,19
 1787.47558594 185 1787.47558594 185 1787.47558594 107.174804688 c 2,20,21
 1787.47558594 88.3056640625 l 2,22,23
 1787 0 1787 0 1767.39453125 0 c 2,24,-1
 1743.20898438 0 l 2,25,26
 1503 0 1503 0 1389.9609375 91.7001953125 c 1,27,28
 1228 0 1228 0 856.133789062 0 c 2,29,-1
 805.323242188 0 l 2,30,31
 439 0 439 0 348.349609375 145.178710938 c 1,32,33
 242 0 242 0 9.984375 0 c 2,34,-1
 -6.9384765625 0 l 2,35,36
 -84.7783203125 0 -84.7783203125 0 -84.7783203125 88.3134765625 c 2,37,-1
 -84.7783203125 107.186523438 l 2,38,39
 -85 184 -85 184 -6.9384765625 184 c 6,40,-1
 10.1103515625 184 l 6,0,1
707.638671875 184.416992188 m 5,41,-1
 861.735351562 184.416992188 l 6,42,43
 1444 184 1444 184 1445.65234375 430.596679688 c 0,44,45
 1446 495 1446 495 1410.93847656 541 c 0,46,47
 1352 618 1352 618 1245.10058594 618.573242188 c 0,48,49
 986 618 986 618 707.638671875 184.416992188 c 5,41,-1
EndSplineSet
EndChar

StartChar: uniFEC2
Encoding: 65218 65218 205
GlifName: uniF_E_C_2
Width: 1566
VWidth: 2952
GlyphClass: 2
Flags: W
AnchorPoint: "Anchor-7" 641.602 -236.453 basechar 0
AnchorPoint: "Anchor-10" 475.36 1582.58 basechar 0
LayerCount: 2
Fore
SplineSet
515.197265625 184.533203125 m 1,0,-1
 663.836914062 184.533203125 l 2,1,2
 1246 185 1246 185 1247.7421875 429.373046875 c 0,3,4
 1248 472 1248 472 1233.15820312 505.984375 c 0,5,6
 1219 540 1219 540 1189.31640625 566.749023438 c 0,7,8
 1132 619 1132 619 1044.49804688 618.557617188 c 0,9,10
 780.788310136 615.997945254 780.788310136 615.997945254 512.657226562 189.12890625 c 2,11,-1
 509.770507812 184.533203125 l 1,12,-1
 515.197265625 184.533203125 l 1,0,-1
658.232421875 -0.0009765625 m 2,13,-1
 101.302734375 0 l 1,14,-1
 101.302734375 184.221679688 l 1,15,-1
 321.826171875 184.376953125 l 1,16,-1
 323.553710938 184.377929688 l 1,17,-1
 324.419921875 185.873046875 l 2,18,19
 366.186359435 245.699342693 366.186359435 245.699342693 399.215820312 301.155273438 c 2,20,-1
 399.638671875 301.865234375 l 1,21,-1
 399.638671875 302.69140625 l 1,22,-1
 399.638671875 1418.87304688 l 5,23,-1
 568.950195312 1418.87304688 l 5,24,-1
 568.950195312 536.758789062 l 1,25,-1
 568.950195312 528.208984375 l 1,26,-1
 574.291992188 534.884765625 l 2,27,28
 794 810 794 810 1046.31347656 810.420898438 c 0,29,30
 1256 811 1256 811 1369.52832031 651.024414062 c 0,31,32
 1400 608 1400 608 1414.55175781 557.1953125 c 0,33,34
 1430 507 1430 507 1429.67675781 449.413085938 c 0,35,36
 1430.0179083 377.209770616 1430.0179083 377.209770616 1411.49023438 320.201171875 c 0,37,38
 1389 251 1389 251 1353.92285156 198.946289062 c 1,39,40
 1363.69120009 184.458007812 1363.69120009 184.458007812 1554.70800781 184.458007812 c 2,41,-1
 1573.34082031 184.458007812 l 2,42,43
 1593.46289062 183.989215851 1593.46289062 183.989215851 1593.46289062 107.173828125 c 2,44,-1
 1593.46289062 88.3134765625 l 2,45,46
 1592.99999488 -0.0009765625 1592.99999488 -0.0009765625 1573.38183594 -0.0009765625 c 2,47,-1
 1549.19628906 -0.0009765625 l 2,48,49
 1299 -0 1299 -0 1185.94726562 91.6923828125 c 1,50,51
 1013 -0 1013 -0 658.232421875 -0.0009765625 c 2,13,-1
EndSplineSet
EndChar

StartChar: uniFEC3
Encoding: 65219 65219 206
GlifName: uniF_E_C_3
Width: 1370
VWidth: 2952
GlyphClass: 2
Flags: W
AnchorPoint: "Anchor-7" 501.602 -236.453 basechar 0
AnchorPoint: "Anchor-10" 315.36 1582.58 basechar 0
LayerCount: 2
Fore
SplineSet
495.5703125 0 m 2,0,-1
 -6.9384765625 0 l 2,1,2
 -84.7783203125 0 -84.7783203125 0 -84.7783203125 88.3134765625 c 2,3,-1
 -84.7783203125 107.186523438 l 2,4,5
 -84.9994584859 183.8123618 -84.9994584859 183.8123618 -6.943359375 183.993164062 c 2,6,-1
 159.16796875 184.377929688 l 1,7,-1
 160.875976562 184.381835938 l 1,8,-1
 161.745117188 185.8515625 l 2,9,10
 192 237 192 237 236.567382812 301.178710938 c 2,11,-1
 236.9765625 301.879882812 l 1,12,-1
 236.9765625 302.692382812 l 1,13,-1
 236.9765625 1418.87402344 l 5,14,-1
 406.288085938 1418.87402344 l 5,15,-1
 406.288085938 536.759765625 l 1,16,-1
 406.288085938 528.198242188 l 1,17,-1
 411.631835938 534.887695312 l 2,18,19
 631 810 631 810 883.650390625 810.421875 c 0,20,21
 1095 811 1095 811 1206.86035156 651.033203125 c 0,22,23
 1237 608 1237 608 1251.68554688 557.196289062 c 0,24,25
 1267 507 1267 507 1267.01464844 449.4296875 c 0,26,27
 1267 0 1267 0 495.5703125 0 c 2,0,-1
352.53515625 184.534179688 m 1,28,-1
 501.174804688 184.534179688 l 2,29,30
 1085 185 1085 185 1085.08007812 429.388671875 c 0,31,32
 1085 514 1085 514 1026.64648438 566.756835938 c 0,33,34
 998 593 998 593 961.403320312 606.041992188 c 128,-1,35
 925 619 925 619 881.8359375 618.55859375 c 0,36,37
 618.678418036 615.996869539 618.678418036 615.996869539 349.99609375 189.1328125 c 2,38,-1
 347.1015625 184.534179688 l 1,39,-1
 352.53515625 184.534179688 l 1,28,-1
EndSplineSet
EndChar

StartChar: uniFEC4
Encoding: 65220 65220 207
GlifName: uniF_E_C_4
Width: 1404
VWidth: 2952
GlyphClass: 2
Flags: W
AnchorPoint: "Anchor-10" 315.36 1582.58 basechar 0
AnchorPoint: "Anchor-7" 501.602 -236.453 basechar 0
LayerCount: 2
Fore
SplineSet
352.53515625 184.534179688 m 1,0,-1
 501.174804688 184.534179688 l 2,1,2
 1085 185 1085 185 1085.08007812 429.388671875 c 0,3,4
 1085 514 1085 514 1026.64648438 566.756835938 c 0,5,6
 998 593 998 593 961.403320312 606.041992188 c 128,-1,7
 925 619 925 619 881.8359375 618.55859375 c 0,8,9
 618.678418036 615.996869539 618.678418036 615.996869539 349.99609375 189.1328125 c 2,10,-1
 347.1015625 184.534179688 l 1,11,-1
 352.53515625 184.534179688 l 1,0,-1
495.5703125 0 m 2,12,-1
 -6.9384765625 0 l 2,13,14
 -84.7783203125 0 -84.7783203125 0 -84.7783203125 88.3134765625 c 2,15,-1
 -84.7783203125 107.186523438 l 2,16,17
 -84.9994585531 183.812385069 -84.9994585531 183.812385069 -6.943359375 183.993164062 c 2,18,-1
 160.875976562 184.381835938 l 1,19,20
 214.530867375 263.416854036 214.530867375 263.416854036 236.567382812 301.178710938 c 2,21,-1
 236.9765625 301.879882812 l 1,22,-1
 236.9765625 302.692382812 l 1,23,-1
 236.9765625 1418.87402344 l 5,24,-1
 406.288085938 1418.87402344 l 5,25,-1
 406.288085938 536.759765625 l 1,26,-1
 406.288085938 528.198242188 l 1,27,-1
 411.631835938 534.887695312 l 2,28,29
 631 810 631 810 883.650390625 810.421875 c 0,30,31
 1099 811 1099 811 1206.86035156 651.033203125 c 0,32,33
 1267 562 1267 562 1267.01464844 449.422851562 c 0,34,35
 1266.9999594 308.610818083 1266.9999594 308.610818083 1192.52246094 200.764648438 c 2,36,-1
 1191.25390625 198.927734375 l 1,37,-1
 1192.64941406 197.185546875 l 2,38,39
 1202.63969965 184.458984375 1202.63969965 184.458984375 1392.04589844 184.458984375 c 2,40,-1
 1410.67871094 184.458984375 l 2,41,42
 1430.80078125 184.004499631 1430.80078125 184.004499631 1430.80078125 107.174804688 c 2,43,-1
 1430.80078125 88.3271484375 l 2,44,45
 1431 0 1431 0 1410.71972656 0 c 2,46,-1
 1386.53417969 0 l 2,47,48
 1136 0 1136 0 1023.29003906 91.6943359375 c 1,49,50
 840 0 840 0 495.5703125 0 c 2,12,-1
EndSplineSet
EndChar

StartChar: uniFECA
Encoding: 65226 65226 213
GlifName: uniF_E_C_A_
Width: 1128
VWidth: 2952
GlyphClass: 2
Flags: W
AnchorPoint: "Anchor-7" 486.833 -918.619 basechar 0
AnchorPoint: "Anchor-10" 526.833 1380.24 basechar 0
LayerCount: 2
Fore
SplineSet
436 336 m 1,0,1
 195 515 195 515 194.880859375 566.676757812 c 0,2,3
 195 648 195 648 336.684570312 706.70703125 c 0,4,5
 445 752 445 752 575.977539062 751.208007812 c 0,6,7
 730 751 730 751 830.684570312 700.70703125 c 0,8,9
 951 642 951 642 950.895507812 571.676757812 c 0,10,11
 951 521 951 521 684.038085938 312.290039062 c 1,12,13
 820.509990183 184.458984375 820.509990183 184.458984375 1108.421875 184.458984375 c 2,14,-1
 1136.30078125 184.458984375 l 2,15,16
 1156.42285156 183.990147718 1156.42285156 183.990147718 1156.42285156 107.174804688 c 2,17,-1
 1156.42285156 88.3095703125 l 2,18,19
 1156 0 1156 0 1136.34179688 0 c 2,20,-1
 1108.11914062 0 l 2,21,22
 786 0 786 0 553 213 c 1,23,24
 275 59 275 59 274.666015625 -182.051757812 c 0,25,26
 274 -463 274 -463 678.583984375 -463.788085938 c 0,27,28
 846 -464 846 -464 1022.91503906 -391.033203125 c 1,29,-1
 1026 -578 l 5,30,31
 889 -640 889 -640 677.8046875 -639.228515625 c 4,32,33
 105 -636 105 -636 104.403320312 -182.177734375 c 0,34,35
 104 119 104 119 436 336 c 1,0,1
686.7109375 535.612304688 m 0,36,37
 660.684570312 576.70703125 660.684570312 576.70703125 578.184570312 577.20703125 c 128,-1,38
 495.57421875 577.719726562 495.57421875 577.719726562 463.979492188 533.838867188 c 0,39,40
 456.684570312 523.70703125 456.684570312 523.70703125 580.380859375 429.5703125 c 1,41,42
 690.684570312 528.70703125 690.684570312 528.70703125 686.7109375 535.612304688 c 0,36,37
EndSplineSet
EndChar

StartChar: uniFECB
Encoding: 65227 65227 214
GlifName: uniF_E_C_B_
Width: 1038
VWidth: 2952
GlyphClass: 2
Flags: W
AnchorPoint: "Anchor-10" 496.493 1375.05 basechar 0
AnchorPoint: "Anchor-7" 434.511 -235.021 basechar 0
LayerCount: 2
Fore
SplineSet
832.840820312 584.266601562 m 1,0,1
 709 686 709 686 586.54296875 687.30078125 c 0,2,3
 523 688 523 688 471.90625 669.456054688 c 128,-1,4
 421 651 421 651 384.06640625 615.015625 c 0,5,6
 349 580 349 580 330.668945312 537.108398438 c 0,7,8
 313 494 313 494 312.602539062 442.439453125 c 0,9,10
 313 312 313 312 468.905273438 235.798828125 c 0,11,12
 490.68838002 225.152304696 490.68838002 225.152304696 495.38671875 226.29296875 c 2,13,-1
 931.0703125 332.068359375 l 1,14,-1
 931.0703125 148.317382812 l 1,15,16
 442.490610391 -0.154796003272 442.490610391 -0.154796003272 55.4384765625 -0.021484375 c 2,17,-1
 -6.9384765625 0 l 2,18,19
 -84.7783203125 0 -84.7783203125 0 -84.7783203125 88.3134765625 c 2,20,-1
 -84.7783203125 107.186523438 l 2,21,22
 -85.0013209877 184.457730957 -85.0013209877 184.457730957 -6.9453125 184.458984375 c 2,23,-1
 236.314453125 184.462890625 l 1,24,-1
 243.065429688 184.462890625 l 1,25,26
 214 216 214 216 193.862304688 247.3359375 c 0,27,28
 138 332 138 332 138.720703125 451.967773438 c 0,29,30
 140 613 140 613 228.1328125 723.904296875 c 0,31,32
 275 783 275 783 345.700195312 821.130859375 c 0,33,34
 438 871 438 871 561.578125 870.232421875 c 0,35,36
 767 869 767 869 899.883789062 731.323242188 c 1,37,-1
 832.840820312 584.266601562 l 1,0,1
EndSplineSet
EndChar

StartChar: uniFECC
Encoding: 65228 65228 215
GlifName: uniF_E_C_C_
Width: 1051
VWidth: 2952
GlyphClass: 2
Flags: W
AnchorPoint: "Anchor-7" 544.511 -235.021 basechar 0
AnchorPoint: "Anchor-10" 599.107 1352.89 basechar 0
LayerCount: 2
Fore
SplineSet
677.353515625 256.583007812 m 1,0,1
 801.011645145 183.993164062 801.011645145 183.993164062 1034.80175781 183.993164062 c 6,2,-1
 1058.37792969 183.993164062 l 6,3,4
 1078.45703125 184.000159221 1078.45703125 184.000159221 1078.45703125 107.174804688 c 2,5,-1
 1078.45703125 88.3037109375 l 1,6,7
 1077 0 1077 0 1058.37695312 0 c 2,8,-1
 1035.1875 0 l 2,9,10
 762 0 762 0 577.05859375 143.149414062 c 1,11,12
 410 0 410 0 17.048828125 0 c 2,13,-1
 -6.9384765625 0 l 2,14,15
 -84.7783203125 0 -84.7783203125 0 -84.7783203125 88.3134765625 c 2,16,-1
 -84.7783203125 107.186523438 l 2,17,18
 -84.9999802718 183.993164062 -84.9999802718 183.993164062 -6.9384765625 183.993164062 c 6,19,-1
 20.412109375 183.993164062 l 6,20,21
 350 184 350 184 462.299804688 257.163085938 c 1,22,23
 188 457 188 457 188.196289062 510.969726562 c 0,24,25
 188 592 188 592 330 651 c 0,26,27
 438 696 438 696 569.29296875 695.500976562 c 0,28,29
 723 695 723 695 824 645 c 0,30,31
 944 586 944 586 944.2109375 515.969726562 c 0,32,33
 944 465 944 465 677.353515625 256.583007812 c 1,0,1
680.026367188 479.905273438 m 0,34,35
 654 521 654 521 571.5 521.5 c 128,-1,36
 488.889438536 522.013109077 488.889438536 522.013109077 457.294921875 478.131835938 c 0,37,38
 450 468 450 468 573.696289062 373.86328125 c 1,39,40
 684 473 684 473 680.026367188 479.905273438 c 0,34,35
EndSplineSet
EndChar

StartChar: uniFEDA
Encoding: 65242 65242 229
GlifName: uniF_E_D_A_
Width: 2051
VWidth: 2952
GlyphClass: 2
Flags: W
AnchorPoint: "Anchor-10" 943.11 1576.05 basechar 0
AnchorPoint: "Anchor-7" 750.268 -236.468 basechar 0
LayerCount: 2
Fore
SplineSet
726.16015625 742.014648438 m 1,0,1
 820 732 820 732 888.541992188 731.266601562 c 0,2,3
 995 731 995 731 1048.5078125 752.905273438 c 128,-1,4
 1102 775 1102 775 1102.74707031 821.642578125 c 0,5,6
 1103 865 1103 865 1072.24511719 890.521484375 c 0,7,8
 1042 917 1042 917 981.092773438 925.450195312 c 0,9,10
 767 958 767 958 770.930664062 1138.4921875 c 0,11,12
 776 1345 776 1345 1163.61035156 1373.55273438 c 1,13,-1
 1163.61035156 1244.98925781 l 1,14,15
 904 1221 904 1221 904.139648438 1130.4453125 c 0,16,17
 904 1056 904 1056 1042.91601562 1034.75683594 c 0,18,19
 1236 1005 1236 1005 1235.36425781 826.126953125 c 0,20,21
 1235 707 1235 707 1116.39941406 640.239257812 c 0,22,23
 1041.21972656 598.532226562 1041.21972656 598.532226562 906 599.088867188 c 0,24,25
 826.465820312 599.416992188 826.465820312 599.416992188 726.16015625 614.366210938 c 1,26,-1
 726.16015625 742.014648438 l 1,0,1
871.8671875 184.13671875 m 0,27,28
 1036 184 1036 184 1149.71875 194.809570312 c 0,29,30
 1643 242 1643 242 1636.82910156 551.963867188 c 1,31,-1
 1636.82910156 1415.27539062 l 1,32,-1
 1809.70996094 1415.27539062 l 5,33,-1
 1809.70996094 552.920898438 l 2,34,35
 1809.99978042 184.279296875 1809.99978042 184.279296875 2035.68261719 184.279296875 c 2,36,-1
 2058.84570312 184.279296875 l 2,37,38
 2078.95703125 184.000595458 2078.95703125 184.000595458 2078.95703125 111.889648438 c 2,39,-1
 2078.95703125 88.3203125 l 2,40,41
 2079 0 2079 0 2058.875 0 c 2,42,-1
 2027.96875 0 l 2,43,44
 1909 0 1909 0 1821.4765625 56.826171875 c 0,45,46
 1733.85708046 114.093410817 1733.85708046 114.093410817 1697.37207031 227.538085938 c 2,47,-1
 1695.5234375 233.286132812 l 1,48,-1
 1692.05957031 228.33984375 l 2,49,50
 1616 119 1616 119 1432.52148438 58.119140625 c 0,51,52
 1257 0 1257 0 892.133789062 0 c 0,53,-1
 890.911132812 0 l 2,54,55
 105 0 105 0 104.16015625 485.872070312 c 0,56,57
 104 616 104 616 132 709 c 1,58,-1
 312 709 l 1,59,60
 283 607 283 607 283.424804688 504.521484375 c 0,61,62
 285 184 285 184 871.8671875 184.13671875 c 0,27,28
EndSplineSet
EndChar

StartChar: uniFEDB
Encoding: 65243 65243 230
GlifName: uniF_E_D_B_
Width: 1000
VWidth: 2952
GlyphClass: 2
Flags: W
AnchorPoint: "Anchor-7" 350.991 -231.935 basechar 0
LayerCount: 2
Fore
SplineSet
175.612304688 0 m 2,0,-1
 -6.9384765625 0 l 2,1,2
 -84.7783203125 0 -84.7783203125 0 -84.7783203125 88.3134765625 c 2,3,-1
 -84.7783203125 107.186523438 l 2,4,5
 -84.9999814825 183.993583563 -84.9999814825 183.993583563 -6.9384765625 183.993164062 c 6,6,-1
 174.782226562 183.9921875 l 6,7,8
 578 184 578 184 578.724609375 415.118164062 c 0,9,10
 579 501 579 501 498.294921875 582 c 0,11,12
 450 631 450 631 199 825 c 0,13,14
 88 911 88 911 87.9189453125 1004.45703125 c 0,15,16
 88 1067 88 1067 124.77734375 1115.70605469 c 0,17,18
 162.984185988 1164.97960542 162.984185988 1164.97960542 228.114257812 1190.84472656 c 2,19,-1
 941.37109375 1474.10058594 l 1,20,-1
 941.37109375 1279.46191406 l 1,21,-1
 248.57421875 1008.55859375 l 1,22,-1
 590.765625 729.663085938 l 2,23,24
 761 591 761 591 758.217773438 410.357421875 c 0,25,26
 754 0 754 0 175.612304688 0 c 2,0,-1
EndSplineSet
EndChar

StartChar: uniFEDC
Encoding: 65244 65244 231
GlifName: uniF_E_D_C_
Width: 1027
VWidth: 2952
GlyphClass: 2
Flags: W
AnchorPoint: "Anchor-7" 350.991 -231.935 basechar 0
LayerCount: 2
Fore
SplineSet
682 179 m 1,0,1
 553 0 553 0 175.612304688 0 c 2,2,-1
 -6.9384765625 0 l 2,3,4
 -84.7783203125 0 -84.7783203125 0 -84.7783203125 88.3134765625 c 2,5,-1
 -84.7783203125 107.186523438 l 2,6,7
 -84.9999814825 183.993583562 -84.9999814825 183.993583562 -6.9384765625 183.993164062 c 6,8,-1
 174.782226562 183.9921875 l 2,9,10
 578 184 578 184 578.724609375 415.118164062 c 0,11,12
 579 501 579 501 498.294921875 582 c 0,13,14
 450 631 450 631 199 825 c 0,15,16
 88 911 88 911 87.9189453125 1004.45703125 c 0,17,18
 88 1067 88 1067 124.77734375 1115.70605469 c 0,19,20
 162.984185988 1164.97960542 162.984185988 1164.97960542 228.114257812 1190.84472656 c 2,21,-1
 941.37109375 1474.10058594 l 1,22,-1
 941.37109375 1279.46191406 l 1,23,-1
 248.57421875 1008.55859375 l 1,24,-1
 590.765625 729.663085938 l 2,25,26
 752 598 752 598 758.217773438 410.357421875 c 8,27,28
 766.000235021 183.993164062 766.000235021 183.993164062 1017.9140625 183.993164062 c 2,29,-1
 1034.24707031 183.993164062 l 2,30,31
 1054.32421875 184.000112203 1054.32421875 184.000112203 1054.32421875 107.174804688 c 2,32,-1
 1054.32421875 88.3046875 l 2,33,34
 1054 0 1054 0 1034.24609375 0 c 2,35,-1
 1017.80761719 0 l 2,36,37
 768 0 768 0 682 179 c 1,0,1
EndSplineSet
EndChar

StartChar: uniFEDE
Encoding: 65246 65246 233
GlifName: uniF_E_D_E_
Width: 1446
VWidth: 2952
GlyphClass: 2
Flags: W
AnchorPoint: "Anchor-10" 563.908 1191.66 basechar 0
AnchorPoint: "Anchor-7" 565.902 -800.086 basechar 0
LayerCount: 2
Fore
SplineSet
688.229492188 -293.216796875 m 0,0,1
 1054.91483651 -293.00005034 1054.91483651 -293.00005034 1055.60449219 99.8037109375 c 6,2,-1
 1057.91699219 1416.92285156 l 5,3,-1
 1227.88574219 1416.92285156 l 5,4,-1
 1227.30175781 399.185546875 l 6,5,6
 1227.00039166 184.279296875 1227.00039166 184.279296875 1434.70410156 184.279296875 c 6,7,-1
 1454.79785156 184.279296875 l 6,8,9
 1474.90722656 184.001282603 1474.90722656 184.001282603 1474.90722656 111.889648438 c 6,10,-1
 1474.90722656 88.3037109375 l 6,11,12
 1475 0 1475 0 1454.82714844 0 c 6,13,-1
 1430.3515625 0 l 6,14,15
 1295 0 1295 0 1219.98144531 75.3076171875 c 5,16,17
 1219 52 1219 52 1217.859375 29.4931640625 c 4,18,19
 1192 -472 1192 -472 687.330078125 -471.724609375 c 0,20,21
 101 -472 101 -472 101.752929688 101.043945312 c 0,22,23
 102 262 102 262 163.028320312 440.125 c 1,24,-1
 330.548828125 439.787109375 l 1,25,26
 277 252 277 252 277.268554688 102.860351562 c 0,27,28
 277 -293 277 -293 688.229492188 -293.216796875 c 0,0,1
EndSplineSet
EndChar

StartChar: uniFEDF
Encoding: 65247 65247 234
GlifName: uniF_E_D_F_
Width: 635
VWidth: 2952
GlyphClass: 2
Flags: W
AnchorPoint: "Anchor-10" 385.751 1577.45 basechar 0
AnchorPoint: "Anchor-7" 279.812 -236.234 basechar 0
LayerCount: 2
Fore
SplineSet
-6.9384765625 0 m 2,0,1
 -84.7783203125 0 -84.7783203125 0 -84.7783203125 88.3134765625 c 2,2,-1
 -84.7783203125 107.186523438 l 2,3,4
 -84.9999802718 183.993164061 -84.9999802718 183.993164061 -6.9384765625 183.993164062 c 2,5,-1
 61.482421875 183.993164062 l 6,6,7
 312.313476562 184.000008554 312.313476562 184.000008554 312.313476562 438.663085938 c 6,8,-1
 312.313476562 1418.171875 l 5,9,-1
 481.627929688 1418.171875 l 5,10,-1
 481.627929688 432.965820312 l 6,11,12
 482 0 482 0 56.2861328125 0 c 6,13,-1
 -6.9384765625 0 l 2,0,1
EndSplineSet
EndChar

StartChar: uniFEE0
Encoding: 65248 65248 235
GlifName: uniF_E_E_0
Width: 698
VWidth: 2952
GlyphClass: 2
Flags: W
AnchorPoint: "Anchor-7" 269.812 -236.234 basechar 0
AnchorPoint: "Anchor-10" 385.751 1577.45 basechar 0
LayerCount: 2
Fore
SplineSet
72.5927734375 0 m 6,0,-1
 -6.9384765625 0 l 2,1,2
 -84.7783203125 0 -84.7783203125 0 -84.7783203125 88.3134765625 c 2,3,-1
 -84.7783203125 107.186523438 l 2,4,5
 -84.9999802718 183.993164062 -84.9999802718 183.993164062 -6.9384765625 183.993164062 c 2,6,-1
 75.109375 183.993164062 l 6,7,8
 311.081054688 184.000002349 311.081054688 184.000002349 311.081054688 395.180664062 c 6,9,-1
 311.081054688 1418.07617188 l 5,10,-1
 479.739257812 1418.07617188 l 5,11,-1
 479.739257812 395.1953125 l 6,12,13
 480.00000844 183.993164062 480.00000844 183.993164062 685.545898438 183.993164062 c 6,14,-1
 702.994140625 183.993164062 l 6,15,16
 726.80078125 183.99994327 726.80078125 183.99994327 726.80078125 107.174804688 c 6,17,-1
 726.80078125 88.298828125 l 6,18,19
 727 0 727 0 702.993164062 0 c 6,20,-1
 688.065429688 0 l 6,21,22
 483 0 483 0 382.25390625 141.560546875 c 5,23,24
 285 0 285 0 72.5927734375 0 c 6,0,-1
EndSplineSet
EndChar

StartChar: uniFEE2
Encoding: 65250 65250 237
GlifName: uniF_E_E_2
Width: 1306
VWidth: 2622
GlyphClass: 2
Flags: W
AnchorPoint: "Anchor-10" 697.239 1374.48 basechar 0
AnchorPoint: "Anchor-7" 724.983 -306.909 basechar 0
LayerCount: 2
Fore
SplineSet
800.723632812 150.75 m 0,0,1
 901 151 901 151 940 221.044921875 c 0,2,3
 957.219726562 251.58984375 957.219726562 251.58984375 957.864257812 289 c 0,4,5
 958.690429688 336.932617188 958.690429688 336.932617188 939.724609375 383 c 0,6,7
 907.21875 461.958007812 907.21875 461.958007812 851 495.620117188 c 0,8,9
 811.836914062 519.069335938 811.836914062 519.069335938 760.614257812 519.158203125 c 0,10,11
 597.599609375 518.90625 597.599609375 518.90625 569.541015625 302.028320312 c 1,12,13
 671 151 671 151 800.723632812 150.75 c 0,0,1
1084.87304688 112 m 1,14,15
 1071 86 1071 86 1052.41796875 64.3955078125 c 0,16,17
 975 -27 975 -27 815.204101562 -27.2431640625 c 0,18,19
 657 -27 657 -27 553 67.9232483932 c 0,20,21
 530 89 530 89 507 110 c 0,22,23
 477 138 477 138 428.370117188 137.747070312 c 0,24,25
 279 136 279 136 279.751953125 -328 c 0,26,27
 280 -524 280 -524 293.813476562 -684.813476562 c 1,28,-1
 110.231445312 -684.813476562 l 1,29,30
 98 -495 98 -495 99.0615234375 -324 c 0,31,32
 102 9 102 9 178 159 c 0,33,34
 258 316 258 316 397.721679688 340 c 1,35,36
 431 489 431 489 495 572.666992188 c 0,37,38
 595 703 595 703 757.327148438 703.532226562 c 0,39,40
 926 704 926 704 1032.42578125 570.094726562 c 0,41,42
 1100 485 1100 485 1118.12207031 375 c 24,43,44
 1148.00015276 183.999023438 1148.00015276 183.999023438 1298.39648438 183.999023438 c 6,45,-1
 1313.78417969 183.999023438 l 6,46,47
 1333.86816406 183.999993631 1333.86816406 183.999993631 1333.86816406 107.174804688 c 2,48,-1
 1333.86816406 88.31640625 l 2,49,50
 1334 0 1334 0 1313.78808594 0 c 2,51,-1
 1298.09472656 0 l 2,52,53
 1157 0 1157 0 1084.87304688 112 c 1,14,15
EndSplineSet
EndChar

StartChar: uniFEE3
Encoding: 65251 65251 238
GlifName: uniF_E_E_3
Width: 1050
VWidth: 2952
GlyphClass: 2
Flags: W
AnchorPoint: "Anchor-10" 549.952 1380.2 basechar 0
AnchorPoint: "Anchor-7" 504.594 -235.063 basechar 0
LayerCount: 2
Fore
SplineSet
610.723632812 160.75 m 0,0,1
 711 161 711 161 750 231.044732756 c 0,2,3
 767.219372301 261.589861842 767.219372301 261.589861842 767.864297782 299 c 0,4,5
 768.690620404 346.932426863 768.690620404 346.932426863 749.724977388 393 c 0,6,7
 717.218557988 471.958137718 717.218557988 471.958137718 661 505.61999559 c 0,8,9
 621.837012366 529.069528463 621.837012366 529.069528463 570.614257812 529.158203125 c 0,10,11
 407.599752439 528.906315171 407.599752439 528.906315171 379.541015625 312.028320312 c 1,12,13
 481 161 481 161 610.723632812 160.75 c 0,0,1
293.192382812 142.71484375 m 1,14,15
 200 0 200 0 12.720703125 0 c 2,16,-1
 -8.1171875 0 l 2,17,18
 -84.7783203125 0 -84.7783203125 0 -84.7783203125 88.3134765625 c 2,19,-1
 -84.7783203125 107.192382812 l 2,20,21
 -84.9999802703 183.993164062 -84.9999802703 183.993164062 -8.1171875 183.993164062 c 6,22,-1
 8.3251953125 183.993164062 l 6,23,24
 171 184 171 184 207.721683705 350 c 0,25,26
 241 499 241 499 305 582.666992188 c 0,27,28
 403 713 403 713 567.327148438 713.532226562 c 0,29,30
 736 714 736 714 842.42578125 580.094726562 c 0,31,32
 935 464 935 464 934.474609375 301.60546875 c 0,33,34
 934 158 934 158 862.41796875 74.3955078125 c 0,35,36
 785 -17 785 -17 625.204101562 -17.2431640625 c 0,37,38
 436 -17 436 -17 293.192382812 142.71484375 c 1,14,15
EndSplineSet
EndChar

StartChar: uniFEE4
Encoding: 65252 65252 239
GlifName: uniF_E_E_4
Width: 1102
VWidth: 2952
GlyphClass: 2
Flags: W
AnchorPoint: "Anchor-7" 524.594 -235.063 basechar 0
AnchorPoint: "Anchor-10" 569.952 1380.2 basechar 0
LayerCount: 2
Fore
SplineSet
610.723632812 160.75 m 0,0,1
 711 161 711 161 750 231.044732756 c 0,2,3
 767.219372301 261.589861842 767.219372301 261.589861842 767.864297782 299 c 0,4,5
 768.690620404 346.932426863 768.690620404 346.932426863 749.724977388 393 c 0,6,7
 717.218557988 471.958137718 717.218557988 471.958137718 661 505.61999559 c 0,8,9
 621.837012366 529.069528463 621.837012366 529.069528463 570.614257812 529.158203125 c 0,10,11
 407.599752439 528.906315171 407.599752439 528.906315171 379.541015625 312.028320312 c 1,12,13
 481 161 481 161 610.723632812 160.75 c 0,0,1
888.662109375 111 m 1,14,15
 885 101 885 101 862.41796875 74.3955078125 c 0,16,17
 785 -17 785 -17 625.204101562 -17.2431640625 c 0,18,19
 436 -17 436 -17 293.192382812 142.71484375 c 1,20,21
 200 0 200 0 12.720703125 0 c 2,22,-1
 -8.1171875 0 l 2,23,24
 -84.7783203125 0 -84.7783203125 0 -84.7783203125 88.3134765625 c 2,25,-1
 -84.7783203125 107.192382812 l 2,26,27
 -84.9999802703 183.993164062 -84.9999802703 183.993164062 -8.1171875 183.993164062 c 2,28,-1
 8.3251953125 183.993164062 l 2,29,30
 171 184 171 184 207.721683705 350 c 0,31,32
 241 499 241 499 305 582.666992188 c 0,33,34
 405 713 405 713 567.327148438 713.532226562 c 0,35,36
 736 714 736 714 842.42578125 580.094726562 c 0,37,38
 911 495 911 495 928.283203125 384 c 24,39,40
 959.000149984 183.999023438 959.000149984 183.999023438 1094.79492188 183.999023438 c 6,41,-1
 1110.18261719 183.999023438 l 6,42,43
 1130.26757812 184.000013186 1130.26757812 184.000013186 1130.26757812 107.174804688 c 2,44,-1
 1130.26757812 88.328125 l 2,45,46
 1130 0 1130 0 1110.18652344 0 c 2,47,-1
 1094.49414062 0 l 2,48,49
 961 0 961 0 888.662109375 111 c 1,14,15
EndSplineSet
EndChar

StartChar: uniFEEA
Encoding: 65258 65258 245
GlifName: uniF_E_E_A_
Width: 973
VWidth: 2952
GlyphClass: 2
Flags: W
AnchorPoint: "Anchor-10" 684.464 1371.36 basechar 0
AnchorPoint: "Anchor-7" 474.642 -234.09 basechar 0
LayerCount: 2
Fore
SplineSet
981.720703125 184.029296875 m 6,0,1
 1001.80859375 184.086435087 1001.80859375 184.086435087 1001.80859375 111.889648438 c 6,2,-1
 1001.80859375 88.2998046875 l 6,3,4
 1002 0 1002 0 981.727539062 0 c 6,5,-1
 962.4609375 0 l 6,6,7
 685.5208853 -3.97903932026e-13 685.5208853 -3.97903932026e-13 640.694335938 348 c 2,8,-1
 620.362304688 505.842773438 l 0,9,10
 603 628 603 628 526.9375 628.033203125 c 0,11,12
 484 628 484 628 423.294921875 591 c 0,13,14
 277 502 277 502 275.614257812 361.591796875 c 0,15,16
 275 221 275 221 437 204.71875 c 0,17,18
 506 198 506 198 597.04296875 196.973632812 c 1,19,-1
 591 21 l 1,20,21
 410 21 410 21 293.887695312 67 c 0,22,23
 101 145 101 145 101.338867188 357.900390625 c 0,24,25
 101 562 101 562 287.12109375 709 c 0,26,27
 421 815 421 815 543.9765625 815.126953125 c 0,28,29
 676 815 676 815 727 741.60546875 c 0,30,31
 771 680 771 680 784.776367188 554 c 0,32,33
 807 363 807 363 813.63671875 336.928710938 c 0,34,35
 855.089498389 183.669105717 855.089498389 183.669105717 971.420898438 184 c 6,36,-1
 981.720703125 184.029296875 l 6,0,1
EndSplineSet
EndChar

StartChar: uniFEEB
Encoding: 65259 65259 246
GlifName: uniF_E_E_B_
Width: 1395
VWidth: 2952
GlyphClass: 2
Flags: W
AnchorPoint: "Anchor-10" 617.134 1376.79 basechar 0
AnchorPoint: "Anchor-7" 530.852 -237.953 basechar 0
LayerCount: 2
Fore
SplineSet
95.4453125 0 m 2,0,-1
 -6.9384765625 0 l 2,1,2
 -84.7783203125 0 -84.7783203125 0 -84.7783203125 88.3134765625 c 2,3,-1
 -84.7783203125 107.186523438 l 2,4,5
 -84.9999802718 183.993164062 -84.9999802718 183.993164062 -6.9384765625 183.993164062 c 6,6,-1
 258 183.993164062 l 4,7,-1
 307.547851562 183.993164062 l 5,8,9
 266 213 266 213 240.334960938 243.45703125 c 4,10,11
 160 336 160 336 160.629882812 459.639648438 c 0,12,13
 161 580 161 580 249.045898438 681.1328125 c 0,14,15
 353 802 353 802 515.150390625 802.310546875 c 0,16,17
 670 802 670 802 781.11328125 697.374023438 c 0,18,19
 868 616 868 616 868.993164062 504.8203125 c 0,20,21
 869 316 869 316 691.041992188 206.763671875 c 1,22,23
 852 184 852 184 919.43359375 183.66015625 c 0,24,25
 987 184 987 184 1023.67382812 198.219726562 c 0,26,27
 1114 233 1114 233 1113.69726562 355.637695312 c 0,28,29
 1114 453 1114 453 1012.95117188 568.756835938 c 0,30,31
 838 772 838 772 615 860 c 1,32,-1
 682 1027 l 1,33,34
 1298 691 1298 691 1293.43513144 355 c 0,35,36
 1291 207 1291 207 1202.50683594 109.940429688 c 0,37,38
 1105 1 1105 1 888.586914062 0.529296875 c 0,39,40
 743 -0 743 -0 515.903320312 72.001953125 c 1,41,42
 273 0 273 0 95.4453125 0 c 2,0,-1
620.763671875 332.3828125 m 0,43,44
 701 405 701 405 699.611328125 492.108398438 c 0,45,46
 699 541 699 541 662.737304688 581.02734375 c 0,47,48
 609 640 609 640 523.657226562 640.331054688 c 0,49,50
 424 640 424 640 369.583984375 553.057617188 c 0,51,52
 343 511 343 511 342.1875 455.844726562 c 0,53,54
 342 376 342 376 406.4140625 318.735351562 c 0,55,56
 433.534158096 294.439034157 433.534158096 294.439034157 467 278.624859429 c 0,57,58
 490.652841904 267.447785929 490.652841904 267.447785929 517.475585938 260.5078125 c 1,59,60
 531.914387687 267.13950335 531.914387687 267.13950335 547 276.273705767 c 0,61,62
 582.12822357 297.543528826 582.12822357 297.543528826 620.763671875 332.3828125 c 0,43,44
EndSplineSet
EndChar

StartChar: uniFEEC
Encoding: 65260 65260 247
GlifName: uniF_E_E_C_
Width: 1022
VWidth: 2952
GlyphClass: 2
Flags: W
AnchorPoint: "Anchor-7" 491.16 -793.603 basechar 0
AnchorPoint: "Anchor-10" 500.648 1375.04 basechar 0
LayerCount: 2
Fore
SplineSet
615 -286 m 1,0,1
 644.999937666 183.999023438 644.999937666 183.999023438 1007.90429688 183.999023438 c 2,2,-1
 1029.85253906 183.999023438 l 2,3,4
 1049.93457031 183.999996829 1049.93457031 183.999996829 1049.93457031 107.174804688 c 2,5,-1
 1049.93457031 88.3349609375 l 2,6,7
 1050 0 1050 0 1029.85546875 0 c 2,8,-1
 1005.52539062 0 l 2,9,10
 736.42961238 -9.09494701773e-13 736.42961238 -9.09494701773e-13 755.813476562 -407 c 2,11,12
 758.909179688 -472 l 1,13,14
 348 -472 348 -472 234.737304688 0 c 1,15,-1
 -6.9384765625 0 l 2,16,17
 -84.7783203125 0 -84.7783203125 0 -84.7783203125 88.3134765625 c 2,18,-1
 -84.7783203125 107.186523438 l 2,19,20
 -84.9999971817 183.999023438 -84.9999971817 183.999023438 -6.919921875 183.999023438 c 2,21,-1
 221.975585938 183.999023438 l 1,22,23
 226 812 226 812 558.5 812 c 4,24,25
 680 812 680 812 746.5 732 c 128,-1,26
 813 652 813 652 811.58984375 497.955078125 c 0,27,28
 809 284 809 284 664 136 c 0,29,30
 555 24 555 24 397.930664062 -1.2685546875 c 1,31,32
 442 -192 442 -192 615 -286 c 1,0,1
388.877929688 182.854492188 m 1,33,34
 649 219 649 219 649.1796875 503.799804688 c 0,35,36
 649 637 649 637 539.557617188 637.194335938 c 0,37,38
 390 637 390 637 388.877929688 182.854492188 c 1,33,34
EndSplineSet
EndChar

StartChar: uniFEEE
Encoding: 65262 65262 249
GlifName: uniF_E_E_E_
Width: 833
VWidth: 2144
GlyphClass: 2
Flags: W
AnchorPoint: "Anchor-7" 364.969 -769.998 basechar 0
AnchorPoint: "Anchor-10" 459.256 1370.2 basechar 0
LayerCount: 2
Fore
SplineSet
590.629882812 184.602539062 m 1,0,1
 568 535 568 535 397.405273438 535.124023438 c 0,2,3
 325 535 325 535 284 480.53515625 c 0,4,5
 245 427 245 427 245.159179688 356.5625 c 0,6,7
 245 190 245 190 508.954101562 185.36328125 c 0,8,-1
 590.629882812 184.602539062 l 1,0,1
764 184 m 5,9,10
 840.961914062 183.999023438 l 2,11,12
 861.025390625 184.000001237 861.025390625 184.000001237 861.025390625 97.64453125 c 2,13,-1
 861.025390625 88.208984375 l 2,14,15
 861 0 861 0 840.98828125 0 c 2,16,-1
 757 0 l 1,17,18
 685 -466 685 -466 67 -472.319335938 c 1,19,-1
 66.869140625 -299.87890625 l 1,20,21
 501 -299 501 -299 588.099609375 0 c 1,22,-1
 518.180664062 0.8115234375 l 0,23,24
 78 1 78 1 78.0048828125 344.353515625 c 0,25,26
 78 499 78 499 165 608.883789062 c 0,27,28
 253 719 253 719 409.10546875 719.077148438 c 0,29,30
 700 719 700 719 755.60546875 305 c 0,31,32
 764 242 764 242 764 184 c 5,9,10
EndSplineSet
EndChar

StartChar: uniFEF0
Encoding: 65264 65264 251
GlifName: uniF_E_F_0
Width: 1443
VWidth: 2952
GlyphClass: 2
Flags: W
AnchorPoint: "Anchor-7" 545.902 -800.086 basechar 0
AnchorPoint: "Anchor-10" 667.6 1368.22 basechar 0
LayerCount: 2
Fore
SplineSet
722.400390625 -293.203125 m 0,0,1
 1052 -292 1052 -292 1144.91992188 -152.026367188 c 0,2,3
 1168 -117 1168 -117 1167.83691406 -84.654296875 c 0,4,5
 1168.00082983 0.430748862071 1168.00082983 0.430748862071 1036.36816406 0.7275390625 c 2,6,-1
 943.24609375 0.9375 l 1,7,8
 885 7 885 7 863.953125 94.537109375 c 0,9,10
 854 137 854 137 853.69140625 156.90625 c 0,11,12
 854 180 854 180 864.831054688 183.999023438 c 1,13,-1
 1449.43554688 183.999023438 l 2,14,15
 1469.51953125 183.999977184 1469.51953125 183.999977184 1469.51953125 107.174804688 c 2,16,-1
 1469.51953125 88.330078125 l 2,17,18
 1470 0 1470 0 1449.45605469 0 c 2,19,-1
 1327 0 l 0,20,-1
 1302.45410156 0 l 1,21,22
 1337 -27 1337 -27 1335 -117 c 0,23,24
 1334 -152 1334 -152 1314.79492188 -203.883789062 c 0,25,26
 1273 -316 1273 -316 1135 -389 c 0,27,28
 981 -471 981 -471 715.330078125 -471.724609375 c 0,29,30
 109 -473 109 -473 109.752929688 101.043945312 c 0,31,32
 110 221 110 221 161.028320312 370.125 c 1,33,-1
 328.548828125 369.787109375 l 5,34,35
 285 217 285 217 285.268554688 102.860351562 c 0,36,37
 285 -294 285 -294 722.400390625 -293.203125 c 0,0,1
EndSplineSet
EndChar

StartChar: uniFEFB
Encoding: 65275 65275 262
GlifName: uniF_E_F_B_
Width: 1219
VWidth: 2952
GlyphClass: 3
Flags: W
AnchorPoint: "Anchor-9" 218.642 1519.64 baselig 1
AnchorPoint: "Anchor-6" 288.021 -242.333 baselig 1
AnchorPoint: "Anchor-6" 925.078 -238.55 baselig 0
AnchorPoint: "Anchor-9" 978.01 1583.61 baselig 0
LayerCount: 2
Fore
SplineSet
260.213867188 1357.9921875 m 5,0,1
 540 680 540 680 662.92578125 223.0625 c 1,2,3
 897.060700793 299.019692329 897.060700793 299.019692329 897.17578125 639.9765625 c 2,4,-1
 897.438476562 1418.28222656 l 5,5,-1
 1066.47070312 1418.28222656 l 5,6,-1
 1066.47070312 638.663085938 l 2,7,8
 1066 3 1066 3 396.33984375 3.1279296875 c 0,9,10
 258 3 258 3 173.040039062 18.6806640625 c 1,11,-1
 173.041992188 199.889648438 l 1,12,13
 341 178 341 178 494.444335938 188.280273438 c 1,14,15
 349 691 349 691 99.4189453125 1263.69726562 c 5,16,-1
 260.213867188 1357.9921875 l 5,0,1
EndSplineSet
LCarets2: 1 0
Ligature2: "'rlig' Required Ligatures in Arabic lookup 16 subtable" uniFEDF uniFE8E
EndChar

StartChar: uniFEFC
Encoding: 65276 65276 263
GlifName: uniF_E_F_C_
Width: 1293
VWidth: 2952
GlyphClass: 3
Flags: W
AnchorPoint: "Anchor-9" 978.01 1583.61 baselig 0
AnchorPoint: "Anchor-9" 218.642 1519.64 baselig 1
AnchorPoint: "Anchor-6" 925.078 -238.55 baselig 0
AnchorPoint: "Anchor-6" 288.021 -242.333 baselig 1
LayerCount: 2
Fore
SplineSet
662.92578125 223.0625 m 1,0,1
 897.060700793 299.019692329 897.060700793 299.019692329 897.17578125 639.9765625 c 2,2,-1
 897.438476562 1418.28222656 l 5,3,-1
 1066.47070312 1418.28222656 l 5,4,-1
 1066.47070312 548.663085938 l 2,5,6
 1065.99999874 183.999023438 1065.99999874 183.999023438 1276.61425781 183.999023438 c 2,7,-1
 1302.09667969 183.999023438 l 2,8,9
 1322.1796875 184.000008816 1322.1796875 184.000008816 1322.1796875 107.174804688 c 2,10,-1
 1322.1796875 88.3232421875 l 2,11,12
 1322 0 1322 0 1302.09960938 0 c 2,13,-1
 1273.0859375 0 l 2,14,15
 1020 0 1020 0 955 226.224609375 c 1,16,17
 793 3 793 3 396.33984375 3.1279296875 c 0,18,19
 258 3 258 3 173.040039062 18.6806640625 c 1,20,-1
 173.041992188 199.889648438 l 1,21,22
 341 178 341 178 494.444335938 188.280273438 c 1,23,24
 349 691 349 691 99.4189453125 1263.69726562 c 5,25,-1
 260.213867188 1357.9921875 l 5,26,27
 540 680 540 680 662.92578125 223.0625 c 1,0,1
EndSplineSet
LCarets2: 1 0
Ligature2: "'rlig' Required Ligatures in Arabic lookup 16 subtable" uniFEE0 uniFE8E
EndChar

StartChar: arabic_dot
Encoding: 65536 -1 264
GlifName: arabic_dot
Width: 193
VWidth: 2646
GlyphClass: 2
Flags: W
LayerCount: 2
Fore
SplineSet
-32.7626953125 102.962890625 m 1,0,-1
 96.12109375 231.84765625 l 1,1,-1
 225.762695312 102.206054688 l 1,2,-1
 96.87890625 -26.6787109375 l 1,3,-1
 -32.7626953125 102.962890625 l 1,0,-1
EndSplineSet
EndChar

StartChar: arabic_2dots
Encoding: 65537 -1 265
GlifName: arabic_2dots
Width: 494
VWidth: 2646
GlyphClass: 2
Flags: W
LayerCount: 2
Fore
SplineSet
259.646484375 102.962890625 m 5,0,-1
 388.530273438 231.84765625 l 5,1,-1
 518.171875 102.206054688 l 5,2,-1
 389.287109375 -26.6787109375 l 5,3,-1
 259.646484375 102.962890625 l 5,0,-1
-24.171875 102.962890625 m 5,4,-1
 104.711914062 231.84765625 l 5,5,-1
 234.353515625 102.206054688 l 5,6,-1
 105.469726562 -26.6787109375 l 5,7,-1
 -24.171875 102.962890625 l 5,4,-1
EndSplineSet
EndChar

StartChar: arabic_3dots
Encoding: 65538 -1 266
GlifName: arabic_3dots
Width: 494
VWidth: 2646
GlyphClass: 2
Flags: W
LayerCount: 2
Fore
SplineSet
120.91796875 314.940429688 m 5,0,-1
 246.62109375 440.645507812 l 5,1,-1
 373.08203125 314.182617188 l 5,2,-1
 247.37890625 188.48046875 l 5,3,-1
 120.91796875 314.940429688 l 5,0,-1
262.827148438 83.8486328125 m 1,4,-1
 388.530273438 209.551757812 l 1,5,-1
 514.9921875 83.091796875 l 1,6,-1
 389.287109375 -42.611328125 l 1,7,-1
 262.827148438 83.8486328125 l 1,4,-1
-20.9921875 83.8486328125 m 1,8,-1
 104.711914062 209.551757812 l 1,9,-1
 231.173828125 83.091796875 l 1,10,-1
 105.469726562 -42.611328125 l 1,11,-1
 -20.9921875 83.8486328125 l 1,8,-1
EndSplineSet
EndChar

StartChar: arabic_3dots_a
Encoding: 65539 -1 267
GlifName: arabic_3dots_a
Width: 494
VWidth: 2646
GlyphClass: 2
Flags: W
LayerCount: 2
Fore
SplineSet
120.91796875 -114.268554688 m 5,0,-1
 247.37890625 12.19140625 l 5,1,-1
 373.08203125 -113.51171875 l 5,2,-1
 246.62109375 -239.973632812 l 5,3,-1
 120.91796875 -114.268554688 l 5,0,-1
262.827148438 116.822265625 m 1,4,-1
 389.287109375 243.283203125 l 1,5,-1
 514.9921875 117.580078125 l 1,6,-1
 388.530273438 -8.8818359375 l 1,7,-1
 262.827148438 116.822265625 l 1,4,-1
-20.9921875 116.822265625 m 1,8,-1
 105.469726562 243.283203125 l 1,9,-1
 231.173828125 117.580078125 l 1,10,-1
 104.711914062 -8.8818359375 l 1,11,-1
 -20.9921875 116.822265625 l 1,8,-1
EndSplineSet
EndChar

StartChar: uni066E.fina
Encoding: 65540 -1 268
GlifName: uni066E_.fina
Width: 1891
VWidth: 2952
GlyphClass: 2
Flags: W
AnchorPoint: "Anchor-10" 925.51 1427.59 basechar 0
AnchorPoint: "Anchor-7" 828.357 -257.261 basechar 0
LayerCount: 2
Fore
SplineSet
283.424804688 504.521484375 m 0,0,1
 284 184 284 184 871.8671875 184.13671875 c 0,2,3
 1346 184 1346 184 1490 297 c 0,4,5
 1547.51835777 341.626312065 1547.51835777 341.626312065 1550.52539062 395.680664062 c 2,6,-1
 1560.52539062 575.440429688 l 1,7,-1
 1695.3359375 575.440429688 l 1,8,-1
 1705.3359375 393.607421875 l 2,9,10
 1717.0003804 183.993164062 1717.0003804 183.993164062 1887.58984375 183.993164062 c 2,11,-1
 1895.66699219 183.993164062 l 2,12,13
 1915.74707031 183.999914965 1915.74707031 183.999914965 1915.74707031 98.322265625 c 2,14,-1
 1915.74707031 88.3408203125 l 2,15,16
 1916 0 1916 0 1895.66601562 0 c 2,17,-1
 1886.02246094 0 l 2,18,19
 1686 0 1686 0 1596 167 c 5,20,21
 1448 0 1448 0 894.356445312 0 c 2,22,-1
 890.911132812 0 l 2,23,24
 105 0 105 0 104.16015625 485.872070312 c 0,25,26
 104 616 104 616 132 709 c 1,27,-1
 312 709 l 1,28,29
 283 607 283 607 283.424804688 504.521484375 c 0,0,1
EndSplineSet
EndChar

StartChar: uni06A1.fina
Encoding: 65543 -1 269
GlifName: uni06A_1.fina
Width: 1985
VWidth: 2952
GlyphClass: 2
Flags: W
AnchorPoint: "Anchor-10" 746.816 1573.03 basechar 0
AnchorPoint: "Anchor-7" 623.121 -309.592 basechar 0
LayerCount: 2
Fore
SplineSet
1497.84277344 670.752929688 m 0,0,1
 1445.98144531 672 1445.98144531 672 1395.0390625 630.73828125 c 0,2,3
 1324.98144531 574 1324.98144531 574 1324.75878906 484.80859375 c 0,4,5
 1323.98144531 424 1323.98144531 424 1388.44042969 350.631835938 c 0,6,7
 1449.43066406 279.80078125 1449.43066406 279.80078125 1500.7109375 275.817382812 c 24,8,9
 1544.98144531 272 1544.98144531 272 1611.81640625 349.1328125 c 0,10,11
 1675.98144531 423 1675.98144531 423 1675.49804688 483.309570312 c 0,12,13
 1675.98144531 572 1675.98144531 572 1605.21777344 629.239257812 c 0,14,15
 1555.98144531 669 1555.98144531 669 1497.84277344 670.752929688 c 0,0,1
1691.23828125 192.19921875 m 5,16,17
 1698 190 1698 190 1721 188.314453125 c 4,18,19
 1782.09665007 183.993164062 1782.09665007 183.993164062 1960.82714844 183.993164062 c 6,20,-1
 1993.37109375 183.993164062 l 6,21,22
 2013.44824219 184.000156104 2013.44824219 184.000156104 2013.44824219 107.174804688 c 2,23,-1
 2013.44824219 88.3076171875 l 2,24,25
 2013 0 2013 0 1993.37011719 0 c 2,26,-1
 1963.02246094 0 l 2,27,28
 1629 0 1629 0 1495.67871094 99.3876953125 c 1,29,30
 1352 0 1352 0 894.356445312 0 c 2,31,-1
 890.911132812 0 l 2,32,33
 105 0 105 0 104.16015625 485.872070312 c 0,34,35
 104 616 104 616 132 709 c 1,36,-1
 312 709 l 1,37,38
 283 607 283 607 283.424804688 504.521484375 c 0,39,40
 284 184 284 184 871.8671875 184.13671875 c 4,41,42
 1144 184 1144 184 1278 189.057617188 c 4,43,44
 1303 190 1303 190 1308.23828125 192.169921875 c 5,45,46
 1149 325 1149 325 1148.6328125 484.500976562 c 0,47,48
 1148 633 1148 633 1232.97851562 733 c 0,49,50
 1339 858 1339 858 1499.22265625 857.41796875 c 0,51,52
 1656 857 1656 857 1761.83398438 737 c 0,53,54
 1852 635 1852 635 1851.62402344 486.001953125 c 0,55,56
 1852 324 1852 324 1691.23828125 192.19921875 c 5,16,17
EndSplineSet
EndChar

StartChar: uni06A1.init
Encoding: 65544 -1 270
GlifName: uni06A_1.init
Width: 914
VWidth: 2952
GlyphClass: 2
Flags: W
AnchorPoint: "Anchor-10" 427.443 1606.02 basechar 0
AnchorPoint: "Anchor-7" 347.886 -245.023 basechar 0
LayerCount: 2
Fore
SplineSet
629.188476562 531.928710938 m 1,0,1
 608 859 608 859 455.963867188 858.450195312 c 0,2,3
 382 858 382 858 342.55859375 803.861328125 c 0,4,5
 304 750 304 750 303.717773438 679.888671875 c 0,6,7
 304 537 304 537 547.512695312 532.689453125 c 0,8,9
 589 532 589 532 629.188476562 531.928710938 c 1,0,1
801.55859375 540.326171875 m 24,10,11
 803 511 803 511 803.94921875 475.473632812 c 0,12,13
 823 0 823 0 244.868164062 0 c 2,14,-1
 -6.9384765625 0 l 2,15,16
 -84.7783203125 0 -84.7783203125 0 -84.7783203125 88.3134765625 c 2,17,-1
 -84.7783203125 107.186523438 l 2,18,19
 -84.9999971817 183.999023438 -84.9999971817 183.999023438 -6.9384765625 183.999023438 c 2,20,-1
 256.008789062 183.999023438 l 2,21,22
 616 184 616 184 626.658203125 354.5546875 c 5,23,-1
 556.739257812 354.137695312 l 4,24,25
 136 354 136 354 136.563476562 667.6796875 c 0,26,27
 137 822 137 822 223.55859375 932.209960938 c 0,28,29
 310 1042 310 1042 467.6640625 1042.40332031 c 0,30,31
 776 1043 776 1043 801.55859375 540.326171875 c 24,10,11
EndSplineSet
EndChar

StartChar: uni06A1.medi
Encoding: 65545 -1 271
GlifName: uni06A_1.medi
Width: 1012
VWidth: 2952
GlyphClass: 2
Flags: W
AnchorPoint: "Anchor-10" 542.544 1388.06 basechar 0
AnchorPoint: "Anchor-7" 507.517 -245.023 basechar 0
LayerCount: 2
Fore
SplineSet
544.861328125 670.752929688 m 4,0,1
 493 672 493 672 442.057617188 630.73828125 c 4,2,3
 372 574 372 574 371.77734375 484.80859375 c 4,4,5
 371 424 371 424 435.458984375 350.631835938 c 4,6,7
 496.44921875 279.80078125 496.44921875 279.80078125 547.729492188 275.817382812 c 28,8,9
 592 272 592 272 658.834960938 349.1328125 c 4,10,11
 723 423 723 423 722.516601562 483.309570312 c 4,12,13
 723 572 723 572 652.236328125 629.239257812 c 4,14,15
 603 669 603 669 544.861328125 670.752929688 c 4,0,1
546.241210938 857.41796875 m 4,16,17
 703 857 703 857 808.852539062 737 c 4,18,19
 899 635 899 635 898.642578125 486.001953125 c 4,20,21
 899 324 899 324 738.256835938 192.19921875 c 5,22,23
 745 190 745 190 767 188.385742188 c 4,24,25
 828.095079047 183.993164062 828.095079047 183.993164062 987.845703125 183.993164062 c 6,26,-1
 1020.38964844 183.993164062 l 6,27,28
 1040.46679688 184.00016272 1040.46679688 184.00016272 1040.46679688 107.174804688 c 6,29,-1
 1040.46679688 88.3076171875 l 6,30,31
 1040 0 1040 0 1020.38867188 0 c 6,32,-1
 990.041015625 0 l 6,33,34
 676 0 676 0 542.697265625 99.3876953125 c 5,35,36
 409 0 409 0 34.2099609375 0 c 2,37,-1
 -6.9384765625 0 l 2,38,39
 -84.7783203125 0 -84.7783203125 0 -84.7783203125 88.3134765625 c 2,40,-1
 -84.7783203125 107.186523438 l 2,41,42
 -84.9989968227 183.652392442 -84.9989968227 183.652392442 -6.91015625 183.993164062 c 2,43,-1
 34.0419921875 184.171875 l 2,44,45
 278 185 278 185 328 189.489257812 c 4,46,47
 347 191 347 191 355.256835938 192.169921875 c 5,48,49
 196 325 196 325 195.651367188 484.500976562 c 4,50,51
 195 633 195 633 279.997070312 733 c 4,52,53
 386 858 386 858 546.241210938 857.41796875 c 4,16,17
EndSplineSet
EndChar

StartChar: uni066F.fina
Encoding: 65546 -1 272
GlifName: uni066F_.fina
Width: 1396
VWidth: 2952
GlyphClass: 2
Flags: W
AnchorPoint: "Anchor-10" 404.297 1209.41 basechar 0
AnchorPoint: "Anchor-7" 479.744 -852.409 basechar 0
LayerCount: 2
Fore
SplineSet
694.400390625 -293.203125 m 0,0,1
 1079 -293 1079 -293 1117.00683594 1.380859375 c 1,2,-1
 1047.08789062 0.9638671875 l 0,3,4
 627 1 627 1 626.912109375 324.505859375 c 0,5,6
 627 479 627 479 713.907226562 589.036132812 c 0,7,8
 802 699 802 699 958.012695312 699.229492188 c 0,9,10
 1249 699 1249 699 1292.90722656 184.15234375 c 1,11,-1
 1404.03417969 183.999023438 l 2,12,13
 1424.12207031 184.000005971 1424.12207031 184.000005971 1424.12207031 106.174804688 c 2,14,-1
 1424.12207031 87.318359375 l 2,15,16
 1423.99982078 -0.128198879342 1423.99982078 -0.128198879342 1404.08886719 0 c 2,17,-1
 1292.15429688 0.720703125 l 1,18,19
 1240 -472 1240 -472 687.330078125 -471.724609375 c 0,20,21
 101 -472 101 -472 101.752929688 101.043945312 c 0,22,23
 102 262 102 262 163.028320312 440.125 c 1,24,-1
 330.548828125 440.120117188 l 5,25,26
 277 252 277 252 277.268554688 102.860351562 c 4,27,28
 278 -293 278 -293 694.400390625 -293.203125 c 0,0,1
1119.53710938 184.754882812 m 1,29,30
 1099 515 1099 515 946.3125 515.276367188 c 0,31,32
 872 515 872 515 832.907226562 460.6875 c 0,33,34
 794 407 794 407 794.06640625 336.71484375 c 0,35,36
 794 188 794 188 1037.86132812 185.515625 c 0,37,38
 1079 185 1079 185 1119.53710938 184.754882812 c 1,29,30
EndSplineSet
EndChar

StartChar: arabic_gaf_bar
Encoding: 65550 -1 273
GlifName: arabic_gaf_bar
Width: 751
VWidth: 2767
GlyphClass: 2
Flags: W
LayerCount: 2
Fore
SplineSet
757.040039062 1893.2578125 m 5,0,-1
 6.15625 1586.48242188 l 1,1,-1
 6.15625 1706.21191406 l 1,2,-1
 757.040039062 2012.984375 l 5,3,-1
 757.040039062 1893.2578125 l 5,0,-1
EndSplineSet
EndChar

StartChar: guillemotleft
Encoding: 171 171 283
GlifName: guillemotleft
Width: 1184
VWidth: 2318
Flags: W
LayerCount: 2
Fore
SplineSet
447.580078125 0.5234375 m 1,0,1
 135.568359375 493.866210938 135.568359375 493.866210938 134.8515625 555.50390625 c 0,2,3
 134.536132812 623.879882812 134.536132812 623.879882812 448.26953125 1048.22167969 c 1,4,-1
 648.497070312 1048.22167969 l 1,5,-1
 629.506835938 1022.26269531 l 2,6,7
 482.3046875 821.133789062 482.3046875 821.133789062 409.75 705.420898438 c 128,-1,8
 337.1953125 589.708007812 337.1953125 589.708007812 337.235351562 554.916992188 c 0,9,10
 337.158203125 492.530273438 337.158203125 492.530273438 630.267578125 25.5205078125 c 2,11,-1
 645.95703125 0.5234375 l 1,12,-1
 447.580078125 0.5234375 l 1,0,1
875.946289062 0.5234375 m 1,13,14
 563.31640625 493.853515625 563.31640625 493.853515625 563.219726562 555.512695312 c 0,15,16
 562.286132812 623.890625 562.286132812 623.890625 876.63671875 1048.22167969 c 1,17,-1
 1076.86425781 1048.22167969 l 1,18,-1
 1057.87402344 1022.26171875 l 2,19,20
 999.267578125 942.069335938 999.267578125 942.069335938 952.877929688 876.045898438 c 128,-1,21
 906.48828125 810.021484375 906.48828125 810.021484375 871.202148438 756.490234375 c 128,-1,22
 835.916015625 702.958984375 835.916015625 702.958984375 812.608398438 663.052734375 c 128,-1,23
 789.301757812 623.145507812 789.301757812 623.145507812 777.48828125 596.041015625 c 128,-1,24
 765.67578125 568.936523438 765.67578125 568.936523438 765.603515625 554.912109375 c 0,25,26
 765.952148438 491.87890625 765.952148438 491.87890625 1058.63574219 25.5205078125 c 2,27,-1
 1074.32421875 0.5234375 l 1,28,-1
 875.946289062 0.5234375 l 1,13,14
EndSplineSet
EndChar

StartChar: guillemotright
Encoding: 187 187 284
GlifName: guillemotright
Width: 1184
VWidth: 2318
Flags: W
LayerCount: 2
Fore
SplineSet
736.953125 0.5234375 m 1,0,-1
 538.577148438 0.5234375 l 1,1,-1
 554.264648438 25.5205078125 l 2,2,3
 847.431640625 493.072265625 847.431640625 493.072265625 847.258789062 555.109375 c 0,4,5
 847.431640625 622.546875 847.431640625 622.546875 555.025390625 1022.26367188 c 2,6,-1
 536.036132812 1048.22167969 l 1,7,-1
 736.26171875 1048.22167969 l 1,8,9
 1050.05175781 622.836914062 1050.05175781 622.836914062 1049.68359375 555.860351562 c 0,10,11
 1049.01953125 493.865234375 1049.01953125 493.865234375 736.953125 0.5234375 c 1,0,-1
308.583984375 0.5234375 m 1,12,-1
 110.208984375 0.5234375 l 1,13,-1
 125.896484375 25.51953125 l 2,14,15
 418.638671875 492.014648438 418.638671875 492.014648438 418.889648438 555.127929688 c 0,16,17
 418.637695312 623.130859375 418.637695312 623.130859375 126.657226562 1022.26367188 c 2,18,-1
 107.66796875 1048.22167969 l 1,19,-1
 307.889648438 1048.22167969 l 1,20,21
 621.270507812 621.78515625 621.270507812 621.78515625 621.315429688 555.853515625 c 0,22,23
 620.23828125 493.874023438 620.23828125 493.874023438 308.583984375 0.5234375 c 1,12,-1
EndSplineSet
EndChar

StartChar: NameMe.302
Encoding: 65562 -1 293
GlifName: N_ameM_e.302
Width: 645
VWidth: 2952
Flags: W
LayerCount: 2
Fore
SplineSet
327.154296875 136.7265625 m 2,0,1
 233.400478311 2.84217094304e-14 233.400478311 2.84217094304e-14 21.625 0 c 2,2,-1
 -6.9384765625 0 l 2,3,4
 -84.7783203125 0 -84.7783203125 0 -84.7783203125 88.3134765625 c 2,5,-1
 -84.7783203125 107.186523438 l 2,6,7
 -84.9999802718 183.993164062 -84.9999802718 183.993164062 -6.9384765625 183.993164062 c 2,8,-1
 24.140625 183.993164062 l 2,9,10
 255.919921875 183.999997639 255.919921875 183.999997639 255.919921875 435.180664062 c 2,11,-1
 255.919921875 1163.66699219 l 5,12,-1
 428.772460938 1163.66699219 l 5,13,-1
 428.772460938 435.1953125 l 2,14,15
 429.000006192 183.993164062 429.000006192 183.993164062 632.400390625 183.993164062 c 2,16,-1
 642.509765625 183.993164062 l 2,17,18
 673.65625 183.999925378 673.65625 183.999925378 673.65625 107.174804688 c 2,19,-1
 673.65625 88.291015625 l 2,20,21
 674 41 674 41 665.409179688 20.720703125 c 0,22,23
 657 0 657 0 642.508789062 0 c 2,24,-1
 634.920898438 0 l 2,25,26
 432.540028514 -5.68434188608e-14 432.540028514 -5.68434188608e-14 335.515625 136.79296875 c 2,27,-1
 333.776367188 139.245117188 l 1,28,-1
 331.287109375 142.75390625 l 1,29,-1
 328.854492188 139.206054688 l 1,30,-1
 327.154296875 136.7265625 l 2,0,1
EndSplineSet
EndChar

StartChar: NameMe.303
Encoding: 65563 -1 294
GlifName: N_ameM_e.303
Width: 574
VWidth: 2952
Flags: W
LayerCount: 2
Fore
SplineSet
-6.9384765625 0 m 2,0,1
 -84.7783203125 0 -84.7783203125 0 -84.7783203125 88.3134765625 c 2,2,-1
 -84.7783203125 107.186523438 l 2,3,4
 -84.9999802718 183.993164062 -84.9999802718 183.993164062 -6.9384765625 183.993164062 c 2,5,-1
 50.515625 183.993164062 l 2,6,7
 251.345703125 184.000011787 251.345703125 184.000011787 251.345703125 398.663085938 c 2,8,-1
 251.345703125 1326.52832031 l 5,9,-1
 420.66015625 1326.52832031 l 5,10,-1
 420.66015625 392.965820312 l 2,11,12
 421 0 421 0 45.318359375 0 c 2,13,-1
 -6.9384765625 0 l 2,0,1
EndSplineSet
EndChar

StartChar: NameMe.65564
Encoding: 65564 -1 297
GlifName: N_ameM_e.65564
Width: 551
VWidth: 2952
Flags: W
AnchorPoint: "Anchor-10" 256.697 1463.11 basechar 0
AnchorPoint: "Anchor-7" 316.078 -239.903 basechar 0
LayerCount: 2
Fore
SplineSet
578.618164062 88.310546875 m 1,0,1
 580 0 580 0 558.537109375 0 c 2,2,-1
 537.658203125 0 l 2,3,4
 164.283203125 0 164.283203125 0 164.283203125 438.395507812 c 2,5,-1
 164.283203125 1298.171875 l 5,6,-1
 333.598632812 1298.171875 l 5,7,-1
 333.598632812 440.450195312 l 2,8,9
 334.000010699 183.993164062 334.000010699 183.993164062 540.712890625 183.993164062 c 2,10,-1
 558.538085938 183.993164062 l 2,11,12
 578.618164062 183.999872436 578.618164062 183.999872436 578.618164062 107.174804688 c 2,13,-1
 578.618164062 88.310546875 l 1,0,1
EndSplineSet
EndChar

StartChar: NameMe.65565
Encoding: 65565 -1 298
GlifName: N_ameM_e.65565
Width: 722
VWidth: 2955
Flags: W
LayerCount: 2
Fore
SplineSet
117.484081484 -281.085777218 m 1,0,1
 178.529096084 -294.479463758 178.529096084 -294.479463758 232.546566513 -294.479463758 c 0,2,3
 356.258675598 -294.479463758 356.258675598 -294.479463758 443.110429119 -224.227888506 c 0,4,5
 500.296452324 -177.966839579 500.296452324 -177.966839579 500.296452324 -133.516811718 c 0,6,7
 500.296452324 -109.405081056 500.296452324 -109.405081056 462.975161408 -108.455057992 c 2,8,-1
 363.110509694 -105.932766685 l 2,9,10
 246.001551157 -102.723190999 246.001551157 -102.723190999 246.001551157 14.7506346382 c 0,11,12
 246.001551157 157.126561045 246.001551157 157.126561045 371.376752973 236.668023965 c 0,13,14
 460.238023828 293.048373629 460.238023828 293.048373629 618.490326484 293.995231635 c 1,15,-1
 608.990969331 168.038063927 l 1,16,17
 384.035851969 162.525423144 384.035851969 162.525423144 366.854903386 27.1294758791 c 2,18,-1
 365.534858625 16.7230754944 l 1,19,-1
 476.735207742 13.399816896 l 2,20,21
 588.784841964 10.0007547332 588.784841964 10.0007547332 614.149073737 -88.206495882 c 0,22,23
 619.228743177 -111.653180613 619.228743177 -111.653180613 619.228743177 -134.21060901 c 0,24,25
 619.228743177 -259.128478712 619.228743177 -259.128478712 463.450997334 -356.775607887 c 0,26,27
 364.691216918 -418.185986418 364.691216918 -418.185986418 225.575393716 -418.185986418 c 0,28,29
 165.751155985 -418.185986418 165.751155985 -418.185986418 98.4639797821 -406.829524167 c 1,30,-1
 117.484081484 -281.085777218 l 1,0,1
EndSplineSet
EndChar
